<?xml version="1.0" encoding="utf-8"?>
<svg version="1.1" id="Layer_1" xmlns="http://www.w3.org/2000/svg" xmlns:xlink="http://www.w3.org/1999/xlink" x="0px" y="0px"
	 viewBox="0 0 48 48" style="enable-background:new 0 0 48 48;" xml:space="preserve">
<g>
	<g>
		<path d="M40.9,27.7v-7.5c3.6-0.8,5.3-4.8,3.5-7.9c-1.8-3.1-6.2-3.6-8.6-0.9l-6.5-3.8c1.1-3.5-1.5-7-5.1-7c-3.6,0-6.2,3.5-5.1,7
			l-6.5,3.8C10,8.6,5.6,9.1,3.8,12.2c-1.8,3.2,0,7.2,3.5,7.9v7.5c-3.6,0.8-5.4,4.8-3.5,7.9c1.8,3.1,6.2,3.6,8.6,0.9l6.5,3.8
			c-1.1,3.5,1.5,7,5.1,7c3.6,0,6.2-3.5,5.1-7l6.5-3.8c2.5,2.7,6.8,2.2,8.6-0.9c0,0,0,0,0,0c0.7-1.2,0.9-2.7,0.5-4.1
			C44.4,29.5,42.8,28.1,40.9,27.7z M39.8,11.8c3.2,0,4.3,4.3,1.6,5.8c0,0,0,0,0,0c-1.6,0.9-3.6,0.3-4.4-1.3
			C35.9,14.2,37.5,11.8,39.8,11.8z M24.1,2.7c1.7,0,3.1,1.4,3.1,3.1c0,1.7-1.4,3.1-3.1,3.1C22.4,9,21,7.6,21,5.9
			C21,4.1,22.4,2.7,24.1,2.7z M6.9,17.6c-2.7-1.6-1.6-5.8,1.6-5.8c2.4,0,3.9,2.6,2.7,4.7C10.3,17.9,8.4,18.5,6.9,17.6z M10,35.7
			c-1.5,0.9-3.4,0.3-4.3-1.1c-1.2-2.1,0.3-4.7,2.7-4.7c0,0,0,0,0,0C11.7,29.8,12.8,34,10,35.7z M24.1,45.1c-1.7,0-3.1-1.4-3.1-3.1
			c0-1.7,1.4-3.1,3.1-3.1c1.7,0,3.1,1.4,3.1,3.1C27.2,43.7,25.8,45.1,24.1,45.1z M34.6,34.6l-6.5,3.8c-2.2-2.4-5.9-2.3-8,0l-6.5-3.8
			c1-3-0.9-6.2-4-6.9v-7.5c3.1-0.7,5-3.9,4-6.9l6.5-3.8c2.1,2.4,5.8,2.4,8,0l6.5,3.8c-1,3,0.9,6.2,4,6.9v7.5
			C35.5,28.4,33.7,31.6,34.6,34.6z M42.5,34.5c-0.9,1.5-2.8,2-4.3,1.1c-2.8-1.6-1.6-5.8,1.6-5.8C42.2,29.8,43.7,32.4,42.5,34.5z"/>
	</g>
</g>
</svg>
