<svg version="1.1" id="Layer_1" xmlns="http://www.w3.org/2000/svg" xmlns:xlink="http://www.w3.org/1999/xlink" x="0px" y="0px"
	 viewBox="0 0 1000 1000" style="enable-background:new 0 0 1000 1000;" xml:space="preserve">
<g>
	<path style="fill:#070149;" d="M678,747.7c-54,36.9-117.1,55.4-181.7,54.5c-8.5-0.1-17-0.5-25.4-1.3c-3.4-0.3-6.9-0.8-10.3-1.2
		c-6.6-0.9-13.2-1.7-19.6-2.9c-4-0.7-7.8-1.7-11.7-2.7c-6.3-1.4-12.6-2.9-18.7-4.7c-3-0.9-5.8-1.9-8.8-2.9c-7.1-2.3-14.1-4.7-21-7.5
		c-1.6-0.6-3.1-1.3-4.6-2c-8-3.4-16-7-23.6-11.1c-0.4-0.2-0.7-0.4-1.1-0.6c-26-13.9-49.7-31.3-70.6-51.6c-0.3-0.3-0.6-0.6-1-1.1
		c-6.5-6.3-12.6-12.9-18.5-19.8c-1.3-1.4-2.4-3-3.7-4.5c-42.4-51.7-68-117.2-68-188.5h81.7L140.6,308.7L10,499.9h81.7
		c0,83.7,26.8,161.4,72.3,225.6c0.6,0.9,0.9,1.9,1.6,2.8c4.7,6.6,10,12.6,15,18.8c1.9,2.3,3.7,4.8,5.6,7.1
		c7.5,8.8,15.4,17.1,23.5,25.2c0.8,0.8,1.5,1.6,2.3,2.3c27.3,26.6,58.2,49.1,91.8,67c0.9,0.6,1.8,1.1,2.7,1.5
		c9.7,5.1,19.6,9.6,29.7,14c2.5,1,5,2.2,7.5,3.3c8.6,3.5,17.5,6.6,26.4,9.5c4.2,1.4,8.4,2.8,12.7,4.1c7.8,2.3,15.8,4.2,23.8,6
		c5.3,1.2,10.6,2.5,16,3.5c2.3,0.5,4.4,1.1,6.6,1.5c7.6,1.3,15.2,2.1,22.8,3c2.7,0.3,5.4,0.7,8.1,1c13.7,1.3,27.2,2.2,40.8,2.2
		c83,0,164-24.8,233.5-72.2c22.1-15.2,27.5-44.9,12-66.6C730.8,737.7,700.2,732.5,678,747.7 M908.4,499.9c0-83.5-26.7-161-72-225.1
		c-0.6-1.1-1.1-2.2-1.8-3.3c-5.6-7.8-11.8-15.1-17.9-22.4c-0.7-0.9-1.4-1.8-2.1-2.7c-41.5-49.1-93.5-86.9-152.5-111.6
		c-1.7-0.7-3.2-1.5-4.9-2.1c-9.4-3.8-19-7.1-28.7-10.3c-3.5-1.1-7-2.3-10.5-3.4c-8.4-2.5-17-4.6-25.7-6.5c-4.7-1-9.5-2.2-14.4-3.2
		c-2.4-0.4-4.6-1.2-7-1.5c-6.5-1.1-12.9-1.6-19.4-2.4c-4.5-0.5-8.9-1.2-13.4-1.6c-10.8-1-21.6-1.4-32.4-1.6
		c-1.9-0.1-3.8-0.3-5.8-0.3c-0.3,0-0.6,0.1-1,0.1c-82.9,0.1-163.7,24.5-233.1,71.9c-22.2,15.1-27.5,44.9-12,66.5
		c15.5,21.7,46.1,26.9,68.3,11.7c53.6-36.6,116.1-55.1,180.2-54.5c9.2,0.1,18.3,0.5,27.3,1.3c2.8,0.3,5.5,0.7,8.3,1
		c7.3,0.9,14.7,1.9,21.9,3.3c3.2,0.6,6.3,1.4,9.4,2.1c7.1,1.6,14.1,3.2,21.1,5.2c2.1,0.7,4.3,1.5,6.5,2.2c7.9,2.5,15.6,5.2,23.3,8.3
		c0.8,0.3,1.6,0.7,2.3,1c45.6,19.1,85.7,48.6,117,85.5c0.2,0.2,0.4,0.6,0.5,0.7c44,52.2,70.5,119,70.5,191.7h-81.7L859.4,691
		l130.5-191h-81.5V499.9z"/>
</g>
<polygon style="fill:#070149;" points="629.1,500 382.6,357.7 382.6,642.3 "/>
</svg>
