<?xml version="1.0" encoding="utf-8"?>
<svg version="1.1" id="Capa_1" xmlns="http://www.w3.org/2000/svg" xmlns:xlink="http://www.w3.org/1999/xlink" x="0px" y="0px"
	 viewBox="0 0 48 48" style="enable-background:new 0 0 48 48;" xml:space="preserve">
<g>
	<path d="M37.1,36.4c-0.3,0-0.7,0-1,0.1l-5-8.3c0.7-0.5,1.3-1.1,1.7-1.9c1.4-2.5,0.7-5.5-1.5-7.2l3.4-7.6c0.4,0.1,0.9,0.2,1.4,0.2
		c3.1,0,5.7-2.6,5.7-5.7s-2.6-5.7-5.7-5.7c-3.2,0-5.7,2.6-5.7,5.7c0,1.9,0.9,3.6,2.4,4.6L29.5,18c-2.5-0.7-5.3,0.3-6.6,2.7
		c-0.4,0.8-0.6,1.6-0.7,2.4h-8.7c-0.5-2.7-2.8-4.8-5.6-4.8c-3.2,0-5.7,2.6-5.7,5.7c0,3.1,2.6,5.7,5.7,5.7c2.7,0,5-1.9,5.6-4.5h9
		c0.4,1.3,1.3,2.5,2.6,3.2c1.3,0.7,2.7,0.9,4,0.6l4.9,8.2c-1.6,1-2.7,2.8-2.7,4.8c0,3.2,2.6,5.7,5.7,5.7c3.2,0,5.7-2.6,5.7-5.7
		C42.8,38.9,40.3,36.4,37.1,36.4z M32.7,5.9c0-2,1.6-3.6,3.6-3.6c2,0,3.6,1.6,3.6,3.6s-1.6,3.6-3.6,3.6C34.3,9.5,32.7,7.9,32.7,5.9z
		 M7.9,27.6c-2,0-3.6-1.6-3.6-3.6s1.6-3.6,3.6-3.6c2,0,3.6,1.6,3.6,3.6S9.9,27.6,7.9,27.6z M37.1,45.6c-2,0-3.6-1.6-3.6-3.6
		c0-2,1.6-3.6,3.6-3.6s3.6,1.6,3.6,3.6C40.7,44,39.1,45.6,37.1,45.6z"/>
</g>
</svg>
