<?xml version="1.0" encoding="UTF-8"?>
<svg version="1.1" xmlns="http://www.w3.org/2000/svg" width="542" height="1058">
<path d="M0 0 C0.75345703 0.18771973 1.50691406 0.37543945 2.28320312 0.56884766 C16.51036718 4.23766358 30.14229069 9.74090819 43.81039429 15.06575012 C54.08953894 19.06880399 64.36197319 23.04517873 75 26 C74.87625 25.113125 74.7525 24.22625 74.625 23.3125 C75 20 75 20 77.6875 17.25 C82.66747506 13.63137327 86.77349432 12.43395403 93 13 C95.375 14.0625 95.375 14.0625 97 16 C97.95886066 20.05671819 98.14361273 23.02790997 97 27 C107.08624008 24.85581631 116.3423286 21.33318505 125.875 17.4375 C136.19203323 13.2412293 145.90689841 10.09346287 157 9 C157 9.66 157 10.32 157 11 C156.34 11.33 155.68 11.66 155 12 C155.99 12.33 156.98 12.66 158 13 C158.33 11.68 158.66 10.36 159 9 C159.66 9 160.32 9 161 9 C161 9.66 161 10.32 161 11 C161.99217529 10.98428955 162.98435059 10.9685791 164.0065918 10.95239258 C167.75080985 10.89735706 171.49499362 10.86338753 175.23950195 10.83520508 C176.84828743 10.82028366 178.45703344 10.79993909 180.06567383 10.77368164 C194.62395959 10.54230969 209.33828598 10.99016066 220.62109375 21.51171875 C225.14766282 26.62929387 227.75568344 32.15913619 228 39 C226.19351835 44.9011734 222.26680834 48.13161515 217 51 C190.22421894 61.53134834 161.61283361 56.78464996 134.72753906 49.71533203 C132.4540639 49.11908407 130.17810319 48.53679663 127.8984375 47.96484375 C116.78603013 45.11898332 105.9098261 41.53001213 95 38 C95.00752792 38.57090866 95.01505585 39.14181732 95.02281189 39.73002625 C95.20368864 55.85632795 94.66036763 71.88596377 93.77319336 87.98657227 C93.56025028 91.85335202 93.35653528 95.7205375 93.15429688 99.58789062 C93.02135855 102.08596551 92.8879137 104.58401349 92.75390625 107.08203125 C92.6934462 108.218647 92.63298615 109.35526276 92.57069397 110.52632141 C92.19173982 117.36737737 91.67150613 124.18138 91 131 C92.98 131 94.96 131 97 131 C97 130.34 97 129.68 97 129 C120.62667366 125.64409217 145.97645596 128.11361564 166 142 C173.65579558 148.24222548 177.92892486 155.33498269 180 165 C180.73345853 173.80150236 178.73165918 182.32398711 173.57421875 189.5625 C167.8758703 194.76595467 160.62700094 194.94884253 153.34375 195.81640625 C148.32614911 196.47383287 144.43570709 197.37359449 140 200 C140.98673706 200.17221069 140.98673706 200.17221069 141.9934082 200.34790039 C172.43793933 205.7674982 197.24176463 215.50199265 220 237 C220.75023437 237.68578125 221.50046875 238.3715625 222.2734375 239.078125 C239.06774328 254.98851995 248.59917159 275.8959567 255.25 297.68579102 C257.90102995 306.02682254 261.48209387 312.22995363 267 319 C267.86083421 320.11375664 268.71944385 321.22924252 269.57421875 322.34765625 C270.27160156 323.24355469 270.96898437 324.13945312 271.6875 325.0625 C277.80572928 333.18843837 283.01331188 341.52911052 282 352 C279.972683 357.81830889 277.35960325 362.77913668 272.046875 366.10546875 C268.19326092 367.78958635 264.14700298 368.44094728 260 369 C260.144375 369.62261719 260.28875 370.24523437 260.4375 370.88671875 C263.19233762 384.60351438 262.34760066 398.75488585 261.234375 412.62109375 C260.5829968 422.01179609 260.55654162 430.83921255 262.5 440.0625 C266.57694352 459.73357167 266.57694352 459.73357167 261.75 467.75 C246.84245688 486.30624249 227.52496693 497.00567031 204.84765625 502.7421875 C200.25446411 503.91456608 195.71513144 505.2217115 191.1875 506.625 C189.32158203 507.20121094 189.32158203 507.20121094 187.41796875 507.7890625 C178.94087849 510.79237448 174.66275808 514.61933347 170.0625 522.1875 C168.87837707 525.32194305 168.82836822 525.96819454 170 529 C172.02798291 531.58757155 174.19287465 534.01347734 176.3828125 536.46484375 C178 539 178 539 177.9609375 541.6328125 C176.85802177 544.34975126 175.87001761 545.26197526 173.5 546.9375 C171.04058507 548.9427906 170.02793745 549.94158533 168.625 552.875 C169.14380909 557.1984091 171.35361726 559.02528148 174.43359375 561.97265625 C176 564 176 564 176.43359375 566.54296875 C175.89481028 569.59607509 175.04492149 570.37332619 172.625 572.25 C171.99851562 572.75015625 171.37203125 573.2503125 170.7265625 573.765625 C169 575 169 575 167 576 C166.70178721 579.07265678 166.63539737 580.51727356 168.53125 583.02734375 C169.1809375 583.65769531 169.830625 584.28804687 170.5 584.9375 C173.91949147 588.64137108 173.91949147 588.64137108 174.6875 592.0625 C174 595 174 595 171.9375 598.3125 C169.91996594 601.67748461 169.46643906 604.32976296 170.1640625 608.28515625 C172.20697724 614.919856 175.69843396 620.9272946 179 627 C179.81041748 628.50771973 179.81041748 628.50771973 180.63720703 630.04589844 C188.39550333 644.44286909 196.54435663 658.43308167 205.71142578 671.98803711 C206.95576249 673.93092813 208.01056082 675.90737196 209.06640625 677.95703125 C210.69075707 681.10956611 210.69075707 681.10956611 213.359375 682.12109375 C214.14828125 682.22550781 214.9371875 682.32992187 215.75 682.4375 C216.94882812 682.62119141 216.94882812 682.62119141 218.171875 682.80859375 C218.77515625 682.87175781 219.3784375 682.93492187 220 683 C220.33 681.68 220.66 680.36 221 679 C221.66 679.33 222.32 679.66 223 680 C223.12375 680.721875 223.2475 681.44375 223.375 682.1875 C223.84506117 685.15477089 223.84506117 685.15477089 225.9375 687.75 C230.13430995 694.36315507 230.36375005 701.95784228 230.3125 709.625 C230.30831055 710.49165283 230.30412109 711.35830566 230.29980469 712.2512207 C230.08381169 724.72711409 228.3294859 738.92279971 219.58984375 748.5390625 C209.44378272 757.86246993 196.56482938 763.15504297 183.625 767.3125 C182.47523682 767.68930908 181.32547363 768.06611816 180.14086914 768.4543457 C170.00211849 771.74662619 159.79729462 774.81653651 149.57177734 777.82641602 C143.6041796 779.58948154 137.69017454 781.40802519 131.83203125 783.50610352 C69.26253252 805.86178628 -9.68428611 797.1449845 -68.8125 769.25 C-84.64786644 761.55154197 -98.48030047 752.38103197 -111 740 C-111.6496875 739.41089844 -112.299375 738.82179688 -112.96875 738.21484375 C-121.8249425 730.02286569 -128.15575956 719.35504633 -132 708 C-132.24492187 707.28972656 -132.48984375 706.57945312 -132.7421875 705.84765625 C-135.53054097 695.89743598 -135.75380238 682.30445081 -131 673 C-128.22848502 668.10365688 -125.08237619 664.54118809 -120 662 C-117.30822967 661.80207571 -114.61868678 661.68224022 -111.921875 661.57421875 C-103.93897756 660.0053873 -99.63087914 653.40607884 -95.32421875 647.06835938 C-92.12481979 642.07106808 -89.26240976 636.85997872 -86.42529297 631.65063477 C-81.78599394 623.23429825 -76.36153726 616.03142205 -69.375 609.4375 C-63.68878645 603.82939378 -58.40821315 598.37425568 -57.70703125 590.07421875 C-58.19383012 586.62768272 -60.06898688 584.06463652 -62.06640625 581.2734375 C-63 579 -63 579 -62.50390625 575.98046875 C-60.20473599 571.42393132 -56.56029485 569.68249895 -52.3359375 567.02734375 C-49.78289475 565.22034113 -49.78289475 565.22034113 -49.44921875 562.46484375 C-50.12594716 559.43636414 -51.06840705 558.57938252 -53.4375 556.625 C-56.20947965 554.03894581 -56.97700356 553.07140999 -58.1875 549.3125 C-58 546 -58 546 -56.5 543.8125 C-53.4427153 541.59596859 -50.3257418 539.79078404 -47 538 C-48.43969052 532.96108318 -51.01900215 531.13397703 -55 528 C-56.53359431 524.93281139 -56.65552102 523.40870931 -56 520 C-53.796989 518.2288664 -51.53787969 516.86136058 -49.06640625 515.4921875 C-46.87859421 514.17884752 -46.87859421 514.17884752 -46.13671875 512.0234375 C-45.88485835 508.29590356 -47.70265294 505.7336221 -50 503 C-58.126847 496.0322706 -66.93975129 491.42784009 -77.09375 488.265625 C-78.63553058 487.76858238 -80.17719339 487.27117434 -81.71875 486.7734375 C-84.09480507 486.01414985 -86.47195255 485.25881724 -88.8515625 484.51074219 C-106.24270545 479.02148093 -124.9841063 472.45202387 -136 457 C-137.9214221 453.16983846 -138.2457522 450.07550183 -138.1875 445.8125 C-138.18105469 444.76707031 -138.17460937 443.72164063 -138.16796875 442.64453125 C-138 440 -138 440 -137 438 C-137.66 437.814375 -138.32 437.62875 -139 437.4375 C-148.88448724 432.7011832 -155.96686029 423.28371321 -159.9375 413.3125 C-163.27792071 403.09279702 -163.68432463 391.88727091 -159 382 C-154.89797119 374.99236745 -149.55452081 370.05564939 -142 367 C-138.06138148 366.12960903 -134.22152718 365.45836928 -130.22265625 364.93359375 C-126.93739383 364.29024535 -126.93739383 364.29024535 -125.18359375 361.97265625 C-121.18565535 351.93162944 -121.14818901 340.95170501 -120.39819336 330.2890625 C-119.3692817 315.88732995 -116.19034415 303.90061002 -110.8125 290.4375 C-110.56945129 289.82605133 -110.32640259 289.21460266 -110.07598877 288.58462524 C-88.01705202 233.11578245 -88.01705202 233.11578245 -61.9375 219.9375 C-60.68924438 219.29699707 -60.68924438 219.29699707 -59.41577148 218.64355469 C-52.74348681 215.2712993 -46.03462273 212.19637763 -38.97705078 209.703125 C-37.61553838 209.21891214 -36.2599323 208.71787188 -34.90966797 208.203125 C-22.30638643 203.44780453 -9.97377277 202.1149865 3.37695312 201.58105469 C4.65119141 201.52852539 5.92542969 201.47599609 7.23828125 201.421875 C8.37305908 201.38674805 9.50783691 201.35162109 10.67700195 201.31542969 C14.36864726 200.96500681 17.47216609 200.11614452 21 199 C19.25015232 194.79531422 17.28944136 193.76748703 13.28662109 191.91113281 C10.29213541 190.71794249 7.2566452 189.86497671 4.14819336 189.02319336 C-5.84955515 186.24865356 -5.84955515 186.24865356 -9.2421875 182.56640625 C-10.52122308 180.01968748 -11.37116686 177.7747812 -12 175 C-12.18820313 174.16984375 -12.37640625 173.3396875 -12.5703125 172.484375 C-14.14603843 163.37381419 -12.8378781 155.49830722 -7.4921875 147.83984375 C4.83101684 132.9660227 23.37288008 126.69629499 42 124 C44.01702469 123.92305853 46.03622265 123.89193929 48.0546875 123.90234375 C49.16328125 123.90556641 50.271875 123.90878906 51.4140625 123.91210938 C52.55617188 123.92048828 53.69828125 123.92886719 54.875 123.9375 C56.62296875 123.94426758 56.62296875 123.94426758 58.40625 123.95117188 C61.27088645 123.96291219 64.13541633 123.9793343 67 124 C68.53850518 105.28049261 70.03659305 86.56039807 71.1875 67.8125 C71.25127838 66.80003708 71.25127838 66.80003708 71.31634521 65.76712036 C71.81254872 57.83455007 72.12041542 49.94844705 72 42 C71.23034912 42.20157715 70.46069824 42.4031543 69.66772461 42.61083984 C39.59788846 50.4391142 9.29442031 57.45040416 -19.11132812 41.12353516 C-30.82265315 34.15668953 -43.88044547 25.73903787 -48 12 C-48.40865909 7.32642603 -47.64578605 4.08399801 -45.25 0.0625 C-34.57957102 -9.71872657 -12.45524787 -3.12365801 0 0 Z M260 340 C258.515 345.445 258.515 345.445 257 351 C260.68377223 349.42163702 260.68377223 349.42163702 262 348 C262.04092937 345.66702567 262.04241723 343.33294775 262 341 C261.34 340.67 260.68 340.34 260 340 Z M-131.875 389.8125 C-132.57367188 390.33457031 -133.27234375 390.85664063 -133.9921875 391.39453125 C-138.07243997 394.5157358 -138.07243997 394.5157358 -139.5 399.3125 C-138.89152318 403.80001658 -137.39525375 406.16543035 -134 409 C-128.87491977 412.58327297 -128.87491977 412.58327297 -123 414 C-123 413.34 -123 412.68 -123 412 C-123.4844458 411.56905029 -123.9688916 411.13810059 -124.46801758 410.6940918 C-126.53442491 408.409024 -126.42361207 406.94302249 -126.51171875 403.89453125 C-126.54716797 402.91162109 -126.58261719 401.92871094 -126.61914062 400.91601562 C-126.64169922 399.89185547 -126.66425781 398.86769531 -126.6875 397.8125 C-126.73874023 396.25885742 -126.73874023 396.25885742 -126.79101562 394.67382812 C-126.87352642 392.1159934 -126.94266572 389.55850277 -127 387 C-128.90482251 387 -130.41638885 388.71453446 -131.875 389.8125 Z " fill="#1A61D5" transform="translate(206,29)"/>
<path d="M0 0 C0.01417969 0.67804688 0.02835938 1.35609375 0.04296875 2.0546875 C0.52175803 11.39754852 3.0499766 18.49177915 9.8125 25.125 C29.92024977 41.62537938 56.05429697 43.4895986 81 42 C85.93638671 41.37404581 90.4212463 39.93739644 95 38 C96.07378906 37.56429687 97.14757812 37.12859375 98.25390625 36.6796875 C106.97915259 32.76135601 112.4890574 27.91660064 116.375 19.125 C118.18126588 14.15390929 118.77604463 9.26295111 119 4 C148.19980788 4.09668811 176.2843066 19.17521004 196.75 39.1875 C221.80628765 64.50284655 233.12288176 99.25019722 233.375 134.4375 C233.38869629 135.41404541 233.40239258 136.39059082 233.41650391 137.39672852 C233.3758621 143.66600189 232.49410878 147.13639362 228.3125 151.9375 C226.46071942 154.84744092 226.66053031 156.57297265 227 160 C228.2314209 162.49369746 229.45945031 164.73046605 230.9375 167.0625 C234.52367624 172.81648572 236.1070513 177.25736996 236.16113281 184.05883789 C236.17074036 185.04078629 236.1803479 186.02273468 236.19024658 187.03443909 C236.1966214 188.61260658 236.1966214 188.61260658 236.203125 190.22265625 C236.20882507 191.31911972 236.21452515 192.41558319 236.22039795 193.54527283 C236.22983522 195.86602824 236.23637687 198.18679697 236.24023438 200.50756836 C236.24989828 204.02547217 236.28091734 207.54278109 236.3125 211.06054688 C236.31903495 213.32291322 236.32428349 215.58528372 236.328125 217.84765625 C236.3404718 218.8855983 236.3528186 219.92354034 236.36553955 220.99293518 C236.34272972 228.62393466 236.29327826 238.17813936 231.09283447 244.21327209 C228.29632164 246.60075547 225.23496711 248.41833087 222.0625 250.25 C220.70130558 251.04859803 219.34063643 251.84809198 217.98046875 252.6484375 C217.30419434 253.04514648 216.62791992 253.44185547 215.93115234 253.85058594 C213.21044982 255.46993707 210.54732586 257.1772871 207.875 258.875 C180.54293607 275.64846711 152.07650706 286.56886202 120 289 C123.66601272 289.17907627 127.33086608 289.28238965 131 289.375 C132.010625 289.42527344 133.02125 289.47554687 134.0625 289.52734375 C142.88786972 289.69281943 149.89549697 287.11324258 157.90014648 283.83093262 C161.39175281 282.44926977 164.95030575 281.28065374 168.515625 280.10546875 C169.9560579 279.62541635 171.39632375 279.14486242 172.83642578 278.66381836 C173.55799866 278.42307587 174.27957153 278.18233337 175.02301025 277.93429565 C195.59784499 271.0347591 213.99952132 263.26309983 232 251 C232.66 250.67 233.32 250.34 234 250 C231.66666667 254.66666667 229.33333333 259.33333333 227 264 C226.67 263.34 226.34 262.68 226 262 C223.54775306 262.10613836 223.54775306 262.10613836 221 263 C219.75732962 265.18428569 219.75732962 265.18428569 219 268 C218.47148671 269.2763596 217.92938663 270.54716384 217.375 271.8125 C216.694375 273.3903125 216.694375 273.3903125 216 275 C215.34 275 214.68 275 214 275 C214 274.01 214 273.02 214 272 C209.78185183 275.9700218 206.38772897 280.30840284 203 285 C202.67 284.34 202.34 283.68 202 283 C202.9375 280.375 202.9375 280.375 204 278 C200.88183179 278.65380285 200.88183179 278.65380285 199.9375 281.03125 C199.628125 281.8459375 199.31875 282.660625 199 283.5 C198.0625 285.96875 198.0625 285.96875 197 288 C196.01 288.33 195.02 288.66 194 289 C194 286.69 194 284.38 194 282 C190.64927984 283.76351887 190.64927984 283.76351887 190 287.5625 C189.67 288.696875 189.34 289.83125 189 291 C188.01 291.33 187.02 291.66 186 292 C186 290.35 186 288.7 186 287 C184.00136244 287.57944932 184.00136244 287.57944932 182 289 C180.70768358 292.04199472 180.70768358 292.04199472 180 295 C179.01 295 178.02 295 177 295 C177.33 293.02 177.66 291.04 178 289 C174.45031266 290.18322911 174.20689574 290.91752387 172.4375 294.0625 C171.18359375 296.28515625 171.18359375 296.28515625 170 298 C169.34 298 168.68 298 168 298 C168.33 296.02 168.66 294.04 169 292 C168.01 292.33 167.02 292.66 166 293 C165.67 294.98 165.34 296.96 165 299 C163.35 299.33 161.7 299.66 160 300 C160.33 298.02 160.66 296.04 161 294 C160.01 294.33 159.02 294.66 158 295 C156.78130071 297.50447516 156.78130071 297.50447516 156 300 C154.68 300 153.36 300 152 300 C152.57584432 297.61435923 153.22227595 295.33317216 154 293 C149.33845958 294.49835228 148.13389249 297.88463591 146 302 C145.01 302 144.02 302 143 302 C143.33 300.02 143.66 298.04 144 296 C141.9837767 296.71563266 141.9837767 296.71563266 140 298 C139.19471111 300.05000871 139.19471111 300.05000871 139 302 C137.68 302 136.36 302 135 302 C135.33 300.35 135.66 298.7 136 297 C132.88667752 297.66868314 132.88667752 297.66868314 131.8125 300.0625 C131.544375 300.701875 131.27625 301.34125 131 302 C129.02 302 127.04 302 125 302 C125.33 300.02 125.66 298.04 126 296 C124.29159719 297.63412443 123.06546953 298.86906094 122 301 C119.67843403 301.40729228 117.3431213 301.74438677 115 302 C115.33 301.01 115.66 300.02 116 299 C112.25332798 300.6327851 112.25332798 300.6327851 109 303 C107.33382885 303.04063832 105.66611905 303.042721 104 303 C104.33 301.68 104.66 300.36 105 299 C101.9168649 300.19899698 98.93720508 301.47700477 96 303 C96.33 301.35 96.66 299.7 97 298 C96.21882813 298.98226562 96.21882813 298.98226562 95.421875 299.984375 C92.21693783 302.6517098 90.35842763 302.41433711 86.25 302.25 C85.07953125 302.21390625 83.9090625 302.1778125 82.703125 302.140625 C81.81109375 302.09421875 80.9190625 302.0478125 80 302 C80.33 300.68 80.66 299.36 81 298 C79.05925139 298.27617533 79.05925139 298.27617533 77 299 C76.34 299.99 75.68 300.98 75 302 C74.34 302 73.68 302 73 302 C73.875 297.25 73.875 297.25 75 295 C74.56429687 295.433125 74.12859375 295.86625 73.6796875 296.3125 C68.78135972 300.89275455 68.78135972 300.89275455 64.8125 301.4375 C62.48019986 301.07469776 60.27179366 300.6267017 58 300 C57.01 300 56.02 300 55 300 C55.33 299.01 55.66 298.02 56 297 C54.68 297 53.36 297 52 297 C51.67 297.99 51.34 298.98 51 300 C50.34 300 49.68 300 49 300 C49 298.35 49 296.7 49 295 C48.01 295 47.02 295 46 295 C45.67 296.32 45.34 297.64 45 299 C42.125 299.125 42.125 299.125 39 299 C38.34 298.34 37.68 297.68 37 297 C36.01 297.66 35.02 298.32 34 299 C31.3125 298.625 31.3125 298.625 29 298 C29 297.01 29 296.02 29 295 C28.01 295 27.02 295 26 295 C25.67 295.99 25.34 296.98 25 298 C24.34 298 23.68 298 23 298 C23 296.68 23 295.36 23 294 C20.525 295.98 20.525 295.98 18 298 C17.67 297.01 17.34 296.02 17 295 C15.02 295.66 13.04 296.32 11 297 C11 296.34 11 295.68 11 295 C10.443125 295.33 9.88625 295.66 9.3125 296 C6.69715478 297.1309601 4.8193354 297.15662974 2 297 C2 295.68 2 294.36 2 293 C1.38125 293.495 0.7625 293.99 0.125 294.5 C-2 296 -2 296 -4 296 C-4 294.68 -4 293.36 -4 292 C-4.99 292 -5.98 292 -7 292 C-7.33 293.32 -7.66 294.64 -8 296 C-8.99 296 -9.98 296 -11 296 C-11 294.68 -11 293.36 -11 292 C-12.32 292.33 -13.64 292.66 -15 293 C-15 292.01 -15 291.02 -15 290 C-15.99 290 -16.98 290 -18 290 C-18.33 291.65 -18.66 293.3 -19 295 C-19.99 294.67 -20.98 294.34 -22 294 C-22.6875 291.9375 -22.6875 291.9375 -23 290 C-23.66 290 -24.32 290 -25 290 C-25.33 290.66 -25.66 291.32 -26 292 C-26.99 292 -27.98 292 -29 292 C-29 290.68 -29 289.36 -29 288 C-32.27773504 288.75150023 -32.27773504 288.75150023 -34 292 C-34.66 292 -35.32 292 -36 292 C-36.33 290.68 -36.66 289.36 -37 288 C-37.99 288.66 -38.98 289.32 -40 290 C-42.0625 289.875 -42.0625 289.875 -44 289 C-45.25 286.9375 -45.25 286.9375 -46 285 C-46.433125 285.66 -46.86625 286.32 -47.3125 287 C-47.869375 287.66 -48.42625 288.32 -49 289 C-49.99 289 -50.98 289 -52 289 C-51.67 286.36 -51.34 283.72 -51 281 C-53.0245738 282.93254772 -54.42105792 284.63158688 -56 287 C-56.66 287 -57.32 287 -58 287 C-58 285.02 -58 283.04 -58 281 C-58.99 281.33 -59.98 281.66 -61 282 C-61.33 282.99 -61.66 283.98 -62 285 C-62.66 285 -63.32 285 -64 285 C-64.33 284.34 -64.66 283.68 -65 283 C-65.99 282.67 -66.98 282.34 -68 282 C-68 282.66 -68 283.32 -68 284 C-68.66 284 -69.32 284 -70 284 C-70 282.35 -70 280.7 -70 279 C-71.32 279.33 -72.64 279.66 -74 280 C-74.33 281.32 -74.66 282.64 -75 284 C-75.99 284 -76.98 284 -78 284 C-78.33 282.02 -78.66 280.04 -79 278 C-80.65 279.32 -82.3 280.64 -84 282 C-84 279.69 -84 277.38 -84 275 C-84.99 275 -85.98 275 -87 275 C-87.66 276.32 -88.32 277.64 -89 279 C-89.99 277.35 -90.98 275.7 -92 274 C-93.97536745 274.34786708 -93.97536745 274.34786708 -96 275 C-96.33 275.66 -96.66 276.32 -97 277 C-97.66 277 -98.32 277 -99 277 C-98.67 274.69 -98.34 272.38 -98 270 C-101.27773504 270.75150023 -101.27773504 270.75150023 -103 274 C-103.99 274 -104.98 274 -106 274 C-105.67 271.03 -105.34 268.06 -105 265 C-105.598125 265.598125 -106.19625 266.19625 -106.8125 266.8125 C-108.54166667 268.54166667 -110.27083333 270.27083333 -112 272 C-113.2077558 268.37673261 -112.54311128 267.35853631 -111 264 C-112.11375 265.2375 -112.11375 265.2375 -113.25 266.5 C-116 269 -116 269 -120 269 C-121 267 -121 267 -120.0625 263.875 C-119.711875 262.92625 -119.36125 261.9775 -119 261 C-122.11332248 261.66868314 -122.11332248 261.66868314 -123.1875 264.0625 C-123.455625 264.701875 -123.72375 265.34125 -124 266 C-124.66 266 -125.32 266 -126 266 C-125.39009109 262.44219804 -124.4216319 259.3171411 -123 256 C-126.08089673 258.77280706 -127.68775452 261.06326356 -129 265 C-130.65 264.67 -132.3 264.34 -134 264 C-133.67 260.7 -133.34 257.4 -133 254 C-133.61875 254.99 -134.2375 255.98 -134.875 257 C-135.57625 257.99 -136.2775 258.98 -137 260 C-137.66 260 -138.32 260 -139 260 C-138.67 256.37 -138.34 252.74 -138 249 C-139.32 251.31 -140.64 253.62 -142 256 C-143.32 255.34 -144.64 254.68 -146 254 C-145.48483718 249.56959974 -144.37841589 246.74297622 -142 243 C-141.41476563 243.38929688 -140.82953125 243.77859375 -140.2265625 244.1796875 C-127.14058691 252.70718511 -113.57699816 260.33687043 -99 266 C-97.94296875 266.41636719 -96.8859375 266.83273437 -95.796875 267.26171875 C-59.01334237 281.07733468 -18.97072192 285.62578769 20 288 C20.91394531 288.05784668 21.82789063 288.11569336 22.76953125 288.17529297 C36.84770433 289.04358439 50.89857841 289.11967521 65 289 C64.34370605 288.97083496 63.68741211 288.94166992 63.01123047 288.91162109 C44.15997144 288.0115188 25.442758 286.2017034 6.6875 284.125 C5.5618866 284.00211609 4.43627319 283.87923218 3.27655029 283.75262451 C-9.15157593 282.3889945 -21.54491024 280.85758162 -33.91015625 279.00390625 C-34.94554031 278.85200836 -35.98092438 278.70011047 -37.04768372 278.54360962 C-68.57850998 273.66412537 -100.61971214 260.22390084 -128 244 C-128 243.67 -128 243.34 -128 243 C-126.75863281 243.15984375 -125.51726562 243.3196875 -124.23828125 243.484375 C-110.87003958 244.95840986 -95.73343555 245.78929218 -83 241 C-81.90945312 240.61328125 -80.81890625 240.2265625 -79.6953125 239.828125 C-73.98968216 237.96610358 -73.98968216 237.96610358 -69.6875 234.11328125 C-68.02398121 228.99985132 -68.30488532 224.44369973 -70.625 219.625 C-74.17273843 215.70381542 -77.38775753 214.1598492 -82.6640625 213.63671875 C-83.97117188 213.65347656 -85.27828125 213.67023438 -86.625 213.6875 C-87.33011719 213.69587891 -88.03523438 213.70425781 -88.76171875 213.71289062 C-92.93088938 213.80747254 -96.89515811 214.21839312 -101 215 C-114.13349733 217.4426181 -130.75228083 217.12385959 -143 211 C-141.80078204 197.87171917 -140.26751612 184.7951239 -138.60473633 171.71826172 C-138.42784448 170.32650409 -138.25100575 168.9347397 -138.07421875 167.54296875 C-137.98564102 166.84586792 -137.89706329 166.14876709 -137.80580139 165.43054199 C-137.16565758 160.36919289 -136.55435858 155.30484971 -135.95703125 150.23828125 C-126.03377165 66.0863702 -126.03377165 66.0863702 -96 36 C-95.31550781 35.30390625 -94.63101563 34.6078125 -93.92578125 33.890625 C-79.80468102 20.42207099 -60.84759876 14.37253749 -42.31494141 9.8203125 C-38.9804043 8.99515087 -35.65064631 8.15273449 -32.32145691 7.30632019 C-29.04253804 6.47294056 -25.76263291 5.64348999 -22.48251343 4.81484985 C-20.83065995 4.39741403 -19.17898658 3.97926484 -17.52749634 3.56039429 C-15.1859028 2.96758244 -12.8431428 2.37962291 -10.5 1.79296875 C-9.78829147 1.61197632 -9.07658295 1.43098389 -8.3433075 1.24450684 C-5.47721167 0.53114877 -2.96700638 0 0 0 Z " fill="#FDFDFE" transform="translate(226,233)"/>
<path d="M0 0 C9.03446447 0.46330587 16.39732312 7.96510048 23.32421875 13.16796875 C28.07364045 16.41976258 32.27160071 18.3180477 38 19 C37.01 17.02 37.01 17.02 36 15 C39.3831286 15.62739742 42.6097094 16.44257739 45.88671875 17.48828125 C74.04100587 26.34877341 102.14424314 31.23788418 131.75 31.125 C132.41185303 31.12278442 133.07370605 31.12056885 133.75561523 31.11828613 C160.78599078 31.01230384 185.33862611 27.15290636 210.64453125 17.62109375 C214.07168579 16.3328515 217.51600949 15.12766842 221 14 C217.33805134 17.89820341 213.38707383 21.07576285 209.0859375 24.25390625 C206.99917588 26.00068986 205.53601188 27.76446679 204 30 C209.91099692 27.24901148 214.87445718 24.07183574 220 20.0625 C231.55551558 11.09117687 231.55551558 11.09117687 236 9 C236.66 9.33 237.32 9.66 238 10 C233.15512154 16.74770082 227.82931788 22.15002986 221.39379883 27.33129883 C218.77688605 29.44443344 216.88410474 31.17384289 215 34 C224.24965608 28.63897484 232.03729551 22.07925114 240 15 C240.33 15.66 240.66 16.32 241 17 C235.83994337 25.16443171 229.67653424 31.42629678 222.54882812 37.87133789 C221.87658203 38.47969482 221.20433594 39.08805176 220.51171875 39.71484375 C219.90803467 40.25230225 219.30435059 40.78976074 218.68237305 41.34350586 C216.89700748 43.10140825 215.45349723 44.96288691 214 47 C221.33353842 42.82620259 227.3743647 38.12084141 233.40698242 32.26464844 C241.97527977 24 241.97527977 24 246 24 C246.82445895 30.59567159 246.82445895 30.59567159 244.828125 33.99609375 C240.64730976 38.94339178 235.62670942 42.93005596 230.55078125 46.921875 C228.20770683 48.83078096 226.093119 50.82354839 224 53 C234.04198647 49.40583578 241.83397258 41.64376259 249 34 C249.66 34.33 250.32 34.66 251 35 C251.55458934 39.43671475 251.36032727 42.05585264 248.75 45.75 C244.12975597 51.41928495 238.47510808 56.18048738 233 61 C236.91867429 60.43376954 238.8921085 58.59060628 241.75 55.9375 C242.61882812 55.133125 243.48765625 54.32875 244.3828125 53.5 C247.98404814 50.06001372 251.52249357 46.56492978 255 43 C258 44 258 44 259 46 C259.42124041 49.70383337 259.39924792 51.42597022 257.2421875 54.52734375 C256.46101563 55.32269531 255.67984375 56.11804688 254.875 56.9375 C254.05902344 57.78957031 253.24304688 58.64164063 252.40234375 59.51953125 C251.21318359 60.74736328 251.21318359 60.74736328 250 62 C248.80036886 63.36442896 247.61079896 64.73786238 246.4375 66.125 C245.633125 67.07375 244.82875 68.0225 244 69 C249.65606151 65.70920057 254.29102582 62.10186731 259.01953125 57.57421875 C261 56 261 56 264 56 C264.33910858 60.14145371 263.70803512 61.95035786 261.0625 65.125 C259.06630672 67.55063439 258.00900349 68.97298954 257 72 C260.74281699 69.61820737 263.97727468 67.25524265 267 64 C267.7109375 66.2109375 267.7109375 66.2109375 268 69 C266.6015625 71.3515625 266.6015625 71.3515625 264.625 73.625 C261.74841434 76.97718523 261.74841434 76.97718523 260 81 C263.00454695 79.08801558 265.69835653 77.31026186 268.1875 74.75 C270 73 270 73 273 73 C273.58748048 79.37089939 273.35431393 83.93684024 269.515625 89.19921875 C269.01546875 89.79347656 268.5153125 90.38773438 268 91 C267.56171875 91.52207031 267.1234375 92.04414062 266.671875 92.58203125 C245.00032714 114.19654872 196.64254283 118.30597545 168 122 C167.12037598 122.11859375 166.24075195 122.2371875 165.33447266 122.359375 C110.34699393 129.48051312 41.72075945 126.41216735 -4 92 C-6.05006069 90.37801262 -8.02813983 88.71950901 -10 87 C-10 86.67 -10 86.34 -10 86 C-9.28972656 85.95101562 -8.57945312 85.90203125 -7.84765625 85.8515625 C-6.46900391 85.73941406 -6.46900391 85.73941406 -5.0625 85.625 C-4.14597656 85.55539062 -3.22945312 85.48578125 -2.28515625 85.4140625 C-1.15400391 85.20910156 -1.15400391 85.20910156 0 85 C0.33 84.34 0.66 83.68 1 83 C0.2884375 82.731875 -0.423125 82.46375 -1.15625 82.1875 C-15.05024966 76.38561003 -28.97804297 66.12252624 -38 54 C-38 53.34 -38 52.68 -38 52 C-33.89715986 53.37732999 -31.33157616 55.23643659 -28.1875 58.1875 C-27.31480469 58.99316406 -26.44210938 59.79882812 -25.54296875 60.62890625 C-24.70378906 61.41136719 -23.86460938 62.19382812 -23 63 C-11.00086234 74.6233607 -11.00086234 74.6233607 4.3125 79.125 C5.529375 79.08375 6.74625 79.0425 8 79 C8.05363317 77.09532619 8.05363317 77.09532619 7 75 C4.60673341 73.62123761 2.32576871 72.48603192 -0.1875 71.375 C-8.51725197 67.44490297 -15.79720313 62.72238859 -23 57 C-23.8357959 56.33701904 -23.8357959 56.33701904 -24.68847656 55.66064453 C-31.59313792 50.07974826 -31.59313792 50.07974826 -34 47 C-33.97265625 44.33203125 -33.97265625 44.33203125 -33 42 C-32.01 41.34 -31.02 40.68 -30 40 C-25.52378255 43.81645751 -21.21182121 47.59930929 -17.4375 52.125 C-12.43601924 58.0023161 -5.53011449 63.77757038 2 66 C4.68298549 66.13027958 7.31063304 66.07283702 10 66 C9.19820312 65.51273438 8.39640625 65.02546875 7.5703125 64.5234375 C-0.6143422 59.45203183 -8.24381184 53.86566884 -15.78076172 47.87451172 C-19.75227088 44.72017092 -23.72881491 41.73707272 -28 39 C-26.63016497 35.83884224 -26.0109362 35.0072908 -23 33 C-21.58460937 34.25103516 -21.58460937 34.25103516 -20.140625 35.52734375 C-4.50544495 50.8279397 -4.50544495 50.8279397 14.875 58.6875 C16.25 58.79166667 17.625 58.89583333 19 59 C14.23207725 54.60881361 9.34289798 51.2635476 3.6875 48.125 C-14.22140505 37.86998749 -14.22140505 37.86998749 -18 30 C-17.67 29.01 -17.34 28.02 -17 27 C-16.38253906 27.556875 -15.76507813 28.11375 -15.12890625 28.6875 C-13.3464969 30.29356748 -11.55971625 31.89479165 -9.76953125 33.4921875 C-8.09385512 35.00951342 -6.43854271 36.55036926 -4.82421875 38.1328125 C3.35359182 45.98720683 13.47453058 51.80128501 25 52 C21.16935874 48.72601024 17.10768379 46.30607377 12.6875 43.9375 C6.67057301 40.63352481 0.90706147 37.07611571 -4.75 33.1875 C-5.41684814 32.73173584 -6.08369629 32.27597168 -6.77075195 31.80639648 C-10.12980419 29.46364411 -13.36825887 27.17554478 -16 24 C-15.75 21.25 -15.75 21.25 -15 19 C-10.0414456 19.40803847 -8.19792964 21.51541425 -4.9375 25.125 C3.97454792 34.54150346 15.10512792 40.34681127 28 42 C28 41.34 28 40.68 28 40 C27.27039063 39.72671875 26.54078125 39.4534375 25.7890625 39.171875 C23.125535 38.0527458 20.82454475 36.77379707 18.375 35.25 C14.74901051 33.02361003 11.08309427 30.97087458 7.3125 29 C0.41446348 25.25340025 -5.13115573 21.59399953 -8 14 C-8 13.01 -8 12.02 -8 11 C-4.49824857 12.51102973 -2.134517 14.5762958 0.625 17.1875 C9.42219403 25.23324005 17.68709187 32.24830301 30 32 C29.06542969 31.44054687 28.13085938 30.88109375 27.16796875 30.3046875 C19.04351582 25.37074985 11.22090384 20.1332155 3.5625 14.5 C2.72807373 13.88882324 1.89364746 13.27764648 1.03393555 12.64794922 C-4.87135231 8.25729538 -4.87135231 8.25729538 -6 6 C-4.35 4.35 -2.7 2.7 -1 1 C-0.46632812 1.70125 0.06734375 2.4025 0.6171875 3.125 C9.7874331 14.80199094 18.50612181 21.52821057 33 25 C33 24.34 33 23.68 33 23 C32.195625 22.79375 31.39125 22.5875 30.5625 22.375 C22.21107867 19.1516444 15.60973029 13.13848306 8.89453125 7.3671875 C6.82499918 5.67469568 4.86151568 4.20448491 2.63671875 2.7578125 C1.76660156 2.17773438 0.89648438 1.59765625 0 1 C0 0.67 0 0.34 0 0 Z " fill="#FCFDFE" transform="translate(139,646)"/>
<path d="M0 0 C6.58005287 0.85914669 13.15865526 1.7201816 19.72265625 2.6953125 C29.48661374 4.14089545 39.24744082 5.38933111 49.0625 6.4375 C58.81579273 7.48670934 68.53631897 8.69302187 78.25 10.0625 C79.42183838 10.22484131 80.59367676 10.38718262 81.80102539 10.55444336 C82.90309326 10.71307861 84.00516113 10.87171387 85.140625 11.03515625 C86.10516602 11.1731665 87.06970703 11.31117676 88.06347656 11.45336914 C91 12 91 12 94.21948242 13.05029297 C99.01654339 14.25536673 103.42511208 14.23081982 108.34765625 14.16015625 C109.34387497 14.15459213 110.34009369 14.14902802 111.36650085 14.14329529 C113.49521647 14.13091669 115.62391089 14.11428182 117.75256348 14.09375 C123.33104079 14.0410821 128.9095991 14.02179988 134.48828125 14.00390625 C136.13423782 13.99799973 136.13423782 13.99799973 137.81344604 13.99197388 C146.13775754 13.97365968 154.43234424 14.14802924 162.75 14.5 C179.82943986 15.21598542 196.90936859 15.09286834 214 15 C211.47701085 21.08457312 209.8572549 24.05513247 204 27 C201.36617591 27.93370426 198.74330467 28.71926223 196.0390625 29.421875 C194.02301375 29.81451545 194.02301375 29.81451545 193 31 C194.09699219 31.17015625 195.19398438 31.3403125 196.32421875 31.515625 C197.77878037 31.75961598 199.23320034 32.00445245 200.6875 32.25 C201.40873047 32.35957031 202.12996094 32.46914063 202.87304688 32.58203125 C207.54649324 33.39294888 210.60061237 34.4625328 214 38 C214.8160328 42.40657714 214.46048864 44.30436823 211.98046875 48.05078125 C208.79623037 51.67954294 205.26088742 52.6661364 200.6875 53.8125 C199.96626953 54.01552734 199.24503906 54.21855469 198.50195312 54.42773438 C193.68971662 55.73545425 188.95698641 56.47909634 184 57 C184 57.66 184 58.32 184 59 C184.59949463 58.98428955 185.19898926 58.9685791 185.81665039 58.95239258 C188.56516877 58.8895587 191.31353542 58.85085765 194.0625 58.8125 C195.00544922 58.78736328 195.94839844 58.76222656 196.91992188 58.73632812 C202.74143016 58.67547612 206.88474832 59.13351568 212 62 C213.45147903 64.90295805 213.37239025 66.77261779 213 70 C210.59367681 74.33138173 210.59367681 74.33138173 208 76 C205.56789688 76.3067918 203.34539469 76.18060807 200.90234375 75.99780273 C197.83444467 76.00012534 195.5641419 76.56641991 192.63671875 77.453125 C185.8920019 79.22636203 179.39312827 79.46524212 172.44403076 79.5395813 C168.92032397 79.57861348 165.39780173 79.66287969 161.875 79.75 C161.188685 79.76652115 160.50237 79.7830423 159.79525757 79.80006409 C152.93382813 79.98809031 146.19373734 80.67831266 139.3984375 81.59765625 C136.22595063 81.97324952 133.19049932 82.07362691 130 82 C130 82.66 130 83.32 130 84 C147.60331923 84.38392396 147.60331923 84.38392396 165.125 83 C172.27616627 82.04801826 179.34871837 81.74456932 186.5625 81.6875 C187.5623291 81.67009766 188.5621582 81.65269531 189.59228516 81.63476562 C196.91858266 81.63968013 203.94254367 82.24083209 209.5625 87.3125 C211.61574045 91.15116693 211.59132037 93.98951075 210.375 98.125 C204.78570006 105.74677265 193.60399432 107.47998853 184.81665039 108.88476562 C178.95048133 109.75201181 173.07005402 110.50373057 167.1875 111.25 C165.12681845 111.51980676 163.06627003 111.79063232 161.00585938 112.0625 C156.00536266 112.7200824 151.00326971 113.363875 146 114 C156.6645005 114.19521032 166.87428991 114.19961635 177.375 112.0625 C178.344375 111.88009766 179.31375 111.69769531 180.3125 111.50976562 C183.76563733 110.85576234 187.20972087 110.16543943 190.6496582 109.4453125 C193.09622163 108.98176917 195.32595192 108.90038734 197.8125 108.9375 C198.60269531 108.94652344 199.39289063 108.95554687 200.20703125 108.96484375 C200.79871094 108.97644531 201.39039063 108.98804688 202 109 C198.7268633 112.73953786 194.97304911 114.80619637 190.5625 116.9375 C189.84731201 117.28594971 189.13212402 117.63439941 188.39526367 117.9934082 C168.80976582 127.40552795 148.43413325 131.34869955 127 134 C125.11341675 134.26018921 125.11341675 134.26018921 123.1887207 134.52563477 C117.06244222 135.28814806 110.91247872 135.18597355 104.74902344 135.18530273 C102.53300117 135.18746776 100.31749566 135.20560861 98.1015625 135.22460938 C68.92380931 135.3411612 34.09372873 130.27516159 12.2109375 109.2421875 C11.48132813 108.50226563 10.75171875 107.76234375 10 107 C9.35289062 106.36320313 8.70578125 105.72640625 8.0390625 105.0703125 C3.69409005 100.4976559 1.06082421 95.55737428 -1.54296875 89.83203125 C-3.06192447 86.87963742 -4.92453739 84.57807986 -7 82 C-7.75 79 -7.75 79 -7 76 C-3.72412032 73.19774148 0.10392887 71.41069927 4 69.625 C6.36578115 68.06157077 6.36578115 68.06157077 6.625 64.625 C5.84831329 60.12021707 4.40968397 58.94472706 1 56 C-3 51.35135135 -3 51.35135135 -3 49 C-1.28515625 47.78125 -1.28515625 47.78125 0.9375 46.5 C4.05432026 44.81545121 4.05432026 44.81545121 6 42 C6.73676871 37.41566139 6.85766328 35.24600437 4.1796875 31.35546875 C2.70812335 29.60446123 1.19945343 27.88384929 -0.34765625 26.19921875 C-1.16556641 25.11060547 -1.16556641 25.11060547 -2 24 C-0.82255415 20.46766245 -0.04394359 20.13691925 3.0625 18.3125 C4.16271484 17.65701172 4.16271484 17.65701172 5.28515625 16.98828125 C6.13400391 16.49908203 6.13400391 16.49908203 7 16 C6.44397368 12.0233561 5.27037657 9.56087896 2.9375 6.3125 C0 2.2 0 2.2 0 0 Z " fill="#FCFDFE" transform="translate(160,527)"/>
<path d="M0 0 C3.82675963 1.50336986 5.48440888 3.83522408 8 7 C8.99 7.33 9.98 7.66 11 8 C10.34 5.69 9.68 3.38 9 1 C11.97 2.65 14.94 4.3 18 6 C17.34 4.02 16.68 2.04 16 0 C26.60460424 3.12922748 35.09265413 8.1824456 43.8125 14.875 C91.19307398 50.86834707 168.43671592 54.72241197 225.78890991 47.14447021 C232.54552265 46.20933995 239.27558658 45.14201097 246 44 C247.1653125 43.80776855 248.330625 43.61553711 249.53125 43.41748047 C282.51743637 37.8180353 315.22914236 25.61540533 340.890625 3.75 C343 2 343 2 345 1 C345.90433845 23.83454594 345.90433845 23.83454594 338.8125 32.75 C337.884375 33.4925 336.95625 34.235 336 35 C335.1646875 35.74056641 335.1646875 35.74056641 334.3125 36.49609375 C305.22567148 61.09491552 262.57021177 68.69809518 226 74 C224.82727539 74.1767627 223.65455078 74.35352539 222.44628906 74.53564453 C162.97236148 83.35780123 99.54446566 77.92994999 46 49 C44.43572266 48.17242188 44.43572266 48.17242188 42.83984375 47.328125 C23.3051969 36.51843899 9.70068958 22.14758604 0 2 C0 1.34 0 0.68 0 0 Z " fill="#FCFDFE" transform="translate(83,736)"/>
<path d="M0 0 C19.81588328 3.24564021 37.83364918 10.53577649 56.08422852 18.62158203 C65.55184953 22.80102523 75.09081637 26.39467696 85.015625 29.33984375 C84.685625 27.68984375 84.355625 26.03984375 84.015625 24.33984375 C91.57618838 23.96801276 91.57618838 23.96801276 93.640625 25.71484375 C94.094375 26.25109375 94.548125 26.78734375 95.015625 27.33984375 C98.11569701 28.54033782 98.11569701 28.54033782 101.015625 29.33984375 C96.15341286 35.06509854 88.95336589 36.28859219 82.015625 38.33984375 C81.03078125 38.64148438 80.0459375 38.943125 79.03125 39.25390625 C54.02706598 46.24660178 22.84588537 45.98022927 -0.671875 34.27734375 C-9.57101958 29.17487491 -21.71563289 20.33510963 -24.6328125 10.0546875 C-25.63124781 4.26187887 -25.63124781 4.26187887 -23.4140625 1.1015625 C-17.4021225 -3.25757728 -7.05147358 -1.01457104 0 0 Z " fill="#1990F5" transform="translate(189.984375,29.66015625)"/>
<path d="M0 0 C9.35997467 1.50580945 17.45491777 6.21892897 23.375 13.58203125 C27.97069811 20.42034166 30.50374096 27.73619832 29 36 C26.79180746 42.23620204 22.54577513 45.58702485 16.8671875 48.6875 C7.99267339 52.74994787 -1.36504747 54.74956217 -11 56 C-11.79921875 56.11214844 -12.5984375 56.22429687 -13.421875 56.33984375 C-38.16478171 59.21600966 -64.23053495 56.84570282 -88.98696899 54.86758423 C-90.46335939 54.75009816 -91.94006194 54.63645304 -93.41708374 54.52719116 C-107.05120518 53.50136431 -121.48397078 51.74683512 -133.6875 45.1875 C-134.34758057 44.84638184 -135.00766113 44.50526367 -135.68774414 44.15380859 C-141.34447984 41.09454636 -145.10227118 37.79545763 -148 32 C-149.30174609 23.20391573 -145.65694221 17.76400146 -140.75 10.8125 C-135.95076245 5.90418887 -130.89515324 2.03184512 -124 1 C-124.639375 1.9075 -125.27875 2.815 -125.9375 3.75 C-129.18142866 8.86164516 -129.96114625 14.01849762 -129 20 C-125.0938567 29.58518559 -118.19481343 34.8277542 -109 39 C-90.98698591 43.94863024 -71.95823781 44.35366227 -53.4128418 44.31567383 C-50.20131421 44.31251359 -46.99071168 44.33608385 -43.77929688 44.36132812 C-16.18497337 44.66132216 -16.18497337 44.66132216 10 37 C14.41121061 32.2552958 15.25590369 28.59926213 15.14453125 22.33203125 C14.7052914 15.24483687 11.83956355 10.03620496 7 5 C4.71850451 3.36774771 2.54326537 2.22076738 0 1 C0 0.67 0 0.34 0 0 Z " fill="#F8FAFD" transform="translate(349,168)"/>
<path d="M0 0 C12.52042952 -0.14277033 24.98908067 0.23428915 37.49633789 0.79956055 C40.58914885 0.93869887 43.68222041 1.07028917 46.77539062 1.20117188 C48.76824873 1.28861784 50.76108806 1.37649282 52.75390625 1.46484375 C53.66547989 1.50343002 54.57705353 1.5420163 55.51625061 1.58177185 C60.7259642 1.82234514 65.83377094 2.28256204 71 3 C69.68 5.64 68.36 8.28 67 11 C72.28 11 77.56 11 83 11 C83 11.66 83 12.32 83 13 C81.94039063 13.02578125 80.88078125 13.0515625 79.7890625 13.078125 C78.40099999 13.1343978 77.01298075 13.19174533 75.625 13.25 C74.92632812 13.26417969 74.22765625 13.27835938 73.5078125 13.29296875 C71.22282354 13.36035782 71.22282354 13.36035782 68 14 C66.43516506 15.91388341 66.43516506 15.91388341 66 18 C65.34 18 64.68 18 64 18 C64.495 20.475 64.495 20.475 65 23 C66.05960937 22.97679687 67.11921875 22.95359375 68.2109375 22.9296875 C69.5989513 22.91093056 70.9869727 22.89273028 72.375 22.875 C73.42300781 22.84986328 73.42300781 22.84986328 74.4921875 22.82421875 C76.32897486 22.80655733 78.16601963 22.89696739 80 23 C80.99 23.99 80.99 23.99 82 25 C72.1 25.495 72.1 25.495 62 26 C62.99 29.465 62.99 29.465 64 33 C66.79698704 34.73801735 66.79698704 34.73801735 70 35 C72.11683841 34.10836423 72.11683841 34.10836423 74 33 C76.25 33.375 76.25 33.375 78 34 C60.6636382 45.55757454 37.69821424 44.56193308 18.12109375 40.65625 C17.09113281 40.4396875 16.06117188 40.223125 15 40 C14.67 39.01 14.34 38.02 14 37 C11.69 37 9.38 37 7 37 C6.67 36.34 6.34 35.68 6 35 C4.68 35 3.36 35 2 35 C1.67 33.68 1.34 32.36 1 31 C0.01 32.485 0.01 32.485 -1 34 C-1.66 34 -2.32 34 -3 34 C-2.67 31.69 -2.34 29.38 -2 27 C-3.98 27.99 -3.98 27.99 -6 29 C-5.125 23.25 -5.125 23.25 -4 21 C-5.98 22.65 -7.96 24.3 -10 26 C-9.33501617 21.61110675 -7.81242323 18.0188515 -6 14 C-3.36 14.66 -0.72 15.32 2 16 C1.9278125 15.37351563 1.855625 14.74703125 1.78125 14.1015625 C1.6884375 13.28429687 1.595625 12.46703125 1.5 11.625 C1.4071875 10.81289062 1.314375 10.00078125 1.21875 9.1640625 C1 7 1 7 1 5 C0.01 4.67 -0.98 4.34 -2 4 C-1.34 2.68 -0.68 1.36 0 0 Z " fill="#F9FBFE" transform="translate(254,228)"/>
<path d="M0 0 C2.18109025 0.00316347 4.36082406 -0.02038884 6.54174805 -0.0456543 C17.89036538 -0.09756022 28.60592447 0.96100517 37.75073242 8.31567383 C42.35786501 13.39533283 43.22294261 16.71976303 43.16088867 23.48364258 C42.50199755 28.03312891 40.2855103 30.52128861 36.75073242 33.31567383 C33.37573242 35.25317383 33.37573242 35.25317383 30.75073242 36.31567383 C31.41073242 36.97567383 32.07073242 37.63567383 32.75073242 38.31567383 C24.38902183 39.7826406 13.02760697 40.16692353 5.75073242 35.31567383 C5.3863101 33.65552767 5.05100359 31.98861319 4.75073242 30.31567383 C4.09073242 29.98567383 3.43073242 29.65567383 2.75073242 29.31567383 C2.75073242 31.29567383 2.75073242 33.27567383 2.75073242 35.31567383 C1.76073242 35.31567383 0.77073242 35.31567383 -0.24926758 35.31567383 C-1.23926758 33.33567383 -2.22926758 31.35567383 -3.24926758 29.31567383 C-4.40738146 32.2629692 -4.40738146 32.2629692 -4.24926758 35.31567383 C-7.54926758 34.98567383 -10.84926758 34.65567383 -14.24926758 34.31567383 C-14.93286133 32.00447591 -15.61645508 29.69327799 -16.30004883 27.38208008 C-16.61329102 26.70016602 -16.9265332 26.01825195 -17.24926758 25.31567383 C-18.23926758 24.98567383 -19.22926758 24.65567383 -20.24926758 24.31567383 C-19.58926758 26.95567383 -18.92926758 29.59567383 -18.24926758 32.31567383 C-19.70806867 32.17459636 -21.16630309 32.02764968 -22.62426758 31.87817383 C-23.43637695 31.79696289 -24.24848633 31.71575195 -25.08520508 31.63208008 C-27.24926758 31.31567383 -27.24926758 31.31567383 -29.24926758 30.31567383 C-29.66333008 28.24926758 -29.66333008 28.24926758 -29.87426758 25.75317383 C-29.9490332 24.92688477 -30.02379883 24.1005957 -30.10083008 23.24926758 C-30.17430664 22.29213867 -30.17430664 22.29213867 -30.24926758 21.31567383 C-31.23926758 21.31567383 -32.22926758 21.31567383 -33.24926758 21.31567383 C-33.24926758 23.62567383 -33.24926758 25.93567383 -33.24926758 28.31567383 C-33.90926758 28.31567383 -34.56926758 28.31567383 -35.24926758 28.31567383 C-35.74426758 23.36567383 -35.74426758 23.36567383 -36.24926758 18.31567383 C-36.90926758 18.64567383 -37.56926758 18.97567383 -38.24926758 19.31567383 C-38.71577964 21.44144165 -38.71577964 21.44144165 -38.87426758 23.87817383 C-38.9490332 24.70446289 -39.02379883 25.53075195 -39.10083008 26.38208008 C-39.14981445 27.02016602 -39.19879883 27.65825195 -39.24926758 28.31567383 C-40.23926758 27.98567383 -41.22926758 27.65567383 -42.24926758 27.31567383 C-43.72759017 24.35902864 -43.3095954 21.57337646 -43.24926758 18.31567383 C-44.23926758 17.98567383 -45.22926758 17.65567383 -46.24926758 17.31567383 C-46.24926758 16.65567383 -46.24926758 15.99567383 -46.24926758 15.31567383 C-47.23926758 15.81067383 -47.23926758 15.81067383 -48.24926758 16.31567383 C-48.71577964 18.44144165 -48.71577964 18.44144165 -48.87426758 20.87817383 C-48.9490332 21.70446289 -49.02379883 22.53075195 -49.10083008 23.38208008 C-49.14981445 24.02016602 -49.19879883 24.65825195 -49.24926758 25.31567383 C-50.23926758 24.98567383 -51.22926758 24.65567383 -52.24926758 24.31567383 C-52.24926758 19.69567383 -52.24926758 15.07567383 -52.24926758 10.31567383 C-42.91215414 6.43395251 -34.20841851 4.08641701 -24.24926758 2.31567383 C-23.20766479 2.060802 -23.20766479 2.060802 -22.14501953 1.80078125 C-14.79159241 0.06915531 -7.51051346 -0.02274127 0 0 Z " fill="#1990F6" transform="translate(381.249267578125,44.684326171875)"/>
<path d="M0 0 C9.04502552 -0.24350198 17.63162373 0.40505532 26.5625 1.8125 C27.69107422 1.97814453 28.81964844 2.14378906 29.98242188 2.31445312 C37.44805727 3.45211464 44.70871135 5.03762868 52 7 C48.04401358 8.06217817 44.51824481 8.03703036 40.4375 7.9375 C38.12282097 7.99685074 36.21174628 8.34466777 34 9 C36.05189688 13.55977085 38.6094079 17.27604429 41.6953125 21.16796875 C43 23 43 23 44 26 C44.98742187 25.96519531 45.97484375 25.93039063 46.9921875 25.89453125 C48.27351563 25.86746094 49.55484375 25.84039062 50.875 25.8125 C52.78925781 25.76029297 52.78925781 25.76029297 54.7421875 25.70703125 C55.81726563 25.80371094 56.89234375 25.90039062 58 26 C58.66 26.99 59.32 27.98 60 29 C59 30 59 30 57.23413086 30.11352539 C56.48526611 30.10828857 55.73640137 30.10305176 54.96484375 30.09765625 C54.15595703 30.09443359 53.34707031 30.09121094 52.51367188 30.08789062 C51.66353516 30.07951172 50.81339844 30.07113281 49.9375 30.0625 C49.08349609 30.05798828 48.22949219 30.05347656 47.34960938 30.04882812 C45.23304337 30.03700373 43.11651315 30.01906769 41 30 C41 30.33 41 30.66 41 31 C42.20398438 31.06058594 43.40796875 31.12117188 44.6484375 31.18359375 C46.22397077 31.26799732 47.79949096 31.35264541 49.375 31.4375 C50.1690625 31.47681641 50.963125 31.51613281 51.78125 31.55664062 C57.7734375 31.88671875 57.7734375 31.88671875 60 33 C60 33.66 60 34.32 60 35 C56.95786733 36.52106634 53.71952428 36.37429338 50.375 36.5625 C49.66859375 36.60568359 48.9621875 36.64886719 48.234375 36.69335938 C46.48981463 36.79944751 44.74493303 36.90022889 43 37 C43 37.99 43 38.98 43 40 C44.32 40.66 45.64 41.32 47 42 C34.32515734 45.61136596 22.18158392 48.13711486 8.9375 48.3125 C8.11540039 48.33022461 7.29330078 48.34794922 6.44628906 48.36621094 C2.9658057 48.36188377 0.60298119 48.30567151 -2.53515625 46.71484375 C-4.64458243 44.24540884 -4.40591123 41.96095821 -4.26953125 38.82421875 C-3.83433062 34.26407304 -3.16004172 29.74048367 -2.5078125 25.20703125 C-1.79536687 19.7937398 -1.56375589 14.35473245 -1.34204102 8.90258789 C-1.20301075 5.7155048 -1.01480951 3.04442853 0 0 Z " fill="#FBFCFE" transform="translate(297,160)"/>
<path d="M0 0 C3.34505995 1.11501998 3.75620917 1.74099197 5.8125 4.4375 C27.00951205 29.27844284 65.78003194 38.09723786 96.64648438 40.76855469 C124.56453776 42.69533939 153.2647153 40.66832865 180 32 C180.67063477 31.78649902 181.34126953 31.57299805 182.03222656 31.35302734 C193.06249899 27.75946657 203.13525777 22.50984722 213.28271484 16.9362793 C214.50936299 16.2674997 215.75038187 15.62480906 217 15 C217.28858968 19.91451255 216.24085263 22.13436236 213.18359375 25.890625 C198.42417684 40.14838015 174.55612774 44.0492125 155 46 C154.05737305 46.10151367 153.11474609 46.20302734 152.14355469 46.30761719 C127.95205035 48.86129913 103.27780352 49.66736319 79.25146484 45.39697266 C77.26328333 45.04642146 75.26672955 44.74409305 73.26953125 44.44921875 C54.59076367 41.3466438 35.34748673 34.58520044 19 25 C18.38350586 24.6390625 17.76701172 24.278125 17.13183594 23.90625 C9.43881894 19.32622127 2.44426441 14.2567329 -4 8 C-2.87548273 5.0280615 -1.77706209 2.66559313 0 0 Z " fill="#F5F8FD" transform="translate(152,625)"/>
<path d="M0 0 C1.63001953 0.01353516 1.63001953 0.01353516 3.29296875 0.02734375 C4.12441406 0.03894531 4.95585937 0.05054687 5.8125 0.0625 C6.8125 2.0625 6.8125 2.0625 5.921875 4.94921875 C5.70837402 5.54395996 5.49487305 6.13870117 5.27490234 6.75146484 C-6.13132282 38.74987443 -4.45818919 78.17106855 -4.80908203 111.76269531 C-4.92566347 121.05732621 -5.39216056 129.91135687 -7.1875 139.0625 C-10.4875 138.7325 -13.7875 138.4025 -17.1875 138.0625 C-16.84959127 128.44957922 -16.36534162 118.8554847 -15.55859375 109.26953125 C-13.55617034 85.32546289 -12.31489235 61.37854481 -11.28141785 37.3763361 C-11.19107942 35.27934597 -11.10000728 33.18238864 -11.0088501 31.08543396 C-10.89660737 28.5024204 -10.78802714 25.91934294 -10.68157959 23.33607483 C-10.36241925 15.89168868 -9.86944378 8.48258142 -9.1875 1.0625 C-5.90230525 -0.03256492 -3.45086585 -0.03710608 0 0 Z " fill="#F7F9FD" transform="translate(294.1875,65.9375)"/>
<path d="M0 0 C0.66 0.33 1.32 0.66 2 1 C2.75146362 17.66579322 0.64362884 32.76042288 -3 49 C-3.26184082 50.17449707 -3.52368164 51.34899414 -3.79345703 52.55908203 C-4.84757082 57.27923333 -5.90652293 61.99829476 -6.96582031 66.71728516 C-11.08105091 85.18160373 -15.81096145 108.62667482 -5.375 125.875 C0.04880394 133.16030702 7.05625227 138.17842936 16 140 C21.35292982 140.54436574 24.34081208 139.60047698 29 137 C29.66 137 30.32 137 31 137 C31.28875 136.278125 31.5775 135.55625 31.875 134.8125 C32.56051885 133.09870288 33.27701585 131.39635352 34.046875 129.71875 C36.27721619 123.35679316 36.13733784 115.50206731 33.25 109.375 C31.57610177 106.58713429 30.01297471 104.41233189 27 103 C24.01948452 103.27942333 21.61934154 104.59678132 19 106 C19.3125 103.125 19.3125 103.125 20 100 C24.01964938 97.32023374 27.27632299 97.19473344 32 98 C36.19578784 101.03525077 37.99230563 103.96152817 39 109 C39.98093685 120.63110832 38.31201609 133.51690911 31 143 C25.88776648 147.62290134 20.62700739 148.36111011 13.97265625 148.2734375 C4.59287789 147.4106458 -3.21604003 142.05835169 -9.56640625 135.34375 C-19.91105756 122.25081819 -17.99828945 100.76473119 -16.28100586 85.18334961 C-14.39005132 70.06780898 -11.09900232 55.19379558 -7.91845703 40.30908203 C-6.73185489 34.75324856 -5.57154095 29.19201648 -4.41723633 23.62939453 C-3.90300868 21.15191071 -3.38607747 18.67498592 -2.8659668 16.19873047 C-1.742757 10.81123025 -0.67982618 5.46232433 0 0 Z " fill="#2B6CD8" transform="translate(277,845)"/>
<path d="M0 0 C0.99 0 1.98 0 3 0 C3.4694218 30.32103755 2.86302425 61.04336546 -7 90 C-7.36867187 91.09054687 -7.73734375 92.18109375 -8.1171875 93.3046875 C-12.22976017 104.22427699 -19.07337245 115.0238607 -30 120 C-36.76794865 122.41712452 -42.9859982 123.93489705 -50 122 C-55.55554439 118.58120345 -58.43324341 114.34669197 -60 108 C-60.71820086 100.34188072 -61.09867169 93.73353206 -57 87 C-54.3977091 84.63978267 -52.51222154 83.11742629 -48.9375 82.83984375 C-45.74023772 83.08081388 -43.50126524 83.56341414 -41.0625 85.6875 C-39.08218133 89.99760533 -38.57819115 92.75800729 -40.125 97.3125 C-42 100 -42 100 -44.6875 100.875 C-45.450625 100.91625 -46.21375 100.9575 -47 101 C-47.33 97.7 -47.66 94.4 -48 91 C-51.84442753 94.45998478 -53.73180559 97.14866997 -54.22265625 102.3671875 C-54.39335231 107.36932414 -54.36597668 111.0106943 -51 115 C-46.50366032 117.99755979 -42.2703008 117.57191451 -37 117 C-33.97161393 116.10961184 -31.5991432 114.77384825 -29 113 C-28.34386719 112.58363281 -27.68773437 112.16726563 -27.01171875 111.73828125 C-15.40012089 103.14795351 -11.06549435 86.61325192 -9 73 C-7.32323294 60.70847954 -6.28057581 48.34491366 -5.21875 35.98828125 C-5.15317398 35.22929031 -5.08759796 34.47029938 -5.02003479 33.68830872 C-4.7000565 29.97529987 -4.38724074 26.26198784 -4.08959961 22.54711914 C-2.43729083 2.43729083 -2.43729083 2.43729083 0 0 Z " fill="#2C6ED8" transform="translate(85,784)"/>
<path d="M0 0 C8.71083665 13.06625498 6.70189687 35.79262028 7.4609375 50.91796875 C7.576605 87.93872314 7.576605 87.93872314 23 120 C28.69202462 124.3030152 34.47972473 125.83919087 41.578125 125.48828125 C45.32204436 124.7334588 46.87134248 123.08998672 49 120 C52.503081 113.69445419 52.55175313 106.13346545 50.8125 99.28515625 C49.37766003 95.24966884 47.24889984 91.63085737 45 88 C49.6640625 87.7265625 49.6640625 87.7265625 52.6875 90.1875 C58.09183268 96.76033705 57.69317567 103.82228202 57 112 C55.37761527 119.65532436 51.94249851 125.84340037 46 131 C38.92336887 133.35887704 32.09511937 132.33589226 25.3828125 129.31640625 C13.90144558 122.97342157 8.78838247 112.22797893 5.09765625 100.07421875 C0.66446399 84.35723257 -0.15745875 68.29328522 -0.09765625 52.05078125 C-0.09578667 50.54192655 -0.09436532 49.03307123 -0.09336853 47.5242157 C-0.08958586 43.59028388 -0.07979289 39.65639013 -0.06866455 35.72247314 C-0.05835805 31.69324254 -0.05385129 27.66400567 -0.04882812 23.63476562 C-0.03816596 15.75649312 -0.02114188 7.87825132 0 0 Z " fill="#2B6DD8" transform="translate(404,813)"/>
<path d="M0 0 C0.33 0 0.66 0 1 0 C1.82611368 46.81310868 -1.13840133 95.92842806 -18 140 C-18.41934814 141.09707275 -18.41934814 141.09707275 -18.84716797 142.21630859 C-23.35369321 153.74175347 -29.4176706 169.2088353 -41 175 C-44.98142548 175.38282937 -47.46941879 175.24406736 -51.125 173.5625 C-56.71645646 168.57881055 -59.73723911 162.19406812 -60.203125 154.7578125 C-60.21859375 153.55898438 -60.2340625 152.36015625 -60.25 151.125 C-60.27578125 149.93132812 -60.3015625 148.73765625 -60.328125 147.5078125 C-59.96573412 143.63368144 -59.05107105 141.28746434 -57 138 C-53.3202308 135.54682054 -50.27367389 135.18199211 -46 136 C-42.34960827 138.77747197 -40.09314609 141.51810103 -39 146 C-39.53191489 151.53191489 -39.53191489 151.53191489 -41 153 C-43.4375 153.25 -43.4375 153.25 -46 153 C-48.29633824 149.55549263 -48.54016485 147.06187717 -49 143 C-49.99 143 -50.98 143 -52 143 C-55.17615728 151.13890303 -54.21823955 158.05799253 -51 166 C-49.39294394 168.69642699 -49.39294394 168.69642699 -47 170 C-43.30648952 170.62868264 -41.66449211 170.4496961 -38.546875 168.33984375 C-5.51865611 137.99643407 -6.11026827 60.30654032 -2.45117188 18.86230469 C-2.36212585 17.85461029 -2.27307983 16.84691589 -2.18133545 15.8086853 C-2.01194849 13.8679475 -1.84613674 11.9268934 -1.68438721 9.98550415 C-1.57136261 8.67856094 -1.57136261 8.67856094 -1.45605469 7.34521484 C-1.39182312 6.57688324 -1.32759155 5.80855164 -1.26141357 5.01693726 C-1 3 -1 3 0 0 Z " fill="#3574DA" transform="translate(170,836)"/>
<path d="M0 0 C1.98 0 3.96 0 6 0 C7.2379428 3.71382841 6.85064203 6.87753275 6.51171875 10.703125 C6.41682915 11.83714752 6.41682915 11.83714752 6.32002258 12.99407959 C6.18430025 14.59478872 6.04539924 16.19523105 5.90356445 17.79541016 C5.6895979 20.22616694 5.48961615 22.65778917 5.29101562 25.08984375 C5.15709807 26.6485106 5.02235835 28.20710707 4.88671875 29.765625 C4.79906502 30.84568817 4.79906502 30.84568817 4.7096405 31.9475708 C4.28946927 36.5427476 3.38422247 40.62515576 2 45 C-3.42121998 45.27908468 -7.37857235 44.42721053 -12.4375 42.5 C-13.07365234 42.26152344 -13.70980469 42.02304688 -14.36523438 41.77734375 C-15.91402732 41.19509076 -17.45760253 40.59898931 -19 40 C-18.67 39.34 -18.34 38.68 -18 38 C-17.01 38 -16.02 38 -15 38 C-15.33 37.34 -15.66 36.68 -16 36 C-20.47427924 35.91051442 -24.60563789 36.14256349 -29 37 C-28.67 36.01 -28.34 35.02 -28 34 C-22.555 33.505 -22.555 33.505 -17 33 C-17.33 32.34 -17.66 31.68 -18 31 C-21.3 31 -24.6 31 -28 31 C-25.4345406 28.4345406 -23.52313332 28.45953913 -20 28 C-20 27.67 -20 27.34 -20 27 C-24.95 27 -29.9 27 -35 27 C-34.67 26.34 -34.34 25.68 -34 25 C-31.6015625 24.65625 -31.6015625 24.65625 -28.625 24.5 C-24.74770285 24.29539329 -23.30786016 24.20524011 -20 22 C-19.67 21.01 -19.34 20.02 -19 19 C-23.95 19.33 -28.9 19.66 -34 20 C-31.15385976 17.15385976 -28.19630858 17.54420924 -24.375 17.375 C-23.31539062 17.31699219 -23.31539062 17.31699219 -22.234375 17.2578125 C-20.49001476 17.16352276 -18.74504309 17.08067109 -17 17 C-17 16.34 -17 15.68 -17 15 C-23.435 15.495 -23.435 15.495 -30 16 C-29 14 -29 14 -26 13 C-23.60509014 12.93029948 -21.20832309 12.91551997 -18.8125 12.9375 C-17.54019531 12.94652344 -16.26789063 12.95554688 -14.95703125 12.96484375 C-13.49330078 12.98224609 -13.49330078 12.98224609 -12 13 C-12.33 11.68 -12.66 10.36 -13 9 C-12.24074219 8.86722656 -11.48148438 8.73445312 -10.69921875 8.59765625 C-9.20841797 8.33275391 -9.20841797 8.33275391 -7.6875 8.0625 C-6.70136719 7.88847656 -5.71523438 7.71445313 -4.69921875 7.53515625 C-1.91810787 7.04253153 -1.91810787 7.04253153 1 6 C1 5.34 1 4.68 1 4 C0.34 3.67 -0.32 3.34 -1 3 C-0.67 2.01 -0.34 1.02 0 0 Z " fill="#F4F7FD" transform="translate(267,159)"/>
<path d="M0 0 C2 1 2 1 3 3.73828125 C7.90445763 21.26788568 9.09115487 38.32449043 9.44500732 56.42687988 C9.53843367 61.11686165 9.64916076 65.80644426 9.7578125 70.49609375 C9.77889069 71.41448029 9.79996887 72.33286682 9.82168579 73.27908325 C9.88077766 75.8527303 9.94034602 78.42636593 10 81 C10.01591187 81.69716125 10.03182373 82.39432251 10.04821777 83.11260986 C9.20272389 113.29028501 9.20272389 113.29028501 20.59765625 139.65625 C24.76733539 143.07557686 28.64631513 144.08776533 34 144 C36.75 142.75 36.75 142.75 38 140 C37.86276037 137.11796767 37.60354915 134.77083927 37 132 C36.7215625 130.515 36.7215625 130.515 36.4375 129 C36.293125 128.34 36.14875 127.68 36 127 C41.75 129.625 41.75 129.625 44 133 C44.51410028 136.85575207 44.17564278 138.6747356 42.3125 142.125 C39.28271845 145.89175544 35.88141797 149.67867185 30.86328125 150.23828125 C25.98200665 150.38030915 21.81094371 150.34638905 17.59375 147.51171875 C5.57459178 136.11119367 5.35258478 116.30634243 4.9107666 100.88546753 C4.81692792 93.21504321 4.90658476 85.54505879 5 77.875 C5.2272384 59.15758954 5.13437652 40.88276032 0.875 22.5625 C-0.67899474 15.37870072 -1.87089478 8.38119016 -1 1 C-0.67 0.67 -0.34 0.34 0 0 Z " fill="#3070D9" transform="translate(354,883)"/>
<path d="M0 0 C4.98712 2.79165161 8.67182698 6.74094646 10.62109375 12.15234375 C11.1460629 16.91744835 10.29294105 20.76538757 7.37109375 24.58984375 C2.85517208 28.79786167 -0.9283629 29.62001178 -6.96875 29.46875 C-12.5460011 28.73656631 -17.01465651 26.58480598 -20.87890625 22.52734375 C-23.90167728 17.74128962 -23.85542414 13.73819229 -23.37890625 8.15234375 C-19.58793211 -1.53570126 -9.0438022 -3.22250423 0 0 Z " fill="#145DD4" transform="translate(287.37890625,386.84765625)"/>
<path d="M0 0 C4.00778471 4.00778471 6.14290662 7.33852214 6.9375 13 C6.21439414 17.97135281 4.11577593 20.96265145 0.375 24.25 C-3.72378721 26.7621599 -7.88713446 27.02296617 -12.5625 26.4375 C-18.82773667 24.49352003 -22.81310487 20.70481635 -26.5625 15.4375 C-28.11274464 12.33701072 -27.85242015 9.85855782 -27.5625 6.4375 C-25.43290385 2.68941078 -22.89122362 0.47851279 -18.8203125 -1.0546875 C-12.48487438 -2.47961303 -5.9685364 -2.61777912 0 0 Z " fill="#165ED4" transform="translate(282.5625,298.5625)"/>
<path d="M0 0 C3.24806496 1.52583517 6.14278046 3.38395547 9.125 5.375 C25.05564825 15.55115114 41.90572102 16.89326235 60.13891602 13.14892578 C77.96326858 9.50576895 77.96326858 9.50576895 86 13 C88 14.375 88 14.375 89 16 C88.67 17.32 88.34 18.64 88 20 C84.7 20.33 81.4 20.66 78 21 C77.34 23.64 76.68 26.28 76 29 C75.34 28.67 74.68 28.34 74 28 C74.33 25.36 74.66 22.72 75 20 C70.29310728 22.7813457 67.91549974 25.24881524 65 30 C64.67 30 64.34 30 64 30 C64.33 27.03 64.66 24.06 65 21 C63.68 21.66 62.36 22.32 61 23 C60.59270772 25.32156597 60.25561323 27.6568787 60 30 C59.01 30.495 59.01 30.495 58 31 C58 28.69 58 26.38 58 24 C56.68 24.33 55.36 24.66 54 25 C54 23.68 54 22.36 54 21 C50.91240441 21.64067976 50.91240441 21.64067976 50.05078125 23.84765625 C49.80714844 24.57855469 49.56351563 25.30945313 49.3125 26.0625 C48.93544922 27.16271484 48.93544922 27.16271484 48.55078125 28.28515625 C48.36902344 28.85105469 48.18726563 29.41695313 48 30 C47.34 30 46.68 30 46 30 C46.33 27.69 46.66 25.38 47 23 C46.01 23 45.02 23 44 23 C44 22.01 44 21.02 44 20 C40.91240441 20.64067976 40.91240441 20.64067976 40.05078125 22.84765625 C39.80714844 23.57855469 39.56351563 24.30945313 39.3125 25.0625 C38.93544922 26.16271484 38.93544922 26.16271484 38.55078125 27.28515625 C38.36902344 27.85105469 38.18726563 28.41695313 38 29 C37.34 28.67 36.68 28.34 36 28 C36.33 25.03 36.66 22.06 37 19 C35.68 19.33 34.36 19.66 33 20 C33 19.01 33 18.02 33 17 C30.33264727 19.48952921 28.44253657 21.63408134 27 25 C25.74458443 21.23375329 26.62938042 19.62811066 28 16 C24.23569087 17.25476971 23.94955892 18.69422618 22 22 C21.34 22 20.68 22 20 22 C20.57584432 19.61435923 21.22227595 17.33317216 22 15 C19.00667261 15.9977758 18.05233685 16.7522025 16 19 C16.33 16.69 16.66 14.38 17 12 C15.68 12.33 14.36 12.66 13 13 C13 12.01 13 11.02 13 10 C12.01 10 11.02 10 10 10 C9.67 10.99 9.34 11.98 9 13 C8.34 11.68 7.68 10.36 7 9 C5.68 10.32 4.36 11.64 3 13 C3.57584432 10.61435923 4.22227595 8.33317216 5 6 C3.35 6.66 1.7 7.32 0 8 C0.66 6.68 1.32 5.36 2 4 C0.68 3.67 -0.64 3.34 -2 3 C-1.34 2.01 -0.68 1.02 0 0 Z " fill="#EFF4FC" transform="translate(59,439)"/>
<path d="M0 0 C0.515625 0.309375 1.03125 0.61875 1.5625 0.9375 C4.0711354 2.16449259 4.0711354 2.16449259 7.3125 2.4375 C11.39091865 3.05963166 14.28712806 4.25722337 18 6 C18.33 5.67 18.66 5.34 19 5 C20.99958364 4.95919217 23.00045254 4.95745644 25 5 C25 5.99 25 6.98 25 8 C25.804375 7.896875 26.60875 7.79375 27.4375 7.6875 C32.39578974 8.1224377 35.83180138 10.40645419 40 13 C40 14.32 40 15.64 40 17 C40.33 16.34 40.66 15.68 41 15 C42.98 15.66 44.96 16.32 47 17 C46.67 19.64 46.34 22.28 46 25 C47.32 22.69 48.64 20.38 50 18 C54.875 18.875 54.875 18.875 56 20 C56.26018703 23.9028055 56.22882096 26.71542175 54 30 C50.24543433 32.50304378 48.45254066 32.45280074 44 32 C41 30.1875 41 30.1875 38 28 C36.88625 27.608125 35.7725 27.21625 34.625 26.8125 C30.25592505 25.08989115 27.92914988 21.61534139 24.9921875 18.08984375 C22.22216669 15.18403761 19.76168907 14.27897429 16 13 C15.34 12.34 14.68 11.68 14 11 C13.01 11.33 12.02 11.66 11 12 C9.3515625 10.93359375 9.3515625 10.93359375 7.625 9.4375 C5.85114778 7.99794417 5.85114778 7.99794417 4 7 C1.08997479 7.51040344 1.08997479 7.51040344 -1 9 C-2.25541557 5.23375329 -1.37061958 3.62811066 0 0 Z " fill="#0D5AD4" transform="translate(192,35)"/>
<path d="M0 0 C3.52440685 2.93700571 5.87617642 5.58674659 6.63671875 10.2421875 C6.90333772 16.29167991 5.78957924 19.98205222 2.25 24.875 C-1.29171498 26.64585749 -4.89218895 26.5087393 -8.75 25.875 C-14.15499143 23.30975888 -17.84823244 19.37820045 -20.18359375 13.890625 C-21.15017876 10.45091557 -20.89218742 8.23810741 -19.75 4.875 C-14.57283521 -1.08798444 -7.31038228 -2.99061093 0 0 Z " fill="#1960D5" transform="translate(194.75,367.125)"/>
<path d="M0 0 C3.44346139 3.52744826 4.39406793 5.10911134 4.9375 10 C4.49577183 14.27003895 3.23945717 16.31817056 0.5625 19.625 C-3.22311116 21.51780558 -7.32398735 21.2420269 -11.4375 20.625 C-17.20277798 18.00524318 -22.06062895 13.96263488 -25.4375 8.625 C-26.0625 5 -26.0625 5 -25.4375 1.625 C-18.89208832 -5.94313226 -7.58126759 -5.95802781 0 0 Z " fill="#155DD4" transform="translate(236.4375,337.375)"/>
<path d="M0 0 C3.125 0.25 3.125 0.25 5 1.75 C5.37125 2.245 5.7425 2.74 6.125 3.25 C5.795 4.24 5.465 5.23 5.125 6.25 C-26.29056973 11.01465059 -26.29056973 11.01465059 -38.875 11.25 C-39.83083984 11.27046387 -40.78667969 11.29092773 -41.77148438 11.31201172 C-59.10976583 11.63084638 -75.9050261 11.08192959 -92.875 7.25 C-92.545 6.59 -92.215 5.93 -91.875 5.25 C-84.53909929 4.05941155 -77.17560593 4.0537648 -69.7578125 3.96875 C-68.50604218 3.95034058 -67.25427185 3.93193115 -65.96456909 3.91296387 C-61.97642364 3.85455131 -57.98823748 3.80160068 -54 3.75 C-37.60424073 3.53468996 -21.24106623 3.31303315 -4.875 2.25 C-4.875 3.57 -4.875 4.89 -4.875 6.25 C-4.215 5.92 -3.555 5.59 -2.875 5.25 C-3.1534375 4.2909375 -3.1534375 4.2909375 -3.4375 3.3125 C-3.6540625 2.2915625 -3.6540625 2.2915625 -3.875 1.25 C-2.875 0.25 -2.875 0.25 0 0 Z " fill="#F6F9FD" transform="translate(319.875,769.75)"/>
<path d="M0 0 C11.79337824 -0.2219689 23.42144948 -0.11846667 35.15307617 1.20068359 C48.3602668 2.67496197 61.60543413 3.13662122 74.88519096 3.22979546 C77.19331122 3.24662017 79.50129427 3.2698426 81.80934143 3.29469299 C88.35565111 3.36447855 94.90200009 3.4261402 101.44848633 3.47680664 C105.48819823 3.50851082 109.52771983 3.54970875 113.56727791 3.59700203 C115.09789729 3.61300819 116.62855975 3.62533618 118.15923882 3.63390923 C120.28140805 3.64600429 122.40312102 3.67011122 124.52514648 3.69702148 C125.73073715 3.70732895 126.93632782 3.71763641 128.17845154 3.72825623 C131 4 131 4 133 6 C89.42878926 10.14705206 42.47695762 13.41170677 0 1 C0 0.67 0 0.34 0 0 Z " fill="#2467D7" transform="translate(198,581)"/>
<path d="M0 0 C3.45064614 2.07915521 5.50982281 3.58309359 7.77734375 6.984375 C8.46078081 10.76126404 8.6284147 14.45624389 6.7265625 17.87109375 C4.25410222 20.88326512 2.35049236 22.77515153 -1.54296875 23.29296875 C-7.99881319 23.58968583 -11.6488928 22.8164131 -16.6640625 18.6875 C-19.34441241 15.75859634 -20.15881421 13.48599105 -20.66015625 9.546875 C-20.22265625 5.984375 -20.22265625 5.984375 -18.03515625 3.171875 C-12.64610333 -1.0196106 -6.4890025 -2.9650978 0 0 Z " fill="#1860D5" transform="translate(169.22265625,255.015625)"/>
<path d="M0 0 C2.16236775 1.76636788 3.86551282 3.43805689 5.12109375 5.94921875 C5.49474021 11.55391566 5.32970373 15.13630378 2.12109375 19.94921875 C-1.17695657 23.47736561 -3.03159546 24.8012756 -7.81640625 25.63671875 C-12.03436598 25.36955431 -14.39861629 23.44734624 -17.43359375 20.65234375 C-20.51504096 17.02123298 -21.38739406 13.79203788 -21.26171875 8.98046875 C-20.55388356 5.22460855 -18.65323118 3.53858868 -15.87890625 0.94921875 C-11.39181117 -1.79289491 -4.71366251 -2.63612311 0 0 Z " fill="#175FD4" transform="translate(171.87890625,305.05078125)"/>
<path d="M0 0 C2.42937292 2.9152475 2.96492911 4.71943286 3.4375 8.5 C2.92294074 12.61647408 1.94725418 14.13461399 -1 17 C-5.30380856 19.535854 -9.11301017 19.75767284 -14 19 C-18.96407841 17.15882969 -23.02249939 15.46625092 -26 11 C-26.78431373 4.05322129 -26.78431373 4.05322129 -23.8125 0.0625 C-17.28886239 -4.72150092 -6.60689603 -4.67317036 0 0 Z " fill="#165ED4" transform="translate(364,287)"/>
<path d="M0 0 C3.1875 1.875 3.1875 1.875 5 5 C5.91375188 9.91764649 5.63977853 14.43661103 3.375 18.9375 C0.74284347 22.33159657 -0.95405606 23.62437906 -5 25 C-9.63436547 25.56747332 -12.30779675 24.87171364 -16 22 C-18.90868599 17.36651425 -18.77145084 12.28558397 -18 7 C-14.03823216 -0.59952493 -7.80422271 -0.94460333 0 0 Z " fill="#145DD4" transform="translate(322,338)"/>
<path d="M0 0 C3.44680939 3.36063916 4.90068067 5.84789581 5.3125 10.625 C5.26131818 16.23452709 2.9420921 21.0579079 -1 25 C-5.46243026 25.60071177 -7.44387236 25.36362192 -11.25 22.875 C-15.27180004 18.67039087 -17.13434824 15.23981615 -17.5 9.4375 C-17.3827269 5.77734476 -17.05431912 5.07046805 -14.6875 2 C-9.91263005 -1.55339159 -5.60000426 -1.50886191 0 0 Z " fill="#1860D5" transform="translate(375,384)"/>
<path d="M0 0 C7.14133041 -0.81151482 12.59856104 2.08233735 19 5 C26.50706921 8.36523792 33.71330857 10.25169605 42 9 C45.75560172 7.05765934 48.70154044 4.47226911 51.48828125 1.3125 C54.01910986 -0.88480856 56.80732523 -0.18071744 60 0 C60.79953138 3.28696233 61.09658936 4.71023192 60 8 C60.78375 8.103125 61.5675 8.20625 62.375 8.3125 C65 9 65 9 67 12 C69.02193391 12.65010677 69.02193391 12.65010677 71.3125 12.9375 C75.46026333 13.73360296 77.99312423 14.89612824 81 18 C81 18.66 81 19.32 81 20 C73.40429561 20.58179863 67.85884959 19.26889853 61 16 C61 15.34 61 14.68 61 14 C58.69 14.33 56.38 14.66 54 15 C53.04534217 12.83032311 52.85598788 11.43671207 53.6015625 9.17578125 C54.35870385 7.4315257 55.17609198 5.71372869 56 4 C52.99428144 4.38852558 52.99428144 4.38852558 50 6 C48.81724148 8.68310961 48.47288244 11.0681289 48 14 C38.39349279 12.92633155 28.8521574 11.55814404 19.3125 10 C18.27351563 9.8340332 17.23453125 9.66806641 16.1640625 9.49707031 C15.17792969 9.33303711 14.19179687 9.16900391 13.17578125 9 C12.29833252 8.855625 11.42088379 8.71125 10.5168457 8.5625 C6.3347721 7.6278315 2.66142082 6.50186949 0 3 C0 2.01 0 1.02 0 0 Z " fill="#1960D5" transform="translate(169,740)"/>
<path d="M0 0 C0 3.3 0 6.6 0 10 C-0.85722656 10.29132813 -1.71445313 10.58265625 -2.59765625 10.8828125 C-13.49909462 14.73442219 -13.49909462 14.73442219 -21.16015625 22.9921875 C-22.1681071 25.11092058 -22.1681071 25.11092058 -22.25 28.0625 C-23 31 -23 31 -26.0625 32.875 C-27.031875 33.24625 -28.00125 33.6175 -29 34 C-28.44271087 30.65626525 -27.64826111 27.96687001 -26 25 C-27.32 25.33 -28.64 25.66 -30 26 C-30.40286288 19.55419384 -29.69194798 14.10901035 -25.3359375 9.078125 C-17.56669477 1.83508596 -10.52533537 -0.59297664 0 0 Z " fill="#F6F9FD" transform="translate(81,400)"/>
<path d="M0 0 C3.65039173 2.77747197 5.90685391 5.51810103 7 10 C6.46808511 15.53191489 6.46808511 15.53191489 5 17 C2.5625 17.25 2.5625 17.25 0 17 C-2.29633824 13.55549263 -2.54016485 11.06187717 -3 7 C-3.99 7 -4.98 7 -6 7 C-9.17615728 15.13890303 -8.21823955 22.05799253 -5 30 C-2.86750948 33.08843455 -1.88296881 33.79932527 1.75 34.625 C6.44920488 33.72130675 9.41498796 31.05726915 13 28 C13.33 28.99 13.66 29.98 14 31 C9.15957447 37.77659574 9.15957447 37.77659574 5 39 C0.96705057 39.44810549 -1.42399672 39.26496151 -5.125 37.5625 C-10.71645646 32.57881055 -13.73723911 26.19406812 -14.203125 18.7578125 C-14.21859375 17.55898438 -14.2340625 16.36015625 -14.25 15.125 C-14.27578125 13.93132813 -14.3015625 12.73765625 -14.328125 11.5078125 C-13.96573412 7.63368144 -13.05107105 5.28746434 -11 2 C-7.3202308 -0.45317946 -4.27367389 -0.81800789 0 0 Z " fill="#2B6DD8" transform="translate(124,972)"/>
<path d="M0 0 C0.19294408 4.82360189 -0.24252386 8.49646738 -2 13 C-1.2575 13.37125 -0.515 13.7425 0.25 14.125 C3.54598395 16.37226179 5.13597337 18.48702673 7 22 C6.75 24.375 6.75 24.375 6 26 C5.01 26 4.02 26 3 26 C3.495 26.94875 3.99 27.8975 4.5 28.875 C6.98688054 34.71324812 6.75844418 40.50159565 4.9375 46.5 C2.36003198 49.82576519 0.05269579 50.23534042 -4 51 C-4.75475351 59.35619957 -5.13605482 67.60995285 -5 76 C-8.28035784 73.00489067 -8.94799023 70.9191727 -9.203125 66.41015625 C-9.51742231 48.87439398 -9.51742231 48.87439398 -6 41 C-4.515 40.505 -4.515 40.505 -3 40 C-2.67 41.98 -2.34 43.96 -2 46 C1.2332392 43.04791203 1.9176075 40.92279598 2.3125 36.5 C2.37936709 32.94523677 2.37936709 32.94523677 0 31.0625 C-0.99 30.5365625 -0.99 30.5365625 -2 30 C-1.67 29.46375 -1.34 28.9275 -1 28.375 C0.28924102 25.31305259 0.48992451 23.28949317 0 20 C-2.21491684 18.13749195 -2.21491684 18.13749195 -5 17 C-6.33524902 16.33717854 -7.66894973 15.67121338 -9 15 C-8.43120907 13.24521948 -7.84429344 11.49630842 -7.25 9.75 C-6.92515625 8.77546875 -6.6003125 7.8009375 -6.265625 6.796875 C-5.17202994 4.38016494 -3.14219586 0 0 0 Z " fill="#2166D6" transform="translate(105,353)"/>
<path d="M0 0 C3.6206009 2.63316429 4.83455709 4.44852363 6.125 8.75 C6.53187622 13.95007663 3.79786331 17.81772682 1 22 C-4.78450072 22.34707004 -8.96563531 22.27233705 -14 19 C-15.63290762 15.73418475 -15.67786532 12.51603041 -15 9 C-11.69843169 3.4615385 -6.81936851 -1.16428243 0 0 Z " fill="#1A61D5" transform="translate(212,275)"/>
<path d="M0 0 C4.89469871 0.77758592 6.83063784 2.07999943 10 6 C13.81657988 12.84247388 13.94582444 19.83837248 12.23828125 27.3515625 C10.40646597 33.76653616 8.70349841 39.19044949 3.1875 43.375 C-0.09451569 44.31271877 -2.70273933 43.71940233 -6 43 C-6.99 42.34 -7.98 41.68 -9 41 C-8.90234375 39.15625 -8.90234375 39.15625 -8 37 C-5.12890625 35.65625 -5.12890625 35.65625 -1.5625 34.5 C3.02181217 33.19553046 3.02181217 33.19553046 6.38671875 30.1171875 C7.91321466 24.8473736 7.7503239 20.42302808 5.1875 15.5625 C3.07706695 12.854441 3.07706695 12.854441 0 11 C-0.29296875 8.3984375 -0.29296875 8.3984375 -0.1875 5.375 C-0.16042969 4.37210937 -0.13335937 3.36921875 -0.10546875 2.3359375 C-0.07066406 1.56507813 -0.03585937 0.79421875 0 0 Z " fill="#F0F4FC" transform="translate(466,351)"/>
<path d="M0 0 C1.28616211 0.14332764 2.57232422 0.28665527 3.89746094 0.43432617 C9.7291812 1.08222401 15.56236664 1.71638105 21.39564514 2.35006714 C22.82075661 2.50489059 22.82075661 2.50489059 24.2746582 2.6628418 C25.7379808 2.82180435 25.7379808 2.82180435 27.23086548 2.98397827 C30.28318062 3.31611049 33.33533016 3.64973145 36.38745117 3.98364258 C46.32953512 5.0696468 56.27265241 6.13738818 66.22265625 7.1484375 C68.77549853 7.41133098 71.32825787 7.67501294 73.88098145 7.9390564 C75.49921084 8.10440111 77.11778772 8.2663804 78.73669434 8.42495728 C80.96731445 8.64360296 83.19653547 8.87329231 85.42578125 9.10546875 C87.30390503 9.29338989 87.30390503 9.29338989 89.2199707 9.48510742 C90.13738037 9.65502197 91.05479004 9.82493652 92 10 C92.495 10.99 92.495 10.99 93 12 C86.13932579 11.93179488 79.27916893 11.84156357 72.41894531 11.73754883 C70.09576612 11.70474008 67.77251561 11.67657887 65.44921875 11.65356445 C11.73520803 11.10759592 11.73520803 11.10759592 1.29760742 1.41992188 C0.86939697 0.95134766 0.44118652 0.48277344 0 0 Z " fill="#2669D7" transform="translate(202,630)"/>
<path d="M0 0 C3.375 1.8125 3.375 1.8125 6 4 C6.61875 4.433125 7.2375 4.86625 7.875 5.3125 C9.80534507 8.20801761 9.41222425 10.64331681 9 14 C7.5625 16.4375 7.5625 16.4375 5 18 C0.34248645 18.8572653 -3.03794794 18.49952703 -7.25 16.3125 C-8.61125 15.1678125 -8.61125 15.1678125 -10 14 C-10.969375 13.21625 -11.93875 12.4325 -12.9375 11.625 C-15 9 -15 9 -15.125 5.875 C-14 3 -14 3 -12 1.125 C-7.89531207 -0.41425797 -4.3308409 -0.7027114 0 0 Z " fill="#185FD4" transform="translate(393,261)"/>
<path d="M0 0 C11.79355549 1.63696038 23.56215336 3.38128536 35.31274414 5.30322266 C42.32625416 6.43991517 49.34780357 7.49803461 56.37890625 8.51953125 C58.20988974 8.78728388 60.04086301 9.05510644 61.87182617 9.32299805 C64.6162179 9.72433257 67.36086439 10.1229906 70.10684204 10.51333618 C72.68422247 10.87982836 75.26012246 11.25549842 77.8359375 11.6328125 C78.61606705 11.74103836 79.39619659 11.84926422 80.19996643 11.96076965 C83.77454598 12.49242066 85.94569927 12.96379951 89 15 C58.39615809 15.82098627 28.60087168 12.37992429 0 1 C0 0.67 0 0.34 0 0 Z " fill="#1E64D6" transform="translate(183,546)"/>
<path d="M0 0 C0.78246094 -0.01417969 1.56492188 -0.02835937 2.37109375 -0.04296875 C4.5625 0.1875 4.5625 0.1875 7.5625 2.1875 C8.1675512 5.990679 7.72023427 7.88416487 5.9375 11.3125 C2.56995338 15.3890038 -0.32140497 17.85556353 -5.625 18.6875 C-8.4375 18.1875 -8.4375 18.1875 -10.3125 16.75 C-12.00078415 12.90446387 -12.27112261 9.31014274 -11.4375 5.1875 C-7.90916316 1.47346122 -5.03146819 0.04130926 0 0 Z " fill="#2468D7" transform="translate(132.4375,349.8125)"/>
<path d="M0 0 C2.8100346 1.79363911 4.50940468 3.01880935 6 6 C6.41314256 10.6478538 5.78987316 13.24440152 3 17 C0.09704195 18.45147903 -1.77261779 18.37239025 -5 18 C-8.57721499 15.52346654 -11.67071977 13.25369675 -13 9 C-13.4375 6.5 -13.4375 6.5 -13 4 C-9.29565448 -0.28314951 -5.38545381 -1.10972988 0 0 Z " fill="#145CD4" transform="translate(391,325)"/>
<path d="M0 0 C0.66 0.66 1.32 1.32 2 2 C1.77261874 7.00238782 0.10985061 10.13369924 -3 14 C-5.93395883 16.37213693 -7.95232097 17.8294476 -11.6875 18.4375 C-14 18 -14 18 -15.8125 17 C-17.3375816 14.43144151 -17.72275541 12.11536014 -17.6015625 9.140625 C-16.57543029 5.48919349 -14.29544015 3.57354853 -11.37109375 1.28515625 C-7.64935933 -0.7320606 -4.10589565 -0.96258549 0 0 Z " fill="#1960D5" transform="translate(121,323)"/>
<path d="M0 0 C0.66 0.66 1.32 1.32 2 2 C1.87344368 7.56847804 -0.31356388 10.13373773 -4 14 C-7.11877956 15.55938978 -9.57255771 15.3607834 -13 15 C-15.34671051 12.43328538 -15.97793708 10.90457985 -16.0625 7.4375 C-14.53646458 3.93659522 -12.27471426 2.83383999 -9 1 C-5.75778445 -0.08073852 -3.39597063 -0.21676408 0 0 Z " fill="#2A6CD8" transform="translate(131,290)"/>
<path d="M0 0 C3.23641034 2.73850106 3.92047274 4.3524209 4.4375 8.5625 C3.77581699 13.76143791 3.77581699 13.76143791 1 16 C-2.4375 16.5 -2.4375 16.5 -6 16 C-8.36497439 14.13291495 -9.66030715 12.67938569 -11 10 C-11.38503376 6.45768939 -11.41935959 4.63742658 -9.4375 1.625 C-6.04129157 -0.63913895 -3.99900698 -0.64269755 0 0 Z " fill="#1E63D6" transform="translate(430,367)"/>
<path d="M0 0 C1.546875 -0.02513672 1.546875 -0.02513672 3.125 -0.05078125 C6.36522846 0.35864979 7.73700473 0.97995641 10 3.3125 C10.4375 6.875 10.4375 6.875 10 10.3125 C6.20991318 12.83922455 4.50802658 12.75591245 0 12.3125 C-3.81868762 10.85119716 -7.09899589 9.21350411 -10 6.3125 C-10 4.9925 -10 3.6725 -10 2.3125 C-6.61494922 0.27007753 -3.92471691 0.01471769 0 0 Z " fill="#1960D5" transform="translate(430,307.6875)"/>
<path d="M0 0 C4.69133535 1.29416148 6.15930816 2.83914503 8.625 7 C8.625 10.75 8.625 10.75 7.625 14 C4.3493083 16.18379446 3.42429471 16.54275639 -0.375 16 C-3.68890852 13.84210608 -6.23835621 11.86458887 -7.375 8 C-7.1875 4.875 -7.1875 4.875 -6.375 2 C-3.375 0 -3.375 0 0 0 Z " fill="#F5F8FD" transform="translate(275.375,301)"/>
<path d="M0 0 C4.19578784 3.03525077 5.99230563 5.96152817 7 11 C7.73696052 19.73824612 6.28091209 27.58234823 4 36 C2.9375 34.1875 2.9375 34.1875 2 32 C2.33 31.01 2.66 30.02 3 29 C3.64461975 21.27513056 3.78260368 14.40410287 -1 8 C-2.82271927 5.87644433 -2.82271927 5.87644433 -5 5 C-7.98051548 5.27942333 -10.38065846 6.59678132 -13 8 C-12.6875 5.125 -12.6875 5.125 -12 2 C-7.98035062 -0.67976626 -4.72367701 -0.80526656 0 0 Z " fill="#3674DA" transform="translate(309,943)"/>
<path d="M0 0 C17.82 0 35.64 0 54 0 C51.16651627 2.83348373 48.13559807 2.72696537 44.3125 3.125 C43.52810547 3.2084668 42.74371094 3.29193359 41.93554688 3.37792969 C35.29325134 4.01114463 28.67026882 4.21418211 22 4.25 C21.05809814 4.25918457 20.11619629 4.26836914 19.14575195 4.27783203 C13.02715953 4.2508755 6.85556884 3.92474716 1 2 C0.67 1.34 0.34 0.68 0 0 Z " fill="#1A61D5" transform="translate(275,558)"/>
<path d="M0 0 C3.24806496 1.52583517 6.14278046 3.38395547 9.125 5.375 C17.36762592 10.64020992 25.37126935 13.44301377 35 15 C35 16.65 35 18.3 35 20 C34.34 20 33.68 20 33 20 C33 19.01 33 18.02 33 17 C30.33264727 19.48952921 28.44253657 21.63408134 27 25 C25.74458443 21.23375329 26.62938042 19.62811066 28 16 C24.23569087 17.25476971 23.94955892 18.69422618 22 22 C21.34 22 20.68 22 20 22 C20.57584432 19.61435923 21.22227595 17.33317216 22 15 C19.00667261 15.9977758 18.05233685 16.7522025 16 19 C16.33 16.69 16.66 14.38 17 12 C15.68 12.33 14.36 12.66 13 13 C13 12.01 13 11.02 13 10 C12.01 10 11.02 10 10 10 C9.67 10.99 9.34 11.98 9 13 C8.34 11.68 7.68 10.36 7 9 C5.68 10.32 4.36 11.64 3 13 C3.57584432 10.61435923 4.22227595 8.33317216 5 6 C3.35 6.66 1.7 7.32 0 8 C0.66 6.68 1.32 5.36 2 4 C0.68 3.67 -0.64 3.34 -2 3 C-1.34 2.01 -0.68 1.02 0 0 Z " fill="#EBF1FB" transform="translate(59,439)"/>
<path d="M0 0 C43.20636389 -0.52909074 43.20636389 -0.52909074 50 4 C44.93206166 4.04992286 39.86427058 4.08596378 34.79614258 4.10986328 C33.07671613 4.1198403 31.35730628 4.13342675 29.63793945 4.15087891 C9.21469047 4.3527953 9.21469047 4.3527953 2 2 C1.34 1.34 0.68 0.68 0 0 Z " fill="#2F6FD9" transform="translate(229,607)"/>
<path d="M0 0 C0 0.66 0 1.32 0 2 C-3.16567207 2.65077173 -6.33270077 3.2946984 -9.5 3.9375 C-10.386875 4.11990234 -11.27375 4.30230469 -12.1875 4.49023438 C-21.08538508 6.28943908 -29.41568965 7.14832561 -38.5 7.0625 C-39.87671875 7.05573242 -39.87671875 7.05573242 -41.28125 7.04882812 C-43.52090391 7.03716326 -45.76041545 7.02079614 -48 7 C-47.67 6.34 -47.34 5.68 -47 5 C-45.22952271 4.52497864 -45.22952271 4.52497864 -42.89501953 4.20629883 C-41.58828781 4.02149712 -41.58828781 4.02149712 -40.25515747 3.83296204 C-39.30728363 3.70890488 -38.35940979 3.58484772 -37.3828125 3.45703125 C-35.93066849 3.25795418 -35.93066849 3.25795418 -34.44918823 3.05485535 C-32.39689741 2.77572255 -30.34398334 2.5011407 -28.29052734 2.23071289 C-25.1437446 1.81497644 -21.99964269 1.38224501 -18.85546875 0.94726562 C-16.86472089 0.67866598 -14.87383934 0.41105504 -12.8828125 0.14453125 C-11.93898712 0.0144014 -10.99516174 -0.11572845 -10.0227356 -0.24980164 C-9.14527679 -0.3635463 -8.26781799 -0.47729095 -7.36376953 -0.59448242 C-6.5917923 -0.69725998 -5.81981506 -0.80003754 -5.02444458 -0.90592957 C-3 -1 -3 -1 0 0 Z " fill="#2166D6" transform="translate(353,635)"/>
<path d="M0 0 C4.10284014 1.37732999 6.66842384 3.23643659 9.8125 6.1875 C11.11960937 7.3940625 11.11960937 7.3940625 12.453125 8.625 C13.29359375 9.40875 14.1340625 10.1925 15 11 C20.35070609 15.91472263 25.85396257 20.11604579 32 24 C31.34 24.99 30.68 25.98 30 27 C6.70889116 12.33169238 6.70889116 12.33169238 0 2 C0 1.34 0 0.68 0 0 Z " fill="#E9F0FB" transform="translate(101,698)"/>
<path d="M0 0 C3.01134191 0.10037806 4.01581099 1.01535925 6.1875 3.125 C8.34977606 6.5548172 8.92512724 8.95687091 9 13 C7.8125 15 7.8125 15 6 16 C4.0625 16.0625 4.0625 16.0625 2 15 C-0.8548569 11.66933362 -1.9358018 9.64198197 -2.375 5.25 C-2 2 -2 2 0 0 Z " fill="#F2F6FC" transform="translate(282,392)"/>
<path d="M0 0 C1.84619835 1.03998511 3.67673494 2.107814 5.5 3.1875 C6.5209375 3.77917969 7.541875 4.37085938 8.59375 4.98046875 C11 7 11 7 11.34375 9.73828125 C11.2303125 10.48464844 11.116875 11.23101562 11 12 C10.01 12 9.02 12 8 12 C6.96986723 13.64821244 5.96885372 15.31503702 5 17 C4.34 17 3.68 17 3 17 C3.33 13.37 3.66 9.74 4 6 C2.68 8.31 1.36 10.62 0 13 C-1.32 12.34 -2.64 11.68 -4 11 C-3.48483718 6.56959974 -2.37841589 3.74297622 0 0 Z " fill="#F0F4FC" transform="translate(84,476)"/>
<path d="M0 0 C0.33 0.66 0.66 1.32 1 2 C3.02463255 2.65213292 3.02463255 2.65213292 5 3 C5 3.99 5 4.98 5 6 C5.66 6 6.32 6 7 6 C7 4.68 7 3.36 7 2 C10 3 10 3 12 6 C12.99 5.67 13.98 5.34 15 5 C14.67 6.32 14.34 7.64 14 9 C12.68 8.67 11.36 8.34 10 8 C10 8.66 10 9.32 10 10 C9.29875 9.773125 8.5975 9.54625 7.875 9.3125 C4.11351015 8.90364241 2.27101546 10.22227421 -1 12 C-1.99 12 -2.98 12 -4 12 C-4.50423019 6.70558305 -3.18923033 4.18586481 0 0 Z " fill="#0E5DD6" transform="translate(252,55)"/>
<path d="M0 0 C3.0625 0.375 3.0625 0.375 5 1.9375 C6.50890049 5.39909525 5.9326627 7.76047801 5.0625 11.375 C4.4025 12.035 3.7425 12.695 3.0625 13.375 C-0.00184726 13.21785399 -1.49019031 12.79146074 -3.75 10.6875 C-5.27471863 7.71831109 -5.29567561 5.67021559 -4.9375 2.375 C-2.9375 0.375 -2.9375 0.375 0 0 Z " fill="#EEF3FC" transform="translate(228.9375,339.625)"/>
<path d="M0 0 C4.19410243 2.42816456 7.23317808 5.2197239 10.5625 8.75 C16.08716773 14.43492527 22.12633546 18.14299074 29 22 C28.34 22.66 27.68 23.32 27 24 C4.39829112 11.75469375 4.39829112 11.75469375 0 3 C0 2.01 0 1.02 0 0 Z " fill="#E8EFFA" transform="translate(121,673)"/>
<path d="M0 0 C0.66 0.33 1.32 0.66 2 1 C1.67 1.33 1.34 1.66 1 2 C1.99 2.33 2.98 2.66 4 3 C3.67 3.99 3.34 4.98 3 6 C3 5.34 3 4.68 3 4 C-0.00571856 4.38852558 -0.00571856 4.38852558 -3 6 C-4.18275852 8.68310961 -4.52711756 11.0681289 -5 14 C-6.0621875 13.86722656 -7.124375 13.73445312 -8.21875 13.59765625 C-8.90453125 13.51193359 -9.5903125 13.42621094 -10.296875 13.33789062 C-13.86458333 12.89192708 -17.43229167 12.44596354 -21 12 C-21.76441406 11.90444824 -22.52882812 11.80889648 -23.31640625 11.71044922 C-26.15820312 11.35522461 -26.15820312 11.35522461 -29 11 C-28.34 10.34 -27.68 9.68 -27 9 C-25.17943779 9.00833209 -23.35755644 9.02835068 -21.53979492 9.12963867 C-13.3784461 9.65527798 -13.3784461 9.65527798 -6.1875 6.1875 C-4.4764682 4.64321929 -4.4764682 4.64321929 -3 3 C-2 2 -1 1 0 0 Z " fill="#2D6ED8" transform="translate(222,740)"/>
<path d="M0 0 C4.875 0.875 4.875 0.875 6 2 C6.41221374 10.38167939 6.41221374 10.38167939 4 14 C1.13275314 13.42655063 0.1385485 13.1385485 -2 11 C-2.46376812 3.69565217 -2.46376812 3.69565217 0 0 Z " fill="#F2F6FC" transform="translate(189,373)"/>
<path d="M0 0 C-0.33 1.98 -0.66 3.96 -1 6 C0.65 5.67 2.3 5.34 4 5 C2.90931332 8.77545388 2.0916909 11.47043472 -1 14 C-2.98 13.01 -4.96 12.02 -7 11 C-6.51098901 4.64285714 -6.51098901 4.64285714 -4.0625 1.5625 C-2 0 -2 0 0 0 Z " fill="#2367D7" transform="translate(163,724)"/>
<path d="M0 0 C0.33 0 0.66 0 1 0 C1.02923559 3.85415052 1.04687777 7.70827215 1.0625 11.5625 C1.07087891 12.64853516 1.07925781 13.73457031 1.08789062 14.85351562 C1.10459218 20.34832611 0.98582259 25.58961935 0 31 C-0.66 31 -1.32 31 -2 31 C-2.25568182 6.76704545 -2.25568182 6.76704545 0 0 Z " fill="#6192E2" transform="translate(170,836)"/>
<path d="M0 0 C0 0.66 0 1.32 0 2 C-1.32 2.33 -2.64 2.66 -4 3 C-4 3.66 -4 4.32 -4 5 C-6.10018513 5.41644184 -8.20541042 5.80753303 -10.3125 6.1875 C-11.48425781 6.40792969 -12.65601563 6.62835938 -13.86328125 6.85546875 C-17 7 -17 7 -18.69604492 5.5090332 C-19.1263501 5.01105225 -19.55665527 4.51307129 -20 4 C-17.04222581 3.33076624 -14.08383702 2.66450361 -11.125 2 C-10.28324219 1.80921875 -9.44148438 1.6184375 -8.57421875 1.421875 C-7.76855469 1.24140625 -6.96289062 1.0609375 -6.1328125 0.875 C-5.38918457 0.70742188 -4.64555664 0.53984375 -3.87939453 0.3671875 C-2 0 -2 0 0 0 Z " fill="#5388DF" transform="translate(363,38)"/>
<path d="M0 0 C3.25696479 0.41755959 4.63443291 0.63443291 7 3 C6.625 5.625 6.625 5.625 6 8 C4.02 8.66 2.04 9.32 0 10 C-1.49106457 7.01787087 -1.11941467 4.28390342 -1 1 C-0.67 0.67 -0.34 0.34 0 0 Z " fill="#ECF2FB" transform="translate(164,262)"/>
<path d="M0 0 C1.9375 0.6875 1.9375 0.6875 2.9375 2.6875 C2.977492 4.68710012 2.98096799 6.68797242 2.9375 8.6875 C1.2875 9.0175 -0.3625 9.3475 -2.0625 9.6875 C-3.92026765 6.55251708 -4.26390476 4.31278568 -4.0625 0.6875 C-2.0625 -0.3125 -2.0625 -0.3125 0 0 Z " fill="#EFF3FC" transform="translate(358.0625,289.3125)"/>
<path d="M0 0 C0.79953138 3.28696233 1.09658936 4.71023192 0 8 C-5.75 7.125 -5.75 7.125 -8 6 C-7.625 3.5625 -7.625 3.5625 -7 1 C-4.53721199 -0.231394 -2.7204945 -0.07159196 0 0 Z " fill="#EDF2FB" transform="translate(296,47)"/>
<path d="M0 0 C4 1 4 1 7 3 C7.1875 5.625 7.1875 5.625 7 8 C6.01 8 5.02 8 4 8 C2.96986723 9.64821244 1.96885372 11.31503702 1 13 C0.34 13 -0.32 13 -1 13 C-0.67 8.71 -0.34 4.42 0 0 Z " fill="#E1EAF9" transform="translate(88,480)"/>
<path d="M0 0 C2.8992226 0.46761655 3.86675182 0.86675182 6 3 C5.68134222 6.29279709 4.45484649 7.86535088 2 10 C1.01 9.67 0.02 9.34 -1 9 C-1.09765625 2.84765625 -1.09765625 2.84765625 -1 1 C-0.67 0.67 -0.34 0.34 0 0 Z " fill="#EFF4FC" transform="translate(166,312)"/>
<path d="M0 0 C3.0625 0.125 3.0625 0.125 5.0625 1.125 C4.48905063 3.99224686 4.2010485 4.9864515 2.0625 7.125 C-0.5625 6.75 -0.5625 6.75 -2.9375 6.125 C-3.31968767 4.46885343 -3.65145102 2.80042976 -3.9375 1.125 C-2.9375 0.125 -2.9375 0.125 0 0 Z " fill="#0E5ED6" transform="translate(183.9375,32.875)"/>
<path d="M0 0 C3.125 0.25 3.125 0.25 5 1.75 C5.37125 2.245 5.7425 2.74 6.125 3.25 C5.795 4.24 5.465 5.23 5.125 6.25 C2.485 6.58 -0.155 6.91 -2.875 7.25 C-3.25633299 5.2585944 -3.58825582 3.25720923 -3.875 1.25 C-2.875 0.25 -2.875 0.25 0 0 Z " fill="#E7EEFA" transform="translate(319.875,769.75)"/>
<path d="M0 0 C1.62418745 -0.08090971 3.24951745 -0.13914995 4.875 -0.1875 C5.77992188 -0.22230469 6.68484375 -0.25710937 7.6171875 -0.29296875 C8.79667969 -0.14794922 8.79667969 -0.14794922 10 0 C10.66 0.99 11.32 1.98 12 3 C11 4 11 4 9.1796875 4.1328125 C4.34595929 4.11642698 -0.23373473 3.8112792 -5 3 C-5 2.67 -5 2.34 -5 2 C-3.35 2 -1.7 2 0 2 C0 1.34 0 0.68 0 0 Z " fill="#D8E4F7" transform="translate(345,186)"/>
<path d="M0 0 C2.84574968 1.27568089 5.18089981 2.41496289 7 5 C6.84946418 8.01071639 6.41319987 9.52068815 4.4375 11.8125 C3.963125 12.204375 3.48875 12.59625 3 13 C3.57584432 10.61435923 4.22227595 8.33317216 5 6 C3.35 6.66 1.7 7.32 0 8 C0.66 6.68 1.32 5.36 2 4 C0.68 3.67 -0.64 3.34 -2 3 C-1.34 2.01 -0.68 1.02 0 0 Z " fill="#CCDCF5" transform="translate(59,439)"/>
<path d="M0 0 C0.66 0.33 1.32 0.66 2 1 C2.4140625 3.50390625 2.4140625 3.50390625 2.625 6.5625 C2.69976562 7.57441406 2.77453125 8.58632813 2.8515625 9.62890625 C2.90054687 10.41136719 2.94953125 11.19382812 3 12 C-0.875 10.25 -0.875 10.25 -2 8 C-2.1875 5 -2.1875 5 -2 2 C-1.34 1.34 -0.68 0.68 0 0 Z " fill="#EDF2FB" transform="translate(312,344)"/>
<path d="M0 0 C3.25696479 0.41755959 4.63443291 0.63443291 7 3 C6.401875 3.226875 5.80375 3.45375 5.1875 3.6875 C2.43648112 5.33811133 1.47515363 7.1972081 0 10 C-0.66 9.67 -1.32 9.34 -2 9 C-1.125 1.125 -1.125 1.125 0 0 Z " fill="#E8EFFA" transform="translate(115,495)"/>
<path d="M0 0 C2.31 0.33 4.62 0.66 7 1 C6.67 1.99 6.34 2.98 6 4 C3.36 4 0.72 4 -2 4 C-1.34 2.68 -0.68 1.36 0 0 Z " fill="#F1F5FC" transform="translate(217,771)"/>
<path d="M0 0 C0.33 0 0.66 0 1 0 C1 7.59 1 15.18 1 23 C0.67 23 0.34 23 0 23 C-0.06058594 21.95199219 -0.12117188 20.90398437 -0.18359375 19.82421875 C-0.26801738 18.44529952 -0.35266447 17.06639395 -0.4375 15.6875 C-0.47681641 14.99720703 -0.51613281 14.30691406 -0.55664062 13.59570312 C-0.74927415 10.52838465 -1.02322717 7.93031848 -2 5 C-1.0625 2.3125 -1.0625 2.3125 0 0 Z " fill="#5D8FE1" transform="translate(300,68)"/>
<path d="M0 0 C-0.625 1.9375 -0.625 1.9375 -2 4 C-5.125 4.75 -5.125 4.75 -8 5 C-7.625 3.0625 -7.625 3.0625 -7 1 C-4.53721199 -0.231394 -2.7204945 -0.07159196 0 0 Z " fill="#D0DEF6" transform="translate(204,768)"/>
<path d="M0 0 C0.99 0.33 1.98 0.66 3 1 C3 1.66 3 2.32 3 3 C4.32 2.67 5.64 2.34 7 2 C7 2.66 7 3.32 7 4 C7.66 4 8.32 4 9 4 C9 4.66 9 5.32 9 6 C6.36 5.67 3.72 5.34 1 5 C0.67 3.35 0.34 1.7 0 0 Z " fill="#0F5FD7" transform="translate(392,74)"/>
<path d="M0 0 C0.99 0 1.98 0 3 0 C2.42865502 3.3138009 1.50248134 4.78626651 -1 7 C-1.556875 7.556875 -2.11375 8.11375 -2.6875 8.6875 C-3.120625 9.120625 -3.55375 9.55375 -4 10 C-3.5289356 5.85463326 -3.0080208 3.0080208 0 0 Z " fill="#E9F0FB" transform="translate(80,472)"/>
<path d="M0 0 C0.33 0 0.66 0 1 0 C1.93213141 6.26039609 2.20927172 11.02197063 0 17 C-2.50014115 13.25904806 -1.90042304 10.55790579 -1.125 6.25 C-0.92132813 5.07953125 -0.71765625 3.9090625 -0.5078125 2.703125 C-0.34023438 1.81109375 -0.17265625 0.9190625 0 0 Z " fill="#7CA4E7" transform="translate(313,962)"/>
<path d="M0 0 C4.66132863 3.57729872 7.73911534 7.10867301 11 12 C10.67 12.66 10.34 13.32 10 14 C8.894019 12.75160501 7.79029799 11.50120766 6.6875 10.25 C6.07261719 9.55390625 5.45773438 8.8578125 4.82421875 8.140625 C0 2.47965739 0 2.47965739 0 0 Z " fill="#D1DFF6" transform="translate(85,711)"/>
<path d="M0 0 C-0.57344937 2.86724686 -0.8614515 3.8614515 -3 6 C-5.125 5.625 -5.125 5.625 -7 5 C-5.64703851 0.94111554 -4.27479763 0 0 0 Z " fill="#E6EDFA" transform="translate(117,329)"/>
<path d="M0 0 C1.32 0.33 2.64 0.66 4 1 C3.67 2.98 3.34 4.96 3 7 C2.01 7.33 1.02 7.66 0 8 C0 5.36 0 2.72 0 0 Z " fill="#F6F9FD" transform="translate(208,283)"/>
<path d="M0 0 C0.93065133 2.60582371 1.14917407 3.64198224 0.0625 6.25 C-0.4634375 7.11625 -0.4634375 7.11625 -1 8 C-1.99 8 -2.98 8 -4 8 C-3.6875 5.125 -3.6875 5.125 -3 2 C-2.01 1.34 -1.02 0.68 0 0 Z " fill="#2065D6" transform="translate(168,734)"/>
<path d="M0 0 C4.2742558 1.5830577 6.26531794 4.50568404 9 8 C8.67 8.66 8.34 9.32 8 10 C6.65787938 8.90653119 5.32652025 7.7998425 4 6.6875 C3.2575 6.07261719 2.515 5.45773437 1.75 4.82421875 C0 3 0 3 0 0 Z " fill="#DEE8F9" transform="translate(80,715)"/>
<path d="M0 0 C-0.66 1.32 -1.32 2.64 -2 4 C-3.98 4 -5.96 4 -8 4 C-7.67 3.01 -7.34 2.02 -7 1 C-4.53721199 -0.231394 -2.7204945 -0.07159196 0 0 Z " fill="#ECF2FB" transform="translate(212,770)"/>
<path d="M0 0 C0.66 0 1.32 0 2 0 C2 3.3 2 6.6 2 10 C-1 7 -1 7 -1.25 3.875 C-1 1 -1 1 0 0 Z " fill="#D1DFF6" transform="translate(273,395)"/>
<path d="M0 0 C1.32 0 2.64 0 4 0 C3.67 1.65 3.34 3.3 3 5 C1.68 5 0.36 5 -1 5 C-0.67 3.35 -0.34 1.7 0 0 Z " fill="#D9E5F8" transform="translate(319,345)"/>
<path d="M0 0 C0.66 0 1.32 0 2 0 C3.35439668 2.70879335 3.06501451 5.00933268 3 8 C2.01 7.67 1.02 7.34 0 7 C-0.38133299 5.0085944 -0.71325582 3.00720923 -1 1 C-0.67 0.67 -0.34 0.34 0 0 Z " fill="#0E5CD5" transform="translate(356,67)"/>
<path d="M0 0 C3.7952131 1.49097658 5.61042731 3.75700849 8 7 C5.07120629 6.37240135 2.63904371 5.41377341 0 4 C0 2.68 0 1.36 0 0 Z " fill="#DFE8F9" transform="translate(79,724)"/>
<path d="M0 0 C1.485 0.99 1.485 0.99 3 2 C3.1875 5.125 3.1875 5.125 3 8 C2.01 7.67 1.02 7.34 0 7 C-0.38133299 5.0085944 -0.71325582 3.00720923 -1 1 C-0.67 0.67 -0.34 0.34 0 0 Z " fill="#0E5BD4" transform="translate(370,70)"/>
<path d="M0 0 C4.29 0.66 8.58 1.32 13 2 C13 2.99 13 3.98 13 5 C11.20620902 4.55005243 9.41501072 4.08975857 7.625 3.625 C6.62726563 3.36976563 5.62953125 3.11453125 4.6015625 2.8515625 C2 2 2 2 0 0 Z " fill="#3976DB" transform="translate(183,546)"/>
<path d="M0 0 C0.66 0.33 1.32 0.66 2 1 C0.68 2.32 -0.64 3.64 -2 5 C-1.67 5.66 -1.34 6.32 -1 7 C-2.98 7.66 -4.96 8.32 -7 9 C-5.44499019 5.18315774 -2.96404505 2.80804268 0 0 Z " fill="#2B6CD8" transform="translate(349,668)"/>
<path d="M0 0 C0 0.66 0 1.32 0 2 C-2.64 2.33 -5.28 2.66 -8 3 C-8.66 2.01 -9.32 1.02 -10 0 C-3.375 -1.125 -3.375 -1.125 0 0 Z " fill="#3875DA" transform="translate(353,635)"/>
<path d="M0 0 C1.9375 0.625 1.9375 0.625 4 2 C4.75 5.125 4.75 5.125 5 8 C2.5 5.6875 2.5 5.6875 0 3 C0 2.01 0 1.02 0 0 Z " fill="#EBF1FB" transform="translate(365,394)"/>
<path d="M0 0 C1.65 0 3.3 0 5 0 C5.33 0.99 5.66 1.98 6 3 C4.02 3.33 2.04 3.66 0 4 C0 2.68 0 1.36 0 0 Z " fill="#F2F6FC" transform="translate(335,769)"/>
<path d="M0 0 C1.98 0 3.96 0 6 0 C5.67 0.99 5.34 1.98 5 3 C3.02 3 1.04 3 -1 3 C-0.67 2.01 -0.34 1.02 0 0 Z " fill="#EBF1FB" transform="translate(187,768)"/>
<path d="M0 0 C2.97 0.33 5.94 0.66 9 1 C8.67 1.99 8.34 2.98 8 4 C5.64828869 3.40138258 3.3140622 2.73075648 1 2 C0.67 1.34 0.34 0.68 0 0 Z " fill="#4F85DF" transform="translate(202,630)"/>
<path d="M0 0 C2.64 0 5.28 0 8 0 C8.33 0.99 8.66 1.98 9 3 C8.34 3.66 7.68 4.32 7 5 C6.67 4.01 6.34 3.02 6 2 C3.03 1.505 3.03 1.505 0 1 C0 0.67 0 0.34 0 0 Z " fill="#D0DEF6" transform="translate(329,244)"/>
<path d="M0 0 C2.475 0.495 2.475 0.495 5 1 C5.33 1.99 5.66 2.98 6 4 C4.35 3.67 2.7 3.34 1 3 C0.67 2.01 0.34 1.02 0 0 Z " fill="#DDE8F9" transform="translate(373,759)"/>
<path d="M0 0 C0.66 0 1.32 0 2 0 C1.67 1.65 1.34 3.3 1 5 C-0.32 5.33 -1.64 5.66 -3 6 C-1.125 1.125 -1.125 1.125 0 0 Z " fill="#3976DB" transform="translate(101,489)"/>
<path d="M0 0 C0.66 0.33 1.32 0.66 2 1 C1.6875 2.875 1.6875 2.875 1 5 C0.01 5.66 -0.98 6.32 -2 7 C-1.125 1.125 -1.125 1.125 0 0 Z " fill="#E0E9F9" transform="translate(57,433)"/>
<path d="M0 0 C-0.33 0.99 -0.66 1.98 -1 3 C-3.86724686 2.42655063 -4.8614515 2.1385485 -7 0 C-3.86650268 -1.04449911 -3.01031744 -0.93423645 0 0 Z " fill="#3C78DB" transform="translate(350,42)"/>
</svg>
