<?xml version="1.0" encoding="UTF-8"?>
<svg version="1.1" xmlns="http://www.w3.org/2000/svg" width="861" height="1308">
<path d="M0 0 C1.29550781 0.00829834 2.59101563 0.01659668 3.92578125 0.02514648 C68.49336775 0.8989473 145.55642454 18.57074912 202.7734375 48.29296875 C203.68270996 48.76476562 204.59198242 49.2365625 205.52880859 49.72265625 C207.25394646 50.63259123 208.96872653 51.56254831 210.67041016 52.515625 C215.26460279 55.03967535 215.26460279 55.03967535 220.375 54.875 C221.7671875 54.1634375 221.7671875 54.1634375 223.1875 53.4375 C224.610625 52.81294922 224.610625 52.81294922 226.0625 52.17578125 C227.09375 51.70527344 228.125 51.23476562 229.1875 50.75 C271.20135276 32.43319388 323.92571801 25.99768614 367.49682617 42.5246582 C383.8973658 49.17821469 396.47451765 59.92624006 405.1875 75.4375 C405.69925781 76.31535156 406.21101562 77.19320312 406.73828125 78.09765625 C411.76787844 87.338079 414.61915866 97.28671904 417.1875 107.4375 C417.46086182 108.50822754 417.46086182 108.50822754 417.73974609 109.60058594 C423.30887225 132.84129749 422.14489176 161.21192442 417.1875 184.4375 C416.93806641 185.66146484 416.93806641 185.66146484 416.68359375 186.91015625 C411.85182552 210.06685289 402.74404157 232.41552439 387.1875 250.4375 C386.445 251.448125 385.7025 252.45875 384.9375 253.5 C377.7956405 261.90358801 367.41437938 267.68519174 357.1875 271.4375 C356.1975 271.4375 355.2075 271.4375 354.1875 271.4375 C354.496875 271.953125 354.80625 272.46875 355.125 273 C357.88388572 279.32920842 357.16901108 285.00832653 355.1875 291.4375 C353.33030923 295.95457773 351.24021385 300.34887082 349.125 304.75 C348.02690477 307.05714781 346.93172047 309.36568398 345.83984375 311.67578125 C345.35507568 312.68680908 344.87030762 313.69783691 344.37084961 314.73950195 C342.74753498 318.44060572 342.06128314 321.49289481 342.0546875 325.51953125 C342.05339844 326.28716797 342.05210937 327.05480469 342.05078125 327.84570312 C342.05464844 328.63912109 342.05851563 329.43253906 342.0625 330.25 C342.05863281 331.03181641 342.05476562 331.81363281 342.05078125 332.61914062 C342.05865034 337.32879377 342.502867 341.77049798 343.1875 346.4375 C345.11109943 373.76864195 334.31044448 393.6845771 316.75 413.9375 C316.22962158 414.5253125 315.70924316 415.113125 315.1730957 415.71875 C311.41995837 419.65910852 311.41995837 419.65910852 309.1875 424.4375 C309.94241934 426.92873382 310.77527259 429.13065005 311.8125 431.5 C316.7939844 443.76464005 319.77824213 457.18110362 320.1875 470.4375 C320.20796387 471.07445801 320.22842773 471.71141602 320.24951172 472.36767578 C320.98639957 499.01134816 316.97783963 526.67585119 299.6328125 547.93359375 C298.1875 549.4375 298.1875 549.4375 296.1875 550.4375 C296.13142578 552.28601563 296.13142578 552.28601563 296.07421875 554.171875 C295.2723858 576.10567108 289.14594108 592.37454996 275.1875 609.4375 C274.39730469 610.406875 273.60710938 611.37625 272.79296875 612.375 C271.26874979 614.23540656 269.74037052 616.09241566 268.20703125 617.9453125 C265.71679099 621.01837495 263.43076141 624.18115279 261.1875 627.4375 C261.85136719 627.96859375 262.51523437 628.4996875 263.19921875 629.046875 C265.86197917 631.17708333 268.52473958 633.30729167 271.1875 635.4375 C272.03441406 636.08332031 272.88132812 636.72914063 273.75390625 637.39453125 C309.45662254 667.36647446 322.13950651 726.50162781 326.5 770.25 C329.97414054 811.30557894 326.12331564 850.60754936 298.75 883.125 C275.45471707 910.15520969 240.89104414 931.20298529 207.1875 942.4375 C207.21668833 942.98448044 207.24587666 943.53146088 207.27594948 944.09501648 C207.97508014 957.4818815 208.3391176 970.83599574 208.38673019 984.24032593 C208.39885234 987.3566445 208.41836993 990.4728438 208.43984985 993.58911133 C208.50041436 1002.43143637 208.5553791 1011.27373775 208.58886719 1020.11621094 C208.6100685 1025.57527059 208.64554321 1031.03409079 208.68962479 1036.49301147 C208.70355562 1038.54020336 208.7124538 1040.58743733 208.71567917 1042.63467407 C208.74948363 1062.01630257 210.48240423 1080.84525897 216.1875 1099.4375 C216.89318115 1099.36677277 217.5988623 1099.29604553 218.32592773 1099.22317505 C350.09232718 1086.0378197 350.09232718 1086.0378197 401.1875 1097.4375 C402.02506836 1097.61361816 402.86263672 1097.78973633 403.72558594 1097.97119141 C409.39653986 1099.44701978 409.39653986 1099.44701978 411.43505859 1101.99975586 C412.39800913 1103.95385726 413.06701305 1105.84983508 413.6875 1107.9375 C413.9261377 1108.6500293 414.16477539 1109.36255859 414.41064453 1110.09667969 C416.67602037 1117.20819875 417.1875 1124.01490727 417.1875 1131.4375 C418.08210937 1131.85 418.97671875 1132.2625 419.8984375 1132.6875 C427.82996139 1136.43752802 434.62626243 1140.51974633 441.1875 1146.4375 C441.87199219 1147.02917969 442.55648437 1147.62085938 443.26171875 1148.23046875 C449.56828611 1154.04143161 453.90490061 1161.08222259 458.1875 1168.4375 C458.79851562 1169.46810547 458.79851562 1169.46810547 459.421875 1170.51953125 C462.94271955 1177.87676773 462.46956501 1188.76033692 460.34375 1196.515625 C457.04220047 1203.78795708 451.50569904 1209.33806673 444.0625 1212.3125 C438.50378568 1214.1972143 432.74346835 1214.59605421 426.91796875 1214.90234375 C425.52016914 1214.980886 424.12238307 1215.05966967 422.72460938 1215.13867188 C420.55279405 1215.25781957 418.3809174 1215.37469389 416.20874023 1215.48706055 C402.81317348 1215.31355509 402.81317348 1215.31355509 391.27734375 1220.2578125 C390.89707031 1221.01835938 390.51679687 1221.77890625 390.125 1222.5625 C389.65835938 1223.449375 389.19171875 1224.33625 388.7109375 1225.25 C387.95683594 1226.8278125 387.95683594 1226.8278125 387.1875 1228.4375 C375.7192198 1252.27784393 375.7192198 1252.27784393 364.1875 1256.4375 C363.23359375 1256.79328125 362.2796875 1257.1490625 361.296875 1257.515625 C355.48977135 1259.1151957 349.41280158 1258.82085707 343.4375 1258.8125 C342.78021912 1258.81195618 342.12293823 1258.81141235 341.44573975 1258.81085205 C327.46106723 1258.75814653 313.91453624 1257.14282831 300.1875 1254.4375 C299.14335938 1254.23382812 298.09921875 1254.03015625 297.0234375 1253.8203125 C274.4043742 1249.22847258 255.88851207 1239.70029845 237.1875 1226.4375 C235.76633117 1225.44560203 234.34446004 1224.45470951 232.921875 1223.46484375 C227.17340536 1219.44800043 221.45939934 1215.38946985 215.82421875 1211.21484375 C208.04794354 1205.47494688 200.22082387 1200.13453472 191.875 1195.25 C183.78720021 1190.50698259 176.34041936 1185.51798732 169.1875 1179.4375 C168.34832031 1178.73496094 167.50914062 1178.03242187 166.64453125 1177.30859375 C158.51310332 1169.91267187 152.72063069 1159.33417952 151.27734375 1148.35546875 C151.00326258 1139.45378904 151.77719901 1130.70415084 157.1875 1123.38671875 C159.60326946 1121.03228719 162.23367536 1119.54213171 165.125 1117.8125 C167.94229573 1116.00962994 167.94229573 1116.00962994 170.1875 1113.4375 C170.65858076 1110.24220156 170.65858076 1110.24220156 170.12915039 1106.72143555 C170.06265069 1106.06554034 169.99615099 1105.40964514 169.92763615 1104.73387432 C169.70737626 1102.63119734 169.44889629 1100.53542053 169.1875 1098.4375 C169.03810684 1097.09328066 168.89061879 1095.74884815 168.74508667 1094.40420532 C168.26761455 1090.10372548 167.72800323 1085.81196955 167.18359375 1081.51953125 C166.98225093 1079.91007018 166.78112023 1078.30058256 166.58018494 1076.69107056 C166.04551184 1072.42220291 165.50407943 1068.15422037 164.96044159 1063.88648605 C164.62359603 1061.23896512 164.28867807 1058.59120616 163.9541626 1055.94338989 C160.84687785 1031.38237221 157.48035833 1006.88720526 153.52514648 982.4465332 C153.36575089 981.45551605 153.20635529 980.4644989 153.04212952 979.44345093 C152.75023781 977.63758274 152.45389851 975.83242428 152.15184021 974.02822876 C151.46069286 969.77844995 151.0317038 965.76193246 151.1875 961.4375 C150.1780835 961.59903564 149.16866699 961.76057129 148.12866211 961.92700195 C144.41235169 962.408375 140.87308444 962.58195544 137.12890625 962.60546875 C136.47146423 962.60970352 135.81402222 962.61393829 135.13665771 962.61830139 C133.00770629 962.62816199 130.87897022 962.62822115 128.75 962.625 C127.65128067 962.62409363 127.65128067 962.62409363 126.53036499 962.62316895 C85.01604238 962.53051692 36.65884427 957.19635023 5.41015625 926.703125 C5.00667969 926.28546875 4.60320312 925.8678125 4.1875 925.4375 C-10.79635849 930.44094391 -21.15655432 951.10827141 -28.82348633 963.86938477 C-50.12383428 999.27592341 -50.12383428 999.27592341 -64.8125 1004.4375 C-64.7196875 1005.984375 -64.7196875 1005.984375 -64.625 1007.5625 C-64.82867137 1011.77170829 -65.83137706 1013.78004226 -67.8125 1017.4375 C-68.03550781 1018.51773438 -68.25851562 1019.59796875 -68.48828125 1020.7109375 C-70.20567416 1025.5439547 -72.8030383 1027.78541284 -76.625 1031.0625 C-77.86138105 1032.15806022 -79.09706981 1033.25440228 -80.33203125 1034.3515625 C-80.92725586 1034.87387451 -81.52248047 1035.39618652 -82.13574219 1035.93432617 C-84.45370841 1038.01232822 -86.63029803 1040.21837414 -88.8125 1042.4375 C-89.83730469 1043.41009766 -89.83730469 1043.41009766 -90.8828125 1044.40234375 C-97.60230779 1050.85357022 -103.22508409 1058.01889928 -108.8125 1065.4375 C-109.35567871 1066.15760254 -109.89885742 1066.87770508 -110.45849609 1067.61962891 C-118.64473678 1078.51357217 -126.60654671 1089.56648927 -134.08007812 1100.96435547 C-135.8125 1103.4375 -135.8125 1103.4375 -138.16992188 1106.22705078 C-145.78310714 1115.71949705 -145.99992032 1123.68133888 -145.6875 1135.5625 C-145.64205127 1138.87766052 -145.62240446 1142.19235594 -145.6171875 1145.5078125 C-145.61428711 1146.32364807 -145.61138672 1147.13948364 -145.60839844 1147.9800415 C-145.73438752 1166.7556567 -149.57400291 1188.00231109 -162.5 1202.3046875 C-171.02888729 1210.24129095 -181.13511609 1211.92247898 -192.390625 1211.7109375 C-213.83159647 1210.7619725 -233.59129051 1199.56310393 -248.19140625 1184.40234375 C-268.94561835 1160.92626776 -283.22137495 1132.71907513 -297.99023438 1105.31542969 C-301.67052223 1098.50132096 -305.42962602 1091.73650034 -309.25 1085 C-310.04519043 1083.59778198 -310.04519043 1083.59778198 -310.85644531 1082.16723633 C-311.94340331 1080.25195605 -313.03064646 1078.33683758 -314.11816406 1076.421875 C-331.61148336 1045.60943479 -331.61148336 1045.60943479 -337.8125 1032.4375 C-338.11736328 1031.80118652 -338.42222656 1031.16487305 -338.73632812 1030.50927734 C-347.13120793 1012.86513279 -353.53545524 993.76558796 -349.04296875 974.0625 C-348.14755883 971.66522722 -347.15861628 969.60728883 -345.8125 967.4375 C-345.27625 966.509375 -344.74 965.58125 -344.1875 964.625 C-337.15159496 958.14456115 -330.01245568 956.60435332 -320.56640625 956.95703125 C-310.85422325 958.20010982 -303.58762256 962.52288962 -296.8125 969.4375 C-296.93338783 967.124725 -297.05864627 964.81233884 -297.1875 962.5 C-297.22931396 961.73985596 -297.27112793 960.97971191 -297.31420898 960.1965332 C-297.57061898 955.79022611 -297.89613663 951.40091749 -298.32421875 947.0078125 C-305.27732312 874.2192363 -305.27732312 874.2192363 -286.8125 849.4375 C-280.72372286 842.80157469 -273.5463408 839.887213 -264.625 839.1875 C-256.15479868 839.74292304 -248.83691258 842.32504799 -242.8125 848.4375 C-229.4942448 864.89445229 -223.80480241 891.73825418 -221.8125 912.4375 C-215.29066198 910.32479191 -210.97510873 908.02176081 -206.3125 902.9921875 C-204.2115676 900.8146586 -202.80554217 899.99434506 -199.8125 899.4375 C-193.53659235 899.37410699 -188.56113088 900.02805704 -183.8125 904.4375 C-176.41809481 914.59868594 -177.59404408 928.56846211 -177.7772522 940.49816895 C-178.06805105 961.1385932 -177.01170898 979.64988834 -170.8125 999.4375 C-170.4186771 1000.71726536 -170.02541953 1001.99720486 -169.6328125 1003.27734375 C-168.96809899 1005.43402371 -168.29515068 1007.58820585 -167.609375 1009.73828125 C-166.37632799 1013.91492579 -165.67270197 1017.76698155 -165.6875 1022.125 C-165.68492187 1022.89199219 -165.68234375 1023.65898438 -165.6796875 1024.44921875 C-165.8125 1026.4375 -165.8125 1026.4375 -166.8125 1028.4375 C-141.26707663 1011.78100413 -118.89844105 992.55543638 -97.3125 971.0625 C-96.5709668 970.32563965 -95.82943359 969.5887793 -95.06542969 968.82958984 C-91.02919318 964.78148742 -87.1699214 960.63885983 -83.43847656 956.30859375 C-81.00947625 953.51341981 -78.4707231 950.8253425 -75.9375 948.125 C-71.42262862 943.27746873 -67.17218939 938.28440555 -63.0234375 933.1171875 C-60.7031505 930.30496685 -58.28178866 927.61952737 -55.8125 924.9375 C-51.69099602 920.45871394 -47.81820363 915.83271217 -43.99609375 911.09765625 C-40.71909887 907.1054675 -37.28014396 903.26419157 -33.8125 899.4375 C-34.47781332 898.22842098 -35.14490467 897.0203205 -35.8125 895.8125 C-36.27011719 894.98234375 -36.72773438 894.1521875 -37.19921875 893.296875 C-38.31921054 891.31180481 -39.47003671 889.34394214 -40.64453125 887.390625 C-64.06879902 848.02676673 -66.56049668 803.49095264 -55.48657227 759.66625977 C-48.69489518 734.52153187 -36.98425658 710.57228528 -21.8125 689.4375 C-21.08546875 688.4165625 -20.3584375 687.395625 -19.609375 686.34375 C-6.26703472 668.10601868 9.2505047 651.09861101 27.49609375 637.68457031 C29.16852848 636.45148766 30.81885476 635.19270396 32.46875 633.9296875 C52.90110999 618.53923495 76.39592704 608.37199071 101.1875 602.4375 C102.15945313 602.19128906 103.13140625 601.94507813 104.1328125 601.69140625 C118.83750883 598.58327073 135.3066517 599.52114366 149.9765625 602.36987305 C162.58642236 604.71198216 174.06461993 603.43670839 186.33963013 600.4437561 C196.19704389 598.06497373 206.06040083 595.75 216.25 595.75 C217.31686035 595.74033203 217.31686035 595.74033203 218.40527344 595.73046875 C224.75462955 595.95314466 230.11052183 598.36052183 234.5625 602.8125 C236.30068029 605.6203297 237.30184275 608.26389487 238.1875 611.4375 C252.66641425 604.90695114 263.00595615 590.65770387 269.1875 576.4375 C269.5175 575.4475 269.8475 574.4575 270.1875 573.4375 C269.18074219 573.42291748 268.17398438 573.40833496 267.13671875 573.39331055 C263.31934039 573.33433194 259.50249243 573.25712965 255.68554688 573.17504883 C254.04891717 573.14225865 252.41218679 573.11409225 250.77539062 573.09106445 C219.22527035 572.63564196 219.22527035 572.63564196 208.1875 563.4375 C203.13104446 557.49616474 201.68138942 550.76996308 201.87890625 543.11328125 C202.89267793 534.32298253 206.88858655 526.59669634 213.1875 520.4375 C227.74137596 509.31842684 243.16620322 505.84003351 261.1875 507.4375 C272.38865865 509.67531247 280.55821895 515.16449836 288.1875 523.4375 C299.61902111 509.30279869 298.16865689 487.31464886 296.375 470.3125 C295.52681882 462.86982948 294.10790916 455.6838439 292.1875 448.4375 C285.69597104 449.71377865 279.90311143 451.57138427 273.8125 454.125 C272.0554111 454.84162053 270.2975784 455.55641963 268.5390625 456.26953125 C267.65250977 456.62998535 266.76595703 456.99043945 265.85253906 457.36181641 C247.93714624 464.59296525 230.44008492 471.6530536 211.40625 463.66796875 C208.5675332 462.09368039 206.44163229 460.81294843 204.1875 458.4375 C203.72313178 455.49853798 203.56581301 453.23043931 203.6875 450.3125 C203.71626221 449.17071289 203.71626221 449.17071289 203.74560547 448.00585938 C204.14346346 437.89811593 206.92632165 430.41304862 213.1875 422.4375 C213.66703125 421.82003906 214.1465625 421.20257813 214.640625 420.56640625 C222.75278796 411.36852451 236.7417029 406.0957437 248.70996094 405.26171875 C263.86239877 404.52539758 277.77539005 405.45216161 291.35546875 412.8984375 C293.23247987 413.64503295 293.23247987 413.64503295 295.22265625 412.71875 C309.43567854 403.45061618 316.89147238 384.89780208 320.59765625 368.9765625 C321.95021055 360.86123671 322.54584167 352.63505953 323.1875 344.4375 C314.68885721 343.3264736 307.3230729 343.71825957 298.9375 345.375 C278.84185887 349.20936981 278.84185887 349.20936981 270.1875 344.4375 C265.35761902 338.33659771 264.08296683 330.67061594 262.5 323.1875 C263.69201409 318.41944362 267.17570125 316.03225838 271.1875 313.4375 C278.56624163 309.98229235 285.85669678 308.31411169 294.00390625 308.3046875 C295.09227783 308.3032373 296.18064941 308.30178711 297.30200195 308.30029297 C299.00876099 308.30633545 299.00876099 308.30633545 300.75 308.3125 C301.91426514 308.31008301 303.07853027 308.30766602 304.27807617 308.30517578 C310.2685587 308.31775642 316.06185675 308.54628797 322 309.3125 C326.48093111 309.74995525 326.48093111 309.74995525 330.25 307.0625 C331.31606862 305.36080246 331.31606862 305.36080246 332.1875 303.4375 C332.55101562 302.75945312 332.91453125 302.08140625 333.2890625 301.3828125 C335.2635692 297.39118385 336.4761899 293.51422844 337.30078125 289.140625 C337.55468628 287.81272949 337.55468628 287.81272949 337.8137207 286.45800781 C337.93706787 285.79124023 338.06041504 285.12447266 338.1875 284.4375 C337.24358398 284.45321045 336.29966797 284.4689209 335.32714844 284.48510742 C302.55348555 284.98010995 270.50083299 283.28329789 239.0625 273.0625 C237.74608521 272.63565918 237.74608521 272.63565918 236.40307617 272.20019531 C232.5135392 270.86299306 229.07043466 269.52521333 225.71875 267.1171875 C221.11516049 263.93797593 217.98291532 261.94995605 212.40185547 262.92333984 C206.60388451 264.53705859 201.01721775 266.6705823 195.39453125 268.8046875 C169.95351042 278.42694177 139.94981835 282.50998044 112.7890625 282.640625 C111.833414 282.64632507 110.8777655 282.65202515 109.89315796 282.65789795 C107.88141968 282.66727496 105.86966654 282.67385255 103.85791016 282.67773438 C100.85420235 282.68736627 97.85120214 282.71843046 94.84765625 282.75 C72.20711677 282.8743021 40.07889844 281.43120563 21.21850586 266.92285156 C13.92047947 261.35665777 7.6933715 261.81178272 -1.19335938 262.203125 C-8.91537557 262.26151454 -8.91537557 262.26151454 -11.60400391 259.79199219 C-13.05078125 257.7109375 -13.05078125 257.7109375 -14.1340332 255.65380859 C-18.56956943 249.79696527 -25.85087701 247.43974201 -32.625 245.31640625 C-34.29433687 244.76777901 -35.96360565 244.21894458 -37.6328125 243.66992188 C-40.22468587 242.83156223 -42.81805917 241.99822505 -45.41308594 241.16967773 C-47.94645446 240.35647699 -50.47321689 239.52480594 -53 238.69140625 C-53.76481689 238.4537001 -54.52963379 238.21599396 -55.31762695 237.97108459 C-62.20546867 235.68554343 -67.90878691 231.80751536 -72.8125 226.4375 C-74.5799861 221.78752489 -75.40417746 217.05330588 -73.875 212.25 C-67.50483651 198.72356773 -50.70201807 193.57229061 -37.63500977 188.79370117 C-30.15859927 186.03274163 -22.87394362 182.89777329 -15.58724976 179.67895508 C-1.59465151 173.50035433 12.29111473 168.05424986 27.1875 164.4375 C16.7280123 159.35628645 6.24393606 154.34068117 -4.359375 149.56640625 C-56.13916663 126.23954345 -56.13916663 126.23954345 -76.8125 106.4375 C-77.699375 105.591875 -78.58625 104.74625 -79.5 103.875 C-80.263125 103.070625 -81.02625 102.26625 -81.8125 101.4375 C-82.35390625 100.86773437 -82.8953125 100.29796875 -83.453125 99.7109375 C-87.89464248 94.86389017 -92.32745894 89.57996037 -94.8125 83.4375 C-94.34959681 79.40925738 -92.90478785 76.34230576 -91.00390625 72.7890625 C-90.42664795 71.70826416 -89.84938965 70.62746582 -89.25463867 69.51391602 C-88.63435791 68.37494873 -88.01407715 67.23598145 -87.375 66.0625 C-87.05914948 65.47991425 -86.74329895 64.89732849 -86.4178772 64.29708862 C-79.04577969 50.72479864 -71.0727416 38.04873427 -60.8125 26.4375 C-60.12929688 25.65890625 -59.44609375 24.8803125 -58.7421875 24.078125 C-43.33498714 7.59071502 -22.29726986 -0.190306 0 0 Z M276.1875 324.4375 C274.07264006 328.18656989 274.1292085 331.19970821 274.1875 335.4375 C295.035141 336.44687933 295.035141 336.44687933 313.015625 327 C314.37862104 325.18267195 314.78584472 323.65616726 315.1875 321.4375 C314.135625 320.798125 313.08375 320.15875 312 319.5 C311.40832031 319.14035156 310.81664062 318.78070313 310.20703125 318.41015625 C298.99675873 313.01101146 284.74370465 315.88129535 276.1875 324.4375 Z M223.4140625 425.1015625 C216.6301219 432.3487966 215.24307734 440.71146616 215.1875 450.4375 C215.3764424 452.68214739 215.3764424 452.68214739 216.1875 454.4375 C230.02004134 459.04834711 246.86476585 454.15273047 259.5625 448.25 C265.99794938 444.83047957 271.13597326 440.66058803 276.1875 435.4375 C277.05761719 434.56351562 277.05761719 434.56351562 277.9453125 433.671875 C279.54540502 432.01930029 279.54540502 432.01930029 281.1875 429.4375 C280.96268663 426.90460269 280.46803936 425.7375421 278.7265625 423.875 C262.25634812 411.50553287 238.85736019 410.61071489 223.4140625 425.1015625 Z M222.1875 536.4375 C217.22454571 543.49529902 217.76126639 551.11410479 218.1875 559.4375 C231.17155455 564.11342961 245.84668172 566.40549907 258.91796875 560.703125 C264.79785399 557.42415285 268.73477417 553.84183966 271.1875 547.4375 C272.32213252 543.41471199 272.63317548 539.59713779 272.1875 535.4375 C268.27949477 530.01671855 262.12610584 527.39365672 255.7578125 525.84765625 C243.00773117 523.8130688 230.79150298 526.27465412 222.1875 536.4375 Z M187.6875 619.9375 C184.86029693 623.6112667 183.1875 626.728133 183.1875 631.4375 C197.1637521 632.27384487 208.68467098 629.99667646 221.1875 623.4375 C220.85804431 615.83694279 220.85804431 615.83694279 217.1875 609.4375 C207.18005173 607.72891127 194.38933436 612.47113599 187.6875 619.9375 Z " fill="#135CD4" transform="translate(374.8125,24.5625)"/>
<path d="M0 0 C0.68964844 0.144375 1.37929688 0.28875 2.08984375 0.4375 C2.17621094 1.2109375 2.26257813 1.984375 2.3515625 2.78125 C3.39096572 10.48618394 4.73787568 16.73493474 10.84375 21.9296875 C27.19889469 33.09744287 48.63135738 29.64149837 67.08984375 27.4375 C65.95544831 31.19751494 64.82755863 34.21619826 62.40234375 37.3125 C61.87640625 37.98925781 61.35046875 38.66601562 60.80859375 39.36328125 C59.06462617 41.46793304 57.24504231 43.48162044 55.40234375 45.5 C51.07132225 50.37598447 49.29125007 55.026359 48.08984375 61.4375 C58.86614167 60.26922845 66.41566252 56.36396998 73.38671875 47.9921875 C77.54547251 41.75405687 80.72402885 34.5349447 83.08984375 27.4375 C93.16548454 30.41063991 106.01807161 35.34582014 112.08984375 44.4375 C112.10530175 50.65161609 109.2974202 55.74809554 106.71484375 61.25 C87.53150035 103.79596522 76.67245251 152.10193337 76.77416992 198.72241211 C76.77732963 201.73653417 76.75376099 204.74967001 76.72851562 207.76367188 C76.67161607 224.86482115 78.19523806 241.65482544 83.02734375 258.125 C83.38602539 259.43114258 83.38602539 259.43114258 83.75195312 260.76367188 C85.26875448 266.13851151 87.16150063 271.15580643 89.51782227 276.22192383 C90.08984375 278.4375 90.08984375 278.4375 89.34326172 280.57470703 C72.76289367 305.21596302 31.87303628 315.17973681 4.77734375 320.6875 C-40.08941393 329.39012268 -91.66661484 328.79129249 -131.61328125 303.9921875 C-135.53448441 301.33803978 -139.24377725 298.43082392 -142.91015625 295.4375 C-141.74944313 292.38932095 -140.46772304 289.66058279 -138.78515625 286.875 C-136.12002489 281.55479438 -136.01103954 276.2543942 -136.91015625 270.4375 C-139.07702715 264.75753203 -142.5358459 261.28917488 -147.91015625 258.4375 C-156.0728171 254.88851702 -162.33617502 256.25663903 -170.296875 259.3671875 C-171.15925781 259.72039062 -172.02164062 260.07359375 -172.91015625 260.4375 C-174.57682292 261.10416667 -176.24348958 261.77083333 -177.91015625 262.4375 C-183.46260771 257.34775283 -186.97803883 251.8439501 -188.91015625 244.4375 C-188.93930631 242.77108827 -188.94381942 241.10382667 -188.91015625 239.4375 C-186.98429687 239.0353125 -186.98429687 239.0353125 -185.01953125 238.625 C-146.35386659 230.20146146 -114.60080756 208.91127062 -85.12109375 183.21484375 C-82.18652613 180.66003338 -79.18656116 178.19570817 -76.16015625 175.75 C-72.70588578 172.94937605 -69.3722573 170.07087332 -66.09765625 167.0625 C-62.18401807 163.48484984 -58.10995784 160.22688981 -53.91015625 157 C-34.70472944 142.07192232 -23.71545835 122.84860146 -17.91015625 99.4375 C-17.63429688 98.43847656 -17.3584375 97.43945312 -17.07421875 96.41015625 C-9.53970517 67.42838867 -11.30560375 33.74786217 -20.91015625 5.4375 C-21.22265625 2.6875 -21.22265625 2.6875 -20.91015625 0.4375 C-14.72502504 -3.68592081 -6.92554463 -1.36800882 0 0 Z " fill="#1891F6" transform="translate(531.91015625,643.5625)"/>
<path d="M0 0 C4.8205185 1.078656 9.65154593 2.10747875 14.48358154 3.13311768 C15.42105225 3.33221741 16.35852295 3.53131714 17.32440186 3.7364502 C27.51124755 5.87838479 37.67038766 7.37415941 48.03436279 8.32452393 C49.91574951 8.49709717 49.91574951 8.49709717 51.83514404 8.67315674 C56.82940338 9.12728829 61.82424207 9.5749846 66.8197937 10.01467896 C122.17402228 14.88933601 122.17402228 14.88933601 135.90936279 29.07452393 C139.87150039 32.82943675 143.79484794 33.27499509 149.08050537 34.06964111 C173.03954838 37.87805817 205.9432363 49.66657263 221.67108154 69.21905518 C229.92688275 81.96941865 229.63638077 98.66365166 226.59686279 113.07452393 C223.34667373 127.02484223 217.24444931 140.26950347 209.78436279 152.44952393 C209.18470703 153.43493164 209.18470703 153.43493164 208.57293701 154.44024658 C204.20684506 161.21446876 199.21589429 162.87440373 191.72186279 164.51202393 C165.60664269 170.1254773 140.83876548 161.69970894 116.01463318 154.13720703 C98.74674395 148.88249264 82.3812539 145.5197157 64.34686279 144.32452393 C54.6527329 143.67567008 45.46378352 142.77078507 36.03436279 140.32452393 C34.79299561 140.02159424 33.55162842 139.71866455 32.27264404 139.40655518 C-2.42217088 130.41176067 -37.64929285 111.19494006 -65.96563721 89.32452393 C-66.53395264 88.887854 -67.10226807 88.45118408 -67.68780518 88.00128174 C-76.70805583 80.98019563 -86.731749 72.80750536 -88.46563721 60.88702393 C-88.23201843 46.68819406 -71.71753293 31.56868039 -62.41143799 21.83770752 C-61.44108351 20.82212882 -60.4759587 19.80152947 -59.51593018 18.77618408 C-52.34774886 11.13347923 -44.9324433 4.80941441 -35.96563721 -0.67547607 C-35.09680908 -1.25168701 -34.22798096 -1.82789795 -33.33282471 -2.42156982 C-22.65938101 -6.39625129 -10.68041388 -2.39960756 0 0 Z " fill="#1891F6" transform="translate(384.96563720703125,39.67547607421875)"/>
<path d="M0 0 C19.91980835 18.70783873 29.22319892 49.31265517 30.18359375 75.921875 C30.85059278 117.102989 19.40673418 155.37842769 -9.1875 185.75 C-9.73792969 186.36488281 -10.28835938 186.97976563 -10.85546875 187.61328125 C-24.7258623 202.51111136 -47.6974497 213.69847944 -68.1315918 214.92700195 C-91.15041996 215.36034223 -108.49523169 212.78635017 -129.56738281 203.84960938 C-134.16533124 201.91994485 -138.80374039 200.09156928 -143.4375 198.25 C-145.13038 197.573346 -146.82310496 196.89630388 -148.515625 196.21875 C-150.33320312 195.49171875 -150.33320312 195.49171875 -152.1875 194.75 C-150.71635142 189.16096077 -149.16656347 183.61891303 -147.39013672 178.11767578 C-141.64915601 160.24662904 -135.85358023 141.51489748 -143.21484375 123.23046875 C-144.25005704 120.59046699 -145.02837216 118.59279744 -145.1875 115.75 C-144.07258434 113.41398623 -142.949688 111.40908857 -141.5625 109.25 C-125.4389268 82.3213569 -123.18484712 48.02791406 -130.55664062 17.91162109 C-132.03351685 12.14809736 -133.81170395 6.7203574 -136.453125 1.38671875 C-137.1875 -0.25 -137.1875 -0.25 -137.1875 -2.25 C-97.20291289 -19.19998801 -36.27354378 -31.06812587 0 0 Z " fill="#FDFEFE" transform="translate(751.1875,87.25)"/>
<path d="M0 0 C8.94230699 1.16008307 16.519459 8.72185058 22.09765625 15.41796875 C46.21848871 48.15692205 45.22070749 93.88487491 45.0625 132.6875 C45.05746834 134.86523333 45.05290842 137.0429678 45.04882812 139.22070312 C45.03796971 144.4804943 45.02136715 149.74024154 45 155 C46.28841105 154.39226961 47.57280948 153.77602775 48.85546875 153.15625 C49.57114014 152.81400391 50.28681152 152.47175781 51.02416992 152.11914062 C55.67414084 149.48532539 57.2053009 144.97976859 58.75 140.125 C61.57578481 127.94648176 60.76619481 114.28057326 59 102 C58.80617327 98.22875851 58.76960122 94.46318511 58.75 90.6875 C58.729375 89.70587891 58.70875 88.72425781 58.6875 87.71289062 C58.63915476 78.58168272 59.89051478 70.16564786 66.390625 63.34375 C69.6175107 60.64945708 72.56915168 60 76.6875 60 C79 61 79 61 80.6875 63.6875 C81.120625 64.780625 81.55375 65.87375 82 67 C82.52980469 68.31291016 82.52980469 68.31291016 83.0703125 69.65234375 C84.22850229 73.82280026 84.25573225 77.57277739 84.1875 81.875 C84.1865332 83.02162109 84.1865332 83.02162109 84.18554688 84.19140625 C84.15272252 88.48775015 83.81362273 92.61060353 83.22924805 96.87353516 C79.32106541 133.12515473 88.8557729 172.40922781 98.4375 207.1875 C109.12110817 246.16061128 122.70303057 295.90189093 102.625 333.9375 C99.79784251 338.58148283 96.50068447 342.84730334 93 347 C92.47019531 347.63808594 91.94039062 348.27617188 91.39453125 348.93359375 C89.875 350.625 89.875 350.625 87 353 C82.38785521 352.73831803 78.4214679 350.44171078 74.375 348.375 C73.3077771 347.82996826 73.3077771 347.82996826 72.21899414 347.27392578 C60.38034152 341.14923918 51.12995065 333.83580047 41.61669922 324.56542969 C40.33837447 323.32764378 39.03480784 322.11593034 37.72265625 320.9140625 C12.10116431 296.97178039 -4.91252109 260.49339225 -20.1875 229.625 C-26.59701697 216.67965472 -33.35513572 204.05739814 -41.125 191.875 C-52.96130971 173.24641981 -61.42794649 154.49787495 -57.3515625 131.96484375 C-55.62637776 124.25275551 -55.62637776 124.25275551 -54 121 C-46.8613675 121.29744302 -42.48790137 124.3418376 -37.60961914 129.45825195 C-33.60274663 133.93621754 -30.57909114 138.75937164 -27.5625 143.9375 C-21.07825691 154.7064996 -15.57622295 162.90501732 -3 167 C-0.22410563 166.74839082 -0.22410563 166.74839082 2 166 C2.98232485 162.1421424 3.80351768 158.6193028 1.9765625 154.9375 C0.40033859 152.86922735 -1.25728513 150.93010356 -3 149 C-18.20626403 131.59764533 -20.3720663 107.15564464 -20.31567383 84.91821289 C-20.31252584 82.33371248 -20.33601777 79.75037461 -20.36132812 77.16601562 C-20.40417245 65.8325111 -19.27137085 55.09766817 -17 44 C-16.84567505 43.24175934 -16.6913501 42.48351868 -16.53234863 41.70230103 C-13.40730709 26.53103357 -8.29030188 13.17127843 0 0 Z " fill="#FDFEFE" transform="translate(102,874)"/>
<path d="M0 0 C14.06658323 15.91744945 14.32965619 46.32032924 13.52734375 66.37011719 C12.04186665 88.96650928 1.57895589 110.42670571 -12.625 127.6875 C-13.04555664 128.20812012 -13.46611328 128.72874023 -13.89941406 129.26513672 C-24.38394562 142.19914493 -36.17731636 154.21315977 -48.78466797 165.08129883 C-50.94393886 166.9658628 -53.01420576 168.92918475 -55.08569336 170.90893555 C-67.06731136 182.29632551 -80.39742734 192.27502244 -94.625 200.6875 C-95.21458496 201.03651367 -95.80416992 201.38552734 -96.41162109 201.74511719 C-108.78977134 208.95601277 -121.7551112 213.73106646 -135.6875 217 C-136.34596924 217.15952148 -137.00443848 217.31904297 -137.68286133 217.48339844 C-145.22158524 219.11836765 -152.94267752 219.30306008 -160.625 219.6875 C-161.38512382 173.15330438 -158.10075627 130.41418276 -135.625 88.6875 C-135.30418457 88.08067383 -134.98336914 87.47384766 -134.65283203 86.84863281 C-127.67571731 73.71649104 -118.82900457 62.47557217 -108.625 51.6875 C-107.81804687 50.81609375 -107.01109375 49.9446875 -106.1796875 49.046875 C-84.613524 26.51506239 -56.52894368 14.905673 -27.625 4.6875 C-26.66223145 4.34009766 -25.69946289 3.99269531 -24.70751953 3.63476562 C-22.22679637 2.74092567 -19.7409813 1.86478051 -17.25 1 C-16.56172119 0.75580322 -15.87344238 0.51160645 -15.16430664 0.26000977 C-9.98305722 -1.46924936 -5.02933286 -2.51466643 0 0 Z " fill="#1891F6" transform="translate(494.625,645.3125)"/>
<path d="M0 0 C0.93944458 -0.00006042 1.87888916 -0.00012085 2.84680176 -0.00018311 C20.53753853 0.01580407 38.1590957 0.63737985 55.81059265 1.79747009 C60.47399455 2.09907931 65.12846692 2.28990222 69.80078125 2.4140625 C71.97138253 2.50453031 74.14195804 2.59561983 76.3125 2.6875 C77.25770508 2.69120605 78.20291016 2.69491211 79.17675781 2.69873047 C81.8785765 2.8489439 83.78689055 3.05812418 86.25 4.1875 C91.09879938 9.83263051 93.23534358 15.80311364 93.7734375 23.15234375 C92.93802448 26.40047946 91.00011539 27.39638007 88.25 29.1875 C85.19140625 30.34765625 85.19140625 30.34765625 81.8125 31.25 C80.58273437 31.58 79.35296875 31.91 78.0859375 32.25 C74.38137044 33.15539317 70.67082656 33.97256106 66.9375 34.75 C55.68462035 36.99814504 55.68462035 36.99814504 46.25 43.1875 C46.92774473 46.19797247 46.92774473 46.19797247 48.8828125 47.359375 C56.20880387 49.92226307 65.84855173 48.36878112 73.375 47.1875 C89.86139258 44.62830745 103.9506792 47.33089476 118.25 56.1875 C126.19380143 62.3891436 135.02210031 70.24298902 136.640625 80.71484375 C136.87899601 86.37615518 136.10759 89.80861405 132.25 94.1875 C122.1168861 104.03109636 108.90154176 103.46187317 95.7421875 103.34375 C89.43808121 103.21548741 83.42160654 102.47031809 77.25 101.1875 C75.31969548 100.79866168 73.38938009 100.40987497 71.45874023 100.02270508 C69.62131 99.64963093 67.78707645 99.26090942 65.953125 98.87109375 C58.13896958 97.42860725 50.43843686 96.98279779 42.5 96.9375 C41.58089844 96.916875 40.66179687 96.89625 39.71484375 96.875 C34.72066379 96.84609013 31.32346131 96.93557711 27.25 100.1875 C30.70827906 103.14789145 33.98067898 105.16729133 38.14453125 106.9921875 C39.26537109 107.49363281 40.38621094 107.99507812 41.54101562 108.51171875 C43.87597606 109.53998197 46.21190503 110.56604887 48.54882812 111.58984375 C57.15672389 115.44736495 64.70254549 119.32860611 70.25 127.1875 C66.01780638 133.53579043 60.50833575 136.91634333 53.25 139.1875 C35.86579787 141.75701785 19.38631441 135.99700871 3.17749023 130.5222168 C-5.80335292 127.57780594 -14.61660923 125.70405934 -24.02319336 124.76782227 C-30.1564498 124.02117902 -33.0965189 122.61722195 -37.17358398 117.95703125 C-47.02234702 106.90176805 -64.91659862 101.10024923 -78.3125 95.6875 C-98.86691964 87.3629482 -117.36353322 78.18332207 -126.71875 56.91015625 C-127.75 54.1875 -127.75 54.1875 -127.75 52.1875 C-127.09515625 52.11273437 -126.4403125 52.03796875 -125.765625 51.9609375 C-115.52207081 50.48517122 -105.72990366 46.89171299 -99.20703125 38.49609375 C-93.49351285 29.44330723 -91.49665998 19.58225694 -89.75 9.1875 C-77.16033124 4.62414963 -63.5005279 3.35635607 -50.25 2.0625 C-49.48196045 1.98700928 -48.7139209 1.91151855 -47.92260742 1.83374023 C-31.9746486 0.3895504 -16.00543049 -0.01604179 0 0 Z " fill="#FDFEFE" transform="translate(680.75,1126.8125)"/>
<path d="M0 0 C10.13704176 4.03203683 15.86666903 18.75721548 19.9921875 28.06640625 C28.11838524 47.40311488 30.57293307 68.00968493 30.375 88.8125 C30.37034729 89.68807556 30.36569458 90.56365112 30.36090088 91.46575928 C30.20630769 116.3144905 27.08781552 141.39076723 16 164 C15.71930664 164.58297852 15.43861328 165.16595703 15.14941406 165.76660156 C7.78022166 180.91828498 -2.12042798 195.07073221 -18 202 C-40.33745275 170.23117831 -41.30210538 130.23468313 -35 93 C-29.19423863 60.42231932 -18.46857846 27.70286768 0 0 Z " fill="#1891F6" transform="translate(652,711)"/>
<path d="M0 0 C4.35549639 3.77476354 5.66839854 7.32973562 6.37109375 12.98828125 C6.60540633 24.71769321 6.95888827 44.35635324 -1.62890625 53.32421875 C-4.36637045 55.28738144 -6.99874176 56.83512461 -10.09179688 58.16699219 C-12.08826646 59.03853188 -13.9755629 60.03290796 -15.890625 61.0703125 C-32.0190587 69.55139271 -50.0172011 73.73002307 -68 76 C-68.70793701 76.0942627 -69.41587402 76.18852539 -70.14526367 76.28564453 C-78.38242142 77.25656096 -86.65505853 77.24265932 -94.9375 77.25 C-95.72934692 77.25100708 -96.52119385 77.25201416 -97.33703613 77.25305176 C-112.05370488 77.24048162 -126.4318456 76.15237475 -141 74 C-142.01416992 73.85546387 -143.02833984 73.71092773 -144.07324219 73.56201172 C-178.98230258 68.50540576 -215.61303824 59.49416868 -247 43 C-247 42.67 -247 42.34 -247 42 C-239.04986447 41.79197598 -231.21823302 42.51270735 -223.31072998 43.22543335 C-186.85842905 46.48273139 -150.4809228 47.26875525 -114 44 C-112.28296875 43.84724609 -112.28296875 43.84724609 -110.53125 43.69140625 C-95.38047836 42.28405246 -80.70893541 39.91049122 -66 36 C-65.13117188 35.76909668 -64.26234375 35.53819336 -63.3671875 35.30029297 C-38.94920751 28.67190474 -17.67834677 18.5672022 0 0 Z " fill="#1891F6" transform="translate(590,215)"/>
<path d="M0 0 C1.07040527 0.17740723 2.14081055 0.35481445 3.24365234 0.53759766 C22.37212212 3.78302374 41.35476101 7.88299094 60.34545898 11.84074783 C62.30999683 12.2494792 64.27494421 12.65618896 66.23999023 13.06246948 C69.949258 13.83153068 73.65649986 14.60967888 77.36328125 15.390625 C78.49308914 15.62376907 79.62289703 15.85691315 80.78694153 16.09712219 C81.82573959 16.31805038 82.86453766 16.53897858 83.93481445 16.76660156 C84.84423294 16.95724182 85.75365143 17.14788208 86.69062805 17.34429932 C89 18 89 18 92 20 C64.91070245 32.89031792 36.65306428 38.81567088 6.88256836 41.71777344 C5.07984628 41.89427439 3.27823386 42.08303071 1.47875977 42.29003906 C-7.80117507 43.29114175 -17.11434335 43.24389033 -26.4375 43.25 C-27.83452148 43.25101212 -27.83452148 43.25101212 -29.25976562 43.25204468 C-104.49971367 43.16676211 -104.49971367 43.16676211 -132 34 C-130.5700679 29.38021938 -127.94670299 26.44224169 -124.5625 23.125 C-124.02753906 22.5976123 -123.49257813 22.07022461 -122.94140625 21.52685547 C-118.08015392 16.861945 -112.91367449 13.24002729 -107 10 C-106.04351562 9.46761719 -105.08703125 8.93523437 -104.1015625 8.38671875 C-73.54296699 -7.77484816 -33.15956969 -5.58449672 0 0 Z " fill="#1891F6" transform="translate(467,202)"/>
<path d="M0 0 C0.99 0.66 1.98 1.32 3 2 C3.86328703 8.92591639 0.53506971 14.26970498 -3 20 C-6.86635901 24.82663118 -11.60839976 28.49508277 -16.4375 32.3125 C-22.19167297 36.95372594 -26.47695005 42.18984419 -31 48 C-31.99306786 49.20020879 -32.9907309 50.39662559 -33.9921875 51.58984375 C-41.15790168 60.16301174 -47.62849818 69.04089497 -53.83203125 78.33203125 C-56.08825047 81.70001066 -58.43422555 84.98425212 -60.8359375 88.25 C-64.95117761 93.87202246 -68.82711445 99.6408756 -72.66607666 105.45306396 C-74.63909172 108.43805938 -76.62307807 111.41575786 -78.60546875 114.39453125 C-79.37418773 115.55029195 -80.14290523 116.70605363 -80.91162109 117.86181641 C-93.48588802 136.75702649 -106.83262794 155.08450676 -122 172 C-122.51046875 172.57218262 -123.0209375 173.14436523 -123.546875 173.73388672 C-129.35687505 180.22160026 -135.19483276 186.53489138 -142 192 C-142.55042969 192.44682129 -143.10085937 192.89364258 -143.66796875 193.35400391 C-145.56403609 194.88983833 -147.46780555 196.41550959 -149.375 197.9375 C-150.30481689 198.68410889 -150.30481689 198.68410889 -151.25341797 199.44580078 C-155.76619281 203 -155.76619281 203 -158 203 C-162.80454431 189.50866798 -163.51906514 179.41986969 -158 166 C-150.77854045 151.69444562 -137.66534809 140.51608969 -126.32861328 129.42456055 C-120.12676223 123.34729588 -114.33043317 117.18957669 -108.90771484 110.38647461 C-106.66576967 107.58189129 -104.31432581 104.94614499 -101.875 102.3125 C-99.04748746 99.23703636 -96.23783819 96.15558345 -93.5 93 C-92.94828125 92.36964844 -92.3965625 91.73929688 -91.828125 91.08984375 C-90.45839429 89.52401911 -89.09482247 87.95280323 -87.734375 86.37890625 C-81.96466497 79.83808717 -75.83640982 74.3902462 -69 69 C-67.03741608 67.35923763 -65.07917744 65.71326568 -63.125 64.0625 C-59.51327899 61.03482185 -55.86425661 58.11810393 -52.08813477 55.29956055 C-37.70334121 44.51894393 -29.15991369 33.3051328 -21.8125 17.0625 C-17.33357431 7.16551904 -12.29924876 -1.41914409 0 0 Z " fill="#FBFCFE" transform="translate(379,909)"/>
<path d="M0 0 C8.08160563 6.64487574 13.94315831 14.85978036 15.03735352 25.4987793 C15.67136017 38.63734807 14.66559443 48.815693 5.8046875 59.12890625 C5.14726563 59.84949219 4.48984375 60.57007813 3.8125 61.3125 C3.19632813 62.08464844 2.58015625 62.85679687 1.9453125 63.65234375 C-3.02444492 68.83144993 -7.558321 69.78802553 -14.49584961 70.00854492 C-23.60145385 69.98317304 -32.6009576 69.59975716 -41.1875 66.3125 C-41.92742188 66.0340625 -42.66734375 65.755625 -43.4296875 65.46875 C-50.8563859 62.21781787 -55.64584407 57.08354498 -59.125 49.8125 C-62.52427076 40.87118385 -62.84438806 30.32105557 -59.22265625 21.359375 C-52.75391561 8.56835577 -42.95629076 1.29237772 -29.8125 -4.0625 C-19.23721767 -5.88582454 -9.51645422 -5.03812282 0 0 Z " fill="#105AD3" transform="translate(739.1875,118.6875)"/>
<path d="M0 0 C8.85923679 39.92702917 10.31743252 79.03820423 10.1373291 119.78051758 C10.11648885 125.01121353 10.10765569 130.24193033 10.09765625 135.47265625 C10.07651197 145.64849024 10.04259825 155.8242347 10 166 C8 165 8 165 7.11791992 162.69702148 C6.82506104 161.68196533 6.53220215 160.66690918 6.23046875 159.62109375 C5.90143555 158.48454346 5.57240234 157.34799316 5.23339844 156.17700195 C4.88825195 154.94296631 4.54310547 153.70893066 4.1875 152.4375 C3.65237793 150.53713989 3.65237793 150.53713989 3.10644531 148.59838867 C-0.16438008 136.84007294 -2.8054124 125.00451367 -5 113 C-5.18014648 112.03126953 -5.36029297 111.06253906 -5.54589844 110.06445312 C-10.4615672 83.16605587 -12.27547537 56.54762829 -12.25 29.25 C-12.24931519 28.17950409 -12.24863037 27.10900818 -12.2479248 26.006073 C-12.24145386 22.94663895 -12.22512437 19.88748381 -12.203125 16.828125 C-12.19873413 15.90872635 -12.19434326 14.9893277 -12.18981934 14.04206848 C-12.14404722 9.90648455 -12.04192394 6.0319742 -11 2 C-7.1389146 0.56331706 -4.103573 -0.11185208 0 0 Z " fill="#F9FBFE" transform="translate(560,978)"/>
<path d="M0 0 C0.01401855 1.0058313 0.01401855 1.0058313 0.02832031 2.03198242 C0.08216596 5.08455567 0.16578495 8.13561982 0.25 11.1875 C0.26417969 12.24259766 0.27835938 13.29769531 0.29296875 14.38476562 C0.46945936 20.47079062 0.46945936 20.47079062 2.671875 26.05078125 C7.39030146 30.00127589 12.50453299 31.58142884 18.375 33.1875 C19.62023437 33.53167969 20.86546875 33.87585938 22.1484375 34.23046875 C23.55996094 34.61138672 23.55996094 34.61138672 25 35 C19.14183617 42.48543156 19.14183617 42.48543156 13.51953125 43.40625 C6.01546407 43.66613111 1.60420135 41.98151231 -4 37 C-10.61571781 30.3987586 -13.89119172 24.44363099 -14.3125 15.0625 C-14.24103849 10.2531403 -13.35558449 7.61370638 -10 4 C-6.78723642 1.66344467 -4.07761772 0 0 0 Z " fill="#FAFBFE" transform="translate(707,130)"/>
<path d="M0 0 C0.66 0.33 1.32 0.66 2 1 C-1.63 4.63 -5.26 8.26 -9 12 C-9 8.00102358 -7.64683965 6.93298448 -5 4 C-3.36643049 2.62631655 -1.7074998 1.28062485 0 0 Z " fill="#4B82DE" transform="translate(540,1141)"/>
<path d="M0 0 C0.66 0.33 1.32 0.66 2 1 C-1.63 4.63 -5.26 8.26 -9 12 C-9 7.8407692 -6.75316432 5.85455565 -4 3 C-1.6875 1.125 -1.6875 1.125 0 0 Z " fill="#457EDD" transform="translate(592,542)"/>
</svg>
