<?xml version="1.0" encoding="UTF-8"?>
<svg version="1.1" xmlns="http://www.w3.org/2000/svg" width="730" height="739">
<path d="M0 0 C2.69990662 1.79993774 4.5418865 3.083773 6 6 C6.31787855 11.72181393 6.21424892 17.38409876 5 23 C6.36125 22.5359375 6.36125 22.5359375 7.75 22.0625 C15.77451191 19.80459078 25.13549502 18.68693655 33 22 C35.65619365 24.21349471 37.45969742 25.91939484 39 29 C39.34338976 34.17230824 38.3917957 38.13135893 35.125 42.1875 C31.38618162 46.08989169 27.08267814 48.42016516 22.2578125 50.7734375 C19.86404192 51.79486778 19.86404192 51.79486778 19 54 C19.73861556 56.95446226 20.55456599 59.83801832 21.4375 62.75 C21.99956509 64.66603165 22.55932726 66.58273987 23.1171875 68.5 C23.42108398 69.54285156 23.72498047 70.58570312 24.03808594 71.66015625 C29.58625479 90.92384911 34.51941128 110.24977638 38 130 C38.20238281 131.13566406 38.40476562 132.27132812 38.61328125 133.44140625 C41.45516303 159.59245979 37.4880357 184.12097066 21 205 C16.48328252 210.47664625 11.39538918 213.7637267 5.16015625 217.12890625 C2.69078658 218.8572009 2.69078658 218.8572009 2.55859375 221.9765625 C2.97851393 224.85282991 3.48160665 226.3925606 5 228.8125 C7.36557151 233.23104964 7.89650077 237.06009779 7 242 C4.61802561 246.94717759 2.13440335 249.12396801 -3 251 C-9.03760219 252.36332953 -13.59814872 252.26286319 -19 249 C-21.50895885 246.204303 -22.79717546 243.58081572 -24.03125 240.046875 C-25.85603396 234.05712014 -25.85603396 234.05712014 -30.0390625 229.8046875 C-31.57754408 229.38702412 -33.12531425 229.00240369 -34.6796875 228.6484375 C-43.70021462 226.12754945 -48.19289205 216.30054779 -52.65625 208.84765625 C-55.16586372 204.66598192 -57.97310864 200.82344172 -61 197 C-61.18175781 198.16015625 -61.36351562 199.3203125 -61.55078125 200.515625 C-61.8033627 202.09396258 -62.0573691 203.67207252 -62.3125 205.25 C-62.44567627 206.07395264 -62.57885254 206.89790527 -62.71606445 207.74682617 C-63.48420376 212.35341203 -64.41574734 216.81291797 -65.6875 221.3125 C-67.44493791 228.17125767 -69.08679731 235.89141464 -65.74609375 242.46875 C-63.96333158 244.81819063 -62.07002375 246.89953472 -60 249 C-37.18489747 272.79289264 -31.38644327 303.82123518 -31.72265625 335.83203125 C-32.16881312 352.65947027 -36.69546294 366.34754131 -46.01953125 380.37890625 C-48.87537033 385.10071191 -48.49189207 390.66113256 -47.39453125 395.87890625 C-46.1880871 405.4229545 -52.56719547 418.19379477 -58.26708984 425.65966797 C-60.70982802 428.64391242 -63.26106899 431.5246589 -65.83203125 434.3984375 C-69.49449915 438.50228837 -72.84585132 442.82735081 -76.1706543 447.20654297 C-79.18401965 451.12502815 -82.36601735 454.63932524 -86 458 C-86.66 458 -87.32 458 -88 458 C-86.54091172 452.42575855 -83.77759516 448.45715099 -80.4375 443.875 C-79.63820068 442.75665771 -79.63820068 442.75665771 -78.82275391 441.61572266 C-76.36261338 438.18949283 -73.86638136 434.79875148 -71.27734375 431.46875 C-70.48457031 430.4478125 -69.69179688 429.426875 -68.875 428.375 C-68.17117188 427.49585938 -67.46734375 426.61671875 -66.7421875 425.7109375 C-64.66187396 422.47385769 -63.89265526 419.72706579 -63 416 C-67.78621722 414.95805664 -72.12331312 414.33928758 -77 415 C-79.84384962 417.48080499 -81.46600789 419.91304076 -83.3515625 423.16796875 C-84.99533768 425.99199009 -86.45454102 427.95680592 -89 430 C-90.32 430 -91.64 430 -93 430 C-91.19166211 424.51537079 -87.68348297 420.96946353 -83.8984375 416.71875 C-81.82925814 414.1680696 -81.82925814 414.1680696 -81.5390625 411.28125 C-81.79626909 408.62614197 -81.79626909 408.62614197 -85 407 C-88.63939932 407.31730524 -88.63939932 407.31730524 -92 408 C-91.0155183 402.68899587 -89.37604535 397.68477487 -87.6875 392.5625 C-87.39166016 391.63373047 -87.09582031 390.70496094 -86.79101562 389.74804688 C-82.84358461 377.76934154 -82.84358461 377.76934154 -77.1875 374.25 C-74 373 -74 373 -70.25 372 C-66.74001239 371.29482255 -66.74001239 371.29482255 -65 368 C-64.39120654 365.42792044 -63.87614902 362.91370319 -63.4375 360.3125 C-63.30964111 359.55646484 -63.18178223 358.80042969 -63.05004883 358.02148438 C-59.2451011 334.4204916 -61.36439067 311.79455089 -73.8984375 290.96875 C-75 289 -75 289 -75 287 C-75.66 287 -76.32 287 -77 287 C-77.1865918 288.53116455 -77.1865918 288.53116455 -77.37695312 290.09326172 C-78.3701064 296.32070636 -80.49051124 302.16372531 -82.5 308.125 C-82.83463257 309.12342926 -82.83463257 309.12342926 -83.17602539 310.14202881 C-87.17848764 322.03997879 -91.6651986 333.6316038 -97 345 C-97.59530518 346.27109619 -97.59530518 346.27109619 -98.20263672 347.56787109 C-105.29855831 362.55628144 -113.24542499 376.64175729 -123.67675781 389.56518555 C-127.51442908 394.32327937 -131.12341608 399.22175224 -134.6875 404.1875 C-135.24123291 404.95755371 -135.79496582 405.72760742 -136.36547852 406.52099609 C-138.68418739 409.75170499 -140.9923302 412.98913117 -143.28515625 416.23828125 C-148.44606574 423.49228326 -153.97526182 430.53138661 -160.7421875 436.36328125 C-163.62293589 439.72747703 -163.50855787 441.44007244 -163.4375 445.8125 C-163.64259893 452.78586367 -165.16278017 458.16055144 -167.91772461 464.54418945 C-169.61256107 468.53890408 -170.56488994 471.6589436 -170 476 C-168.84245459 477.96980338 -168.84245459 477.96980338 -167.1875 479.625 C-161.00193045 487.43373319 -160.73661233 496.5817527 -160.625 506.1875 C-160.61098145 507.01862305 -160.59696289 507.84974609 -160.58251953 508.70605469 C-160.63101072 514.97509497 -161.43518907 521.45336364 -165.20410156 526.66503906 C-168.07293197 529.48654856 -170.67942015 530.33847422 -174.5625 530.5 C-179.33724345 530.18008419 -182.00779914 529.05445713 -185.375 525.58203125 C-190.47135897 519.02336474 -189.89403645 510.93763304 -190 503 C-195.24592553 503.68534831 -197.77724063 505.75568765 -201.35009766 509.52978516 C-204.33388404 513.99707587 -203.87670325 518.48059439 -203.6875 523.6875 C-203.82527573 552.72214517 -216.12602415 579.92531706 -228 606 C-228.33741211 606.7434668 -228.67482422 607.48693359 -229.02246094 608.25292969 C-232.94082169 616.77393078 -237.29400759 624.05348209 -243.07421875 631.4609375 C-246.51226589 635.99385969 -248.34521577 639.50436383 -247.6875 645.3125 C-247.57535156 646.075625 -247.46320313 646.83875 -247.34765625 647.625 C-245.83102129 657.98583211 -248.00536734 666.13691013 -253.9375 674.84375 C-262.06259183 685.30788342 -262.06259183 685.30788342 -267.10546875 686.49609375 C-274.21298055 686.29606997 -281.02022253 684.98651832 -287 681 C-287.64695477 678.92293469 -288.29069281 676.84481157 -288.91796875 674.76171875 C-290.24162517 671.38328883 -292.04216622 668.55307535 -294 665.5 C-301.8381895 653.06302035 -301.8381895 653.06302035 -300.4375 645.25 C-299.02974744 640.45197944 -297.29397992 637.38834911 -292.90234375 634.73046875 C-287.62879521 631.96415407 -282.18559291 629.87584047 -276.54296875 627.9921875 C-270.3537854 625.5773602 -267.66751497 622.55221734 -264.5625 616.75 C-264.17489502 616.04125732 -263.78729004 615.33251465 -263.38793945 614.60229492 C-259.6476217 607.61121355 -256.66225459 600.46729945 -254 593 C-253.5978125 591.8759375 -253.195625 590.751875 -252.78125 589.59375 C-250.38097723 582.39293169 -249.27317647 575.58064696 -249 568 C-249.79664063 567.65388672 -249.79664063 567.65388672 -250.609375 567.30078125 C-255.11392159 565.22112744 -258.66542527 563.57187551 -261 559 C-261.81267251 552.56113321 -260.84880386 546.50711735 -259.453125 540.2265625 C-258.88036458 537.4121363 -258.72108635 534.85886493 -259 532 C-259.66 531.01 -260.32 530.02 -261 529 C-264.20804158 528.56137682 -264.20804158 528.56137682 -267.9375 528.5625 C-281.06388401 528.00016446 -291.44840169 523.0644231 -300.4453125 513.36328125 C-301.94047479 511.62737249 -303.43161295 509.88798643 -304.91796875 508.14453125 C-307.74094996 505.23680764 -310.15436278 504.14550896 -314 503 C-315.27514289 507.86148226 -316.11090706 512.09619537 -315.9375 517.125 C-315.89013771 523.01617804 -316.75542878 528.44287968 -318 534.1875 C-318.22002686 535.21488281 -318.44005371 536.24226562 -318.66674805 537.30078125 C-323.71785724 559.82780333 -331.31388981 584.953527 -348.38671875 601.3828125 C-351.53003318 604.53373786 -353.74646604 607.37013883 -354.4375 611.8125 C-354.05101569 614.62831429 -353.42423871 616.68119678 -352.4375 619.3125 C-350.42653915 625.05672788 -350.69152934 629.66424218 -352.91015625 635.3203125 C-356.23334848 641.96669696 -361.06134794 646.67720519 -367.4375 650.4375 C-374.50170448 651.98817903 -379.92141646 651.3099092 -386.3046875 647.828125 C-392.34328823 643.73237841 -398.39016372 638.54487967 -402.72265625 632.66015625 C-403.14417969 632.11230469 -403.56570313 631.56445312 -404 631 C-404.66 631 -405.32 631 -406 631 C-406.28875 631.7321875 -406.5775 632.464375 -406.875 633.21875 C-412.52326181 647.18250835 -421.81493956 658.10149329 -432 669 C-432 664.94806045 -430.07665507 662.37972094 -428.0703125 658.9921875 C-424.61018352 653.00012272 -421.41146667 646.93915647 -418.4296875 640.6953125 C-417.86680023 639.51941559 -417.86680023 639.51941559 -417.2925415 638.31976318 C-415.76195648 635.11136006 -414.23987698 631.89902837 -412.72412109 628.68359375 C-400.20509307 602.18897138 -400.20509307 602.18897138 -391 597 C-389.13503821 596.55928857 -387.25844728 596.16596196 -385.375 595.8125 C-381.34662448 594.8762275 -381.34662448 594.8762275 -378.59228516 591.97924805 C-378.24472168 591.12371338 -377.8971582 590.26817871 -377.5390625 589.38671875 C-377.12994629 588.39502686 -376.72083008 587.40333496 -376.29931641 586.3815918 C-375.87054199 585.2656665 -375.44176758 584.14974121 -375 583 C-374.2891626 581.17432495 -374.2891626 581.17432495 -373.56396484 579.31176758 C-371.99460968 575.22512461 -370.49001393 571.11613575 -369 567 C-368.73576233 566.27211273 -368.47152466 565.54422546 -368.19927979 564.79428101 C-364.17929845 553.6817493 -360.38280827 542.5965314 -358 531 C-357.75894531 529.82953125 -357.51789063 528.6590625 -357.26953125 527.453125 C-355.18490858 515.30914865 -354.95188269 502.1740093 -357 490 C-357.433125 491.670625 -357.433125 491.670625 -357.875 493.375 C-359 497 -359 497 -361 499 C-361.79019531 498.97035156 -362.58039063 498.94070313 -363.39453125 498.91015625 C-366.03699259 498.75796357 -366.03699259 498.75796357 -367.88671875 500.37109375 C-372.82792282 506.04115221 -376.56167317 512.10360809 -380.2746582 518.60791016 C-384.66577996 526.27774747 -389.37354978 534.04164867 -396 540 C-396.66 540 -397.32 540 -398 540 C-396.67692468 532.07533011 -392.25308568 526.2207683 -387.4375 519.9375 C-383.15065482 514.30744333 -379.75550788 509.52570345 -378.25 502.5 C-379.38221492 497.21633039 -382.82540199 494.27262941 -387 491 C-387.99 490.67 -388.98 490.34 -390 490 C-390.34256836 490.67579102 -390.68513672 491.35158203 -391.03808594 492.04785156 C-392.60074985 495.1193672 -394.17522305 498.18467836 -395.75 501.25 C-396.28882813 502.31347656 -396.82765625 503.37695312 -397.3828125 504.47265625 C-397.91132813 505.49746094 -398.43984375 506.52226563 -398.984375 507.578125 C-399.70705566 508.99206543 -399.70705566 508.99206543 -400.44433594 510.43457031 C-402.03030132 513.04996959 -403.75311254 514.93964659 -406 517 C-406.99 516.67 -407.98 516.34 -409 516 C-408.52373169 515.00987915 -408.52373169 515.00987915 -408.0378418 513.99975586 C-406.58620762 510.97973195 -405.13683682 507.95862706 -403.6875 504.9375 C-403.18798828 503.89916016 -402.68847656 502.86082031 -402.17382812 501.79101562 C-400.77155996 498.86575422 -399.38420606 495.93384033 -398 493 C-397.66178223 492.30793457 -397.32356445 491.61586914 -396.97509766 490.90283203 C-395.20754238 487.12768312 -394.6958097 484.1572674 -395 480 C-395.4125 481.02738281 -395.825 482.05476563 -396.25 483.11328125 C-402.29272105 497.7790806 -409.83392046 510.53265425 -424.8125 517.5 C-432.3266107 520.19889735 -440.30372262 519.58527973 -448 518 C-450.33301986 517.96175377 -452.66711508 517.95425716 -455 518 C-455.07476562 518.61746094 -455.14953125 519.23492188 -455.2265625 519.87109375 C-456.41394122 527.51920962 -459.0503197 533.89473411 -465.265625 538.78125 C-468.80247819 540.35767599 -471.11593419 540.03137832 -474.9375 539.5625 C-480.07402642 538.94209257 -483.14716913 539.35701543 -488 541 C-490.2928464 540.89892324 -492.58469892 540.7729259 -494.875 540.625 C-498.61567699 540.75774573 -498.61567699 540.75774573 -502 542 C-505.32692036 545.89845279 -506.90315088 550.3476236 -508.77832031 555.07861328 C-511.05022288 560.51138429 -513.72369228 565.76097534 -516.32226562 571.04312134 C-517.97797114 574.41959107 -519.61001952 577.80741794 -521.2421875 581.1953125 C-521.56306335 581.86075577 -521.88393921 582.52619904 -522.21453857 583.21180725 C-525.13855097 589.27924027 -528.03933188 595.35768652 -530.9375 601.4375 C-534.79891471 609.53179319 -538.74410694 617.57617885 -542.78515625 625.58203125 C-544.30274849 628.60257658 -545.80752845 631.6293971 -547.3125 634.65625 C-548.20341101 636.44577972 -549.09432283 638.23530904 -549.9854126 640.02474976 C-550.86109013 641.78454617 -551.73500282 643.54522041 -552.60888672 645.3059082 C-553.41737061 646.92758911 -553.41737061 646.92758911 -554.2421875 648.58203125 C-554.7254248 649.55374268 -555.20866211 650.5254541 -555.70654297 651.52661133 C-557 654 -557 654 -559 657 C-569.70827604 654.31748821 -580.14431459 650.75534451 -590.625 647.3125 C-594.46706433 646.05481582 -598.30972673 644.7989631 -602.15234375 643.54296875 C-603.09058487 643.23601074 -604.02882599 642.92905273 -604.99549866 642.61279297 C-615.97970959 639.02104778 -626.98576049 635.49854269 -638 632 C-633.53793643 617.08069 -623.18598682 604.29753481 -614 592 C-599.7223547 572.80467228 -586.27359161 554.55991496 -578.296875 531.80688477 C-576.16553436 525.95076572 -573.09662962 521.06363279 -569.703125 515.86328125 C-567.54222887 512.23039854 -566.65079764 509.14883494 -566 505 C-566.804375 504.773125 -567.60875 504.54625 -568.4375 504.3125 C-571 503 -571 503 -572.125 500.6875 C-572 498 -572 498 -569.8125 495.5 C-568.4203125 494.2625 -568.4203125 494.2625 -567 493 C-565.64444707 491.35135455 -564.30368347 489.68996005 -563 488 C-565.16687491 485.72478134 -567.45620509 483.84205838 -570 482 C-569.45660208 477.43545749 -568.20536179 474.0271824 -566 470 C-566.845625 469.195625 -567.69125 468.39125 -568.5625 467.5625 C-570.69577723 464.93740093 -571.45346481 463.14812965 -571.375 459.75 C-570.23427251 453.40066777 -565.84098009 448.97888774 -561 445 C-558.05127267 443.52785342 -555.23678583 442.59685413 -552 442 C-552.4125 441.57332031 -552.825 441.14664062 -553.25 440.70703125 C-563.17256327 429.96497057 -570.80021197 417.71130286 -570.35546875 402.73828125 C-568.95926155 391.98288296 -562.28712501 382.67712633 -554 376 C-543.66932415 369.20526597 -532.55317949 364.28944267 -520 365 C-520.165 364.175 -520.33 363.35 -520.5 362.5 C-521.79959422 353.40284048 -520.76572922 346.5022572 -515.4921875 338.796875 C-509.93573298 332.02575367 -502.77804167 326.46300694 -494 325 C-485.7136176 324.31126172 -479.26677356 324.79390884 -472 329 C-472.03480469 328.17757813 -472.06960938 327.35515625 -472.10546875 326.5078125 C-472.27709903 319.4301068 -472.32815574 312.43277863 -469 306 C-466.32244403 303.52671119 -465.27773934 303.03029884 -461.5625 302.625 C-457.80045685 303.02100454 -456.14414223 304.04553321 -453 306 C-450.31582506 305.76635724 -449.20563142 305.19781099 -447.25390625 303.3203125 C-440.48039478 294.52882648 -435.44419834 285.30130047 -436 274 C-436.30916035 272.57786237 -436.64405565 271.16115526 -437 269.75 C-439.33417535 259.76942652 -438.01901319 252.28581597 -433.375 243.25 C-432.88862061 242.26990967 -432.40224121 241.28981934 -431.90112305 240.2800293 C-426.252998 229.13556757 -419.72783736 218.5180766 -413 208 C-412.61247559 207.3915625 -412.22495117 206.783125 -411.82568359 206.15625 C-409.6227301 202.71916995 -407.32887663 199.35274311 -405 196 C-404.51096191 195.29375488 -404.02192383 194.58750977 -403.51806641 193.85986328 C-396.73298882 184.07165309 -389.84049511 174.36806006 -382.83642578 164.7355957 C-378.85769393 159.24164732 -375.00299704 153.67079432 -371.1875 148.0625 C-354.49656702 123.57527341 -336.24991784 104.2681428 -312.64404297 86.25732422 C-309.98420866 84.2231474 -307.33734622 82.17216179 -304.6875 80.125 C-303.04684852 78.86659259 -301.40498864 77.60977947 -299.76269531 76.35351562 C-298.53794461 75.41306993 -297.31614403 74.46877479 -296.09667969 73.52148438 C-276.83975882 58.56815757 -256.3331988 45.47764687 -231 48 C-227.57540393 48.82288855 -224.97063386 50.13715353 -222 52 C-221.10925781 52.49757812 -220.21851563 52.99515625 -219.30078125 53.5078125 C-213.34867702 56.99949711 -208.96651534 60.79185583 -204.65625 66.1796875 C-203.03442786 68.26012319 -203.03442786 68.26012319 -200 69 C-197.64974953 67.79129976 -195.52343426 66.38241192 -193.390625 64.82421875 C-181.81535622 56.83530462 -164.98705389 54.04297918 -151.21484375 56.49609375 C-144.27898605 58.39353859 -137.80989786 61.00235668 -134 67.3125 C-133.67 68.199375 -133.34 69.08625 -133 70 C-128.58110387 68.64978174 -126.65654657 66.73884332 -124 63 C-124.70125 62.88011719 -125.4025 62.76023438 -126.125 62.63671875 C-132.46332133 61.23298726 -139.76053865 58.96478538 -144.25 54.0625 C-146.28843325 50.49524181 -147.00247885 49.0099154 -146 45 C-141.06059471 38.48970188 -132.90179382 35.70213111 -125.08203125 34.58203125 C-114.08723919 34.04463719 -105.00212791 38.1101263 -96.640625 44.9609375 C-94.92756593 46.2991687 -94.92756593 46.2991687 -92.25 45.5625 C-90.12736197 44.08844581 -88.05863215 42.56172094 -86 41 C-85.34 41 -84.68 41 -84 41 C-84.43540858 39.66598223 -84.87347586 38.33283226 -85.3125 37 C-85.71662109 35.7625 -85.71662109 35.7625 -86.12890625 34.5 C-86.94660135 32.04992546 -86.94660135 32.04992546 -87.90234375 29.9375 C-90.15103488 24.79763457 -90.66149751 20.43856637 -89 15 C-86.9375 11.875 -86.9375 11.875 -84 10 C-79.59627032 9.64486051 -77.47280458 9.81121539 -74.03515625 12.5859375 C-69.8383937 17.07549744 -66 22.60574551 -66 29 C-58.34838846 27.15339799 -50.74425754 25.29720232 -43.25 22.875 C-38.98683619 21.50166738 -34.93957461 20.64181035 -30.5 20.0625 C-26.80862338 19.4908695 -25.21372033 19.1533211 -22.125 16.9375 C-19.7988092 13.72188331 -17.63661973 10.42106929 -15.48046875 7.08984375 C-11.48284313 1.44675746 -6.82126761 -0.68212676 0 0 Z " fill="#155ED4" transform="translate(663,28)"/>
<path d="M0 0 C13.35903278 10.45489522 21.09374943 26.05128253 23.3359375 42.828125 C22.30533203 42.97507812 22.30533203 42.97507812 21.25390625 43.125 C20.35285156 43.27453125 19.45179688 43.4240625 18.5234375 43.578125 C17.63011719 43.71734375 16.73679687 43.8565625 15.81640625 44 C12.74626832 45.02499093 11.90216548 46.02880325 10.3359375 48.828125 C9.14912443 53.02703958 8.99615757 56.71817722 10.2734375 60.890625 C12.67854757 63.14997082 13.34045982 63.11805069 16.5234375 63.140625 C17.7815625 63.0375 19.0396875 62.934375 20.3359375 62.828125 C21.9859375 59.858125 23.6359375 56.888125 25.3359375 53.828125 C27.84158468 56.33377218 28.09957829 58.12227931 28.95703125 61.55078125 C29.2514209 62.72141113 29.54581055 63.89204102 29.84912109 65.09814453 C30.15414551 66.34966309 30.45916992 67.60118164 30.7734375 68.890625 C31.08619629 70.16019043 31.39895508 71.42975586 31.72119141 72.73779297 C38.22522297 99.53494869 45.71686205 134.822239 31.5859375 160.265625 C22.86888424 173.25403436 11.44890824 181.58499072 -3.1015625 187.140625 C-12.07712786 188.87275165 -20.10029107 188.50382959 -27.828125 183.3984375 C-30.97825575 181.0959783 -34.07272295 178.76231871 -36.6640625 175.828125 C-36.6640625 175.168125 -36.6640625 174.508125 -36.6640625 173.828125 C-37.3240625 173.828125 -37.9840625 173.828125 -38.6640625 173.828125 C-39.89404297 172.52148438 -39.89404297 172.52148438 -41.28125 170.671875 C-41.79969482 169.98697998 -42.31813965 169.30208496 -42.85229492 168.59643555 C-43.68724487 167.47362183 -43.68724487 167.47362183 -44.5390625 166.328125 C-45.11696533 165.56218018 -45.69486816 164.79623535 -46.2902832 164.00708008 C-49.15634156 160.20298218 -51.99771467 156.38058237 -54.83984375 152.55859375 C-60.88942706 144.43189612 -67.09611545 136.54341396 -73.6640625 128.828125 C-74.57865234 127.69310547 -74.57865234 127.69310547 -75.51171875 126.53515625 C-76.8309627 124.91122205 -78.23771286 123.35884169 -79.6640625 121.828125 C-80.6540625 121.828125 -81.6440625 121.828125 -82.6640625 121.828125 C-81.25295648 131.50185179 -72.90070729 139.0662889 -66.66479492 146.18139648 C-61.64149982 151.91759234 -61.64149982 151.91759234 -61.73681641 155.76416016 C-61.82882324 156.99440918 -61.92083008 158.2246582 -62.015625 159.4921875 C-62.08929794 160.49410629 -62.08929794 160.49410629 -62.16445923 161.51626587 C-63.47393751 178.9359708 -65.18851903 196.34637558 -67.1640625 213.703125 C-67.27024902 214.68716309 -67.37643555 215.67120117 -67.48583984 216.68505859 C-69.27541504 231.78802823 -69.27541504 231.78802823 -73.7265625 237.453125 C-75.6640625 238.828125 -75.6640625 238.828125 -77.6640625 238.828125 C-77.3340625 239.818125 -77.0040625 240.808125 -76.6640625 241.828125 C-75.76815156 253.70996031 -77.50075236 264.41496141 -80.6640625 275.828125 C-80.85709961 276.53630371 -81.05013672 277.24448242 -81.24902344 277.97412109 C-89.59866093 307.67771655 -106.80639555 334.04930599 -124.6640625 358.828125 C-125.23334473 359.62025391 -125.80262695 360.41238281 -126.38916016 361.22851562 C-129.12540259 365.03395873 -131.87030308 368.83289684 -134.625 372.625 C-136.58757803 375.33020863 -138.53101001 378.04714791 -140.453125 380.78125 C-152.70416116 398.20388596 -152.70416116 398.20388596 -156.859375 399.52734375 C-157.45492187 399.62660156 -158.05046875 399.72585938 -158.6640625 399.828125 C-160.20610126 397.28422273 -161.71783474 394.73214294 -163.171875 392.13671875 C-175.45693854 370.32627986 -193.13952142 351.47318684 -216.6640625 341.828125 C-217.416875 341.51101563 -218.1696875 341.19390625 -218.9453125 340.8671875 C-228.70246848 337.50158623 -239.48790429 338.56554053 -249.6640625 338.828125 C-249.6640625 340.148125 -249.6640625 341.468125 -249.6640625 342.828125 C-248.73207031 342.79332031 -247.80007813 342.75851562 -246.83984375 342.72265625 C-233.46510348 342.43866278 -222.95642045 344.31041537 -211.6640625 351.828125 C-210.3926833 352.59931731 -209.11764712 353.36449939 -207.83984375 354.125 C-199.70094194 359.00045884 -192.3632732 364.0321748 -185.6640625 370.828125 C-184.97054687 371.51132812 -184.27703125 372.19453125 -183.5625 372.8984375 C-173.79798799 383.11535933 -164.64800775 398.82728502 -164.1015625 413.140625 C-164.32094648 419.00030023 -165.69404655 424.31842844 -167.22021484 429.9387207 C-168.87930395 436.21305265 -170.76434947 443.67736023 -167.67578125 449.78125 C-166.80969813 451.01468107 -165.93137748 452.23958224 -165.04296875 453.45703125 C-159.90494316 462.29210641 -158.43733743 474.871682 -159.6640625 484.828125 C-160.514547 487.58451454 -161.59119057 489.75525307 -163.6640625 491.828125 C-168.98252092 492.29059965 -168.98252092 492.29059965 -171.4140625 490.640625 C-174.63079609 485.9763613 -175.33932828 480.7345555 -176.2265625 475.265625 C-177.25847984 469.00877945 -177.25847984 469.00877945 -178.6640625 462.828125 C-181.43617024 462.36610704 -182.98303262 462.16670332 -185.6640625 462.828125 C-189.53319478 465.77842809 -192.63224675 469.39031218 -195.4609375 473.33203125 C-198.20549686 476.44155862 -201.11033871 478.12543926 -204.7265625 480.078125 C-205.35111328 480.42875 -205.97566406 480.779375 -206.61914062 481.140625 C-211.24439185 483.70746666 -214.57796433 484.95911329 -219.8515625 484.890625 C-220.75261719 484.88160156 -221.65367187 484.87257813 -222.58203125 484.86328125 C-223.61263672 484.84587891 -223.61263672 484.84587891 -224.6640625 484.828125 C-224.70370117 485.62395996 -224.74333984 486.41979492 -224.78417969 487.23974609 C-224.97638613 490.89538517 -225.19503395 494.54899877 -225.4140625 498.203125 C-225.4759375 499.45480469 -225.5378125 500.70648437 -225.6015625 501.99609375 C-226.14051841 510.57447529 -226.92576015 519.73339479 -233.5390625 525.953125 C-237.08098036 528.07827572 -238.62546188 528.68740173 -242.6640625 527.828125 C-245.6015625 526.078125 -245.6015625 526.078125 -247.6640625 522.828125 C-247.87962138 517.668619 -247.29696916 512.72684498 -245.6640625 507.828125 C-245.51957099 505.85248147 -245.44344251 503.87132739 -245.4140625 501.890625 C-245.38828125 500.85035156 -245.3625 499.81007813 -245.3359375 498.73828125 C-245.72778892 495.26293238 -245.92160431 494.03746982 -248.6640625 491.828125 C-251.87037952 491.13712872 -255.08114957 490.98869401 -258.3515625 490.828125 C-267.49837073 490.36909699 -273.82338333 488.26689374 -281.1640625 482.703125 C-281.834375 482.20554687 -282.5046875 481.70796875 -283.1953125 481.1953125 C-283.68 480.74414062 -284.1646875 480.29296875 -284.6640625 479.828125 C-284.6640625 479.168125 -284.6640625 478.508125 -284.6640625 477.828125 C-285.24929688 477.56128906 -285.83453125 477.29445313 -286.4375 477.01953125 C-288.70026623 475.80875283 -290.38289821 474.4744551 -292.2890625 472.765625 C-294.0821883 471.16434017 -295.51062566 469.90484342 -297.6640625 468.828125 C-298.0390625 466.765625 -298.0390625 466.765625 -297.6640625 463.828125 C-296.43359375 462.2890625 -296.43359375 462.2890625 -294.8515625 460.640625 C-291.62407307 457.14858725 -290.55587547 454.00687499 -289.375 449.45703125 C-288.63097123 446.70576002 -287.70343882 444.10626982 -286.6640625 441.453125 C-286.3546875 440.66164063 -286.0453125 439.87015625 -285.7265625 439.0546875 C-284.6640625 436.828125 -284.6640625 436.828125 -283.1640625 435.1015625 C-278.40946419 427.89537443 -279.29158465 418.17617552 -279.29345703 409.87402344 C-279.28911223 407.72769006 -279.25277752 405.58346758 -279.21484375 403.4375 C-279.09808894 389.13826983 -281.69314402 372.83356694 -291.5 361.75390625 C-295.0302206 358.48356805 -295.0302206 358.48356805 -299.6640625 357.828125 C-299.97260479 360.17578971 -299.97260479 360.17578971 -299.6640625 362.828125 C-298.10228629 364.76961316 -298.10228629 364.76961316 -295.9765625 366.453125 C-288.29197036 373.66168046 -284.77107927 384.19205508 -284.36328125 394.60546875 C-284.34368169 396.3254136 -284.34039457 398.04560474 -284.3515625 399.765625 C-284.35720215 400.68512939 -284.3628418 401.60463379 -284.36865234 402.55200195 C-284.74150981 423.89532328 -290.89678973 451.42753299 -306.6640625 466.828125 C-307.3240625 466.828125 -307.9840625 466.828125 -308.6640625 466.828125 C-308.9528125 467.570625 -309.2415625 468.313125 -309.5390625 469.078125 C-310.6640625 471.828125 -310.6640625 471.828125 -311.69213867 473.73461914 C-312.71392647 475.93553107 -313.06361128 477.67193034 -313.33984375 480.07421875 C-313.44264648 480.90066895 -313.54544922 481.72711914 -313.65136719 482.57861328 C-313.75868164 483.46532715 -313.86599609 484.35204102 -313.9765625 485.265625 C-318.15827506 516.54157645 -328.52905873 548.75237328 -349.51953125 572.96875 C-352.62281434 576.53478725 -352.62281434 576.53478725 -353.84375 580.95703125 C-353.53681145 583.6452189 -352.83486946 586.19726135 -352.12890625 588.8046875 C-350.48480172 595.96137783 -351.79121525 601.27379559 -355.29296875 607.65234375 C-356.83446248 610.0985318 -358.35118366 612.07352726 -360.6640625 613.828125 C-361.3240625 613.828125 -361.9840625 613.828125 -362.6640625 613.828125 C-364.5433391 610.06957181 -364.03814253 605.29694466 -364.18164062 601.125 C-364.26733919 595.60458837 -364.26733919 595.60458837 -366.6640625 590.828125 C-369.21926171 590.01641272 -369.21926171 590.01641272 -371.6640625 589.828125 C-371.78523438 590.80394531 -371.90640625 591.77976562 -372.03125 592.78515625 C-372.19882812 594.05746094 -372.36640625 595.32976563 -372.5390625 596.640625 C-372.70148438 597.90519531 -372.86390625 599.16976562 -373.03125 600.47265625 C-373.6640625 603.828125 -373.6640625 603.828125 -375.6640625 606.828125 C-380.47903312 606.40202141 -382.27045972 604.56256629 -385.3515625 600.953125 C-386.50205078 599.62667969 -386.50205078 599.62667969 -387.67578125 598.2734375 C-391.10135703 594.06045039 -392.22637439 591.69907715 -392.11328125 586.375 C-391.08067702 580.520583 -387.42998984 575.74541754 -383.4765625 571.453125 C-379.91875671 569.39750387 -376.253159 568.37840259 -372.28515625 567.34375 C-369.44928543 565.703932 -369.0749735 565.09642954 -367.73022461 562.26000977 C-367.21556389 561.17941788 -367.21556389 561.17941788 -366.69050598 560.07699585 C-365.07508016 556.53770303 -363.50666922 552.98269503 -361.984375 549.40234375 C-361.64912811 548.61527542 -361.31388123 547.82820709 -360.96847534 547.01728821 C-360.26280031 545.35648264 -359.55864953 543.69502867 -358.85595703 542.03295898 C-357.80654181 539.55686736 -356.74525169 537.08609626 -355.68359375 534.61523438 C-347.01169922 514.2365996 -340.47799577 494.31574907 -340.2890625 472.015625 C-340.27504395 470.87029297 -340.26102539 469.72496094 -340.24658203 468.54492188 C-340.28238041 462.22604864 -340.95677965 456.90849152 -342.99169922 450.92553711 C-343.80137683 448.3997781 -344.00299253 446.16129347 -343.9140625 443.515625 C-343.89859375 442.73574219 -343.883125 441.95585937 -343.8671875 441.15234375 C-343.6640625 438.828125 -343.6640625 438.828125 -343.16796875 436.4140625 C-342.59992761 433.49899864 -342.42287175 430.73434154 -342.3515625 427.765625 C-342.31417969 426.74339844 -342.27679688 425.72117187 -342.23828125 424.66796875 C-342.77672702 421.07668364 -343.86007021 420.0634755 -346.6640625 417.828125 C-347.99238228 416.97402303 -349.34683228 416.15891408 -350.7265625 415.390625 C-354.18918548 413.23940587 -356.35314471 411.84827289 -357.6640625 407.828125 C-357.627296 403.02641999 -356.93460693 398.36121011 -356.1015625 393.640625 C-355.0956056 387.17375919 -355.09135305 382.33136515 -358.35546875 376.59375 C-360.63345859 373.5201637 -363.04986818 371.84602643 -366.6640625 370.828125 C-373.14163315 370.1499364 -378.54107098 370.55361106 -384.6640625 372.828125 C-383.36391465 358.23462876 -379.2870341 343.69703981 -374.6640625 329.828125 C-370.29872402 331.50710134 -366.21295911 333.55389055 -362.06640625 335.70703125 C-354.65320377 339.16652574 -345.26699377 338.96911764 -337.43359375 337.02734375 C-323.25489382 331.57687918 -312.51881236 321.62181153 -306.2265625 307.828125 C-303.32322546 300.74554497 -302.17405155 293.4933558 -304.55859375 286.02734375 C-305.27993477 284.34761326 -306.01002236 282.67160417 -306.75 281 C-308.03533497 277.94595623 -308.37291576 276.08885 -307.6640625 272.828125 C-304.6577078 267.48467477 -300.39575514 262.30206071 -294.6640625 259.828125 C-288.05544752 259.48630009 -283.07872945 262.34442532 -277.30078125 265.35546875 C-262.78859585 271.23204651 -241.22968782 271.47030404 -226.6640625 265.828125 C-225.75333984 265.48152832 -225.75333984 265.48152832 -224.82421875 265.12792969 C-216.06078152 261.73273836 -208.07784614 257.68705621 -200.45751953 252.1328125 C-198.28796361 250.55452406 -196.09804057 249.00590021 -193.91015625 247.453125 C-192.20191643 246.2256385 -190.49488824 244.99646412 -188.7890625 243.765625 C-187.97977295 243.18804443 -187.1704834 242.61046387 -186.33666992 242.01538086 C-181.37343779 238.38117197 -177.48691733 234.65278906 -173.6640625 229.828125 C-168.13400185 232.26785764 -165.41871117 236.66018182 -162.6640625 241.828125 C-161.40388865 245.11236186 -160.45252228 248.40201199 -159.6640625 251.828125 C-159.4784375 252.56417969 -159.2928125 253.30023438 -159.1015625 254.05859375 C-157.35501659 265.11485316 -158.35193737 276.95682856 -160.6640625 287.828125 C-160.88191406 289.04113281 -161.09976563 290.25414062 -161.32421875 291.50390625 C-164.9746307 311.35177452 -164.9746307 311.35177452 -169.48828125 315.5078125 C-171.49777735 316.80154522 -173.491098 317.83775464 -175.6640625 318.828125 C-176.7778125 319.42625 -177.8915625 320.024375 -179.0390625 320.640625 C-181.6640625 321.828125 -181.6640625 321.828125 -183.6640625 321.828125 C-183.9321875 322.364375 -184.2003125 322.900625 -184.4765625 323.453125 C-185.36831678 325.23663356 -186.29014334 327.00515698 -187.2265625 328.765625 C-190.20687967 335.11499636 -190.31085617 341.91961871 -189.6640625 348.828125 C-187.48436663 353.91408203 -184.4941531 355.91228369 -179.60546875 358.08203125 C-172.53575112 360.79896499 -165.40390497 360.69398383 -158.484375 357.72265625 C-154.86099915 355.94207027 -152.38995257 354.54816887 -150.765625 350.69921875 C-149.69836273 347.32307721 -148.83365295 343.98635069 -148.3203125 340.48046875 C-147.50443933 334.92696841 -145.63011227 330.5252551 -142.9140625 325.640625 C-126.81857105 296.69352512 -121.11475892 264.84726961 -130.24755859 232.77929688 C-135.21038226 216.60969597 -142.67282416 203.75785088 -155.52734375 192.7734375 C-157.6640625 190.828125 -157.6640625 190.828125 -159.6640625 187.828125 C-159.52734375 185.296875 -159.52734375 185.296875 -158.9765625 182.328125 C-158.77933594 181.25691406 -158.58210937 180.18570313 -158.37890625 179.08203125 C-157.72146376 176.08941049 -156.92099201 173.1983571 -156.0390625 170.265625 C-150.1066081 148.98748497 -160.33495551 118.45818059 -170.74438477 99.90234375 C-172.16549489 97.51556284 -173.61366316 95.14920402 -175.10351562 92.8046875 C-176.68574855 90.17647192 -177.65592426 88.25569583 -177.71484375 85.16015625 C-175.48966186 80.22174143 -170.0564015 77.7083473 -165.6640625 74.828125 C-164.96796875 74.35375 -164.271875 73.879375 -163.5546875 73.390625 C-161.10315388 71.82858588 -159.27253242 70.81693241 -156.328125 70.87109375 C-152.58837374 72.21455278 -150.50233623 74.82230773 -147.9140625 77.703125 C-141.8566055 84.07234234 -137.04769273 86.74283328 -128.1640625 87.203125 C-122.30089139 86.96695524 -116.8050929 85.85847825 -112.47265625 81.75 C-110.10025157 77.91725983 -109.85072171 74.69346625 -109.5390625 70.265625 C-108.76305334 60.59853216 -108.76305334 60.59853216 -106.6640625 57.828125 C-103.18818299 55.32113176 -99.60300013 53.99665903 -95.5390625 52.703125 C-94.50523437 52.37054688 -93.47140625 52.03796875 -92.40625 51.6953125 C-91.04886719 51.26605469 -91.04886719 51.26605469 -89.6640625 50.828125 C-88.1790625 50.333125 -88.1790625 50.333125 -86.6640625 49.828125 C-86.0040625 44.878125 -85.3440625 39.928125 -84.6640625 34.828125 C-83.3440625 34.498125 -82.0240625 34.168125 -80.6640625 33.828125 C-80.6640625 32.508125 -80.6640625 31.188125 -80.6640625 29.828125 C-81.27701172 29.84907227 -81.88996094 29.87001953 -82.52148438 29.89160156 C-115.72625461 30.87259515 -115.72625461 30.87259515 -128.6640625 19.828125 C-129.3240625 19.168125 -129.9840625 18.508125 -130.6640625 17.828125 C-130.52734375 15.83984375 -130.52734375 15.83984375 -129.6640625 13.828125 C-127.95703125 12.59765625 -127.95703125 12.59765625 -125.8515625 11.640625 C-125.16449219 11.31707031 -124.47742188 10.99351563 -123.76953125 10.66015625 C-117.06356853 8.01011904 -110.50661406 7.89214931 -103.7265625 10.390625 C-99.06469165 12.4247643 -95.09177411 15.14159515 -91.00390625 18.14453125 C-88.00747813 20.30055883 -84.90474124 22.06688656 -81.6640625 23.828125 C-81.9940625 21.848125 -82.3240625 19.868125 -82.6640625 17.828125 C-59.52055302 4.87255264 -59.52055302 4.87255264 -49.1640625 0.640625 C-48.1896521 0.24121704 -48.1896521 0.24121704 -47.19555664 -0.16625977 C-33.2394748 -5.64439891 -13.28326334 -8.33612421 0 0 Z " fill="#1891F6" transform="translate(655.6640625,59.171875)"/>
<path d="M0 0 C3.52280028 3.15617401 5.69794408 5.81335172 6.875 10.4375 C6.91625 11.283125 6.9575 12.12875 7 13 C5.9275 12.95875 4.855 12.9175 3.75 12.875 C0.34287835 12.98857072 -1.26226767 13.10464685 -4 15 C-5.59220976 18.18441952 -5.3976617 21.5337155 -5 25 C-3.6490712 27.9254644 -3.6490712 27.9254644 -2 30 C-2.88751953 30.34611328 -2.88751953 30.34611328 -3.79296875 30.69921875 C-10.10831841 33.30571706 -14.0935591 35.97599029 -17.8125 41.875 C-19.23186675 45.61017565 -19.5764201 48.03711179 -19 52 C-17.31830353 55.1009044 -17.31830353 55.1009044 -14 57 C-10.3331059 57.69526784 -6.72756147 57.92819058 -3 58 C-3.33 57.01 -3.66 56.02 -4 55 C-6.52821827 54.00594568 -6.52821827 54.00594568 -9.5 53.375 C-14.92542373 52.07457627 -14.92542373 52.07457627 -16 51 C-16.375 48.25 -16.375 48.25 -16 45 C-12.33153583 40.51243219 -8.66551356 38.69827876 -3.375 36.8125 C2.00760496 34.82425903 2.00760496 34.82425903 7 32 C6.43139575 28.6531522 5.49926987 27.24878587 2.9375 25.0625 C0.04566682 22.35011232 0.04566682 22.35011232 -0.375 19.125 C-0.189375 18.073125 -0.189375 18.073125 0 17 C5.42094981 17.33880936 9.17594197 20.40177216 13 24 C15.69962445 27.4186833 18.05347663 31.04488615 19.953125 34.96875 C26.3902308 47.43425647 43.68123565 55.72701509 56.34765625 60.17578125 C60.64381321 61.14528833 64.55593654 61.22261838 68.9375 61.125 C69.71673828 61.11597656 70.49597656 61.10695313 71.29882812 61.09765625 C73.19935447 61.07433691 75.09972008 61.03847586 77 61 C76.86722656 61.70125 76.73445312 62.4025 76.59765625 63.125 C76.42105469 64.07375 76.24445313 65.0225 76.0625 66 C75.88847656 66.928125 75.71445312 67.85625 75.53515625 68.8125 C74.11255098 77.28582774 73.85194986 85.44666079 73.82421875 94.03515625 C73.81376522 95.40027112 73.80233787 96.76537883 73.78999329 98.13047791 C73.73806531 103.88407152 73.68968467 109.63753479 73.67407227 115.39135742 C73.66385438 118.92813917 73.63419388 122.46433536 73.59275246 126.0008831 C73.57483685 127.96731368 73.57705959 129.9338959 73.58000183 131.90040588 C73.39758442 145.55441863 70.7938976 159.7775174 61.08203125 170.0234375 C52.96333953 177.4668802 44.54696757 181.35558529 33.5 181.375 C32.76652344 181.39949219 32.03304687 181.42398438 31.27734375 181.44921875 C25.94152565 181.47785463 23.4075868 180.16038504 19 177 C15.76961158 176.20929452 15.76961158 176.20929452 13 176 C12.87044922 177.95292969 12.87044922 177.95292969 12.73828125 179.9453125 C12.59752108 181.67197053 12.4555288 183.39852842 12.3125 185.125 C12.25900391 185.9809375 12.20550781 186.836875 12.15039062 187.71875 C11.61801399 193.73692065 10.45823356 196.84299843 6 201 C3.0625 201.6875 3.0625 201.6875 0 201 C-1.57421875 199.86328125 -1.57421875 199.86328125 -3.125 198.5 C-5.86808074 195.56254752 -5.86808074 195.56254752 -10 196 C-10.20625 196.804375 -10.4125 197.60875 -10.625 198.4375 C-11.07875 199.283125 -11.5325 200.12875 -12 201 C-15.59356359 202.0704232 -17.4268387 202.19105377 -21 201 C-24.37033135 200.08211088 -24.37033135 200.08211088 -28 201 C-32.85647847 207.11063714 -35.96573653 214.83695845 -39.25 221.875 C-42.84754273 229.49417894 -46.51208233 237.06790795 -50.32421875 244.58203125 C-70.82536129 282.91689027 -70.82536129 282.91689027 -84 324 C-94.70827604 321.31748821 -105.14431459 317.75534451 -115.625 314.3125 C-119.46706433 313.05481582 -123.30972673 311.7989631 -127.15234375 310.54296875 C-128.09058487 310.23601074 -129.02882599 309.92905273 -129.99549866 309.61279297 C-140.97970959 306.02104778 -151.98576049 302.49854269 -163 299 C-163 297 -163 297 -160.78125 294.6953125 C-159.40453125 293.36113281 -159.40453125 293.36113281 -158 292 C-149.29422179 282.40525147 -142.13848386 271.781694 -135 261 C-134.28626221 259.92226318 -134.28626221 259.92226318 -133.55810547 258.82275391 C-130.32117137 253.91388298 -127.14792696 248.96632151 -124 244 C-123.50032715 243.21463867 -123.0006543 242.42927734 -122.48583984 241.62011719 C-115.33691085 230.35014566 -108.64301978 218.89225369 -102.18945312 207.2109375 C-88.40872231 182.40872231 -88.40872231 182.40872231 -84 178 C-83.59057673 173.95614335 -83.59057673 173.95614335 -84 170 C-86.3549963 167.91783124 -86.3549963 167.91783124 -89 167 C-88.78515625 164.6875 -88.78515625 164.6875 -88 162 C-85.76079302 160.23911133 -83.42750856 158.99451328 -80.93359375 157.625 C-78.75903315 156.13677521 -78.75903315 156.13677521 -78.47265625 153.48828125 C-78.76704528 150.89964882 -78.76704528 150.89964882 -80.75 149.41796875 C-81.4925 149.01191406 -82.235 148.60585938 -83 148.1875 C-83.7425 147.76855469 -84.485 147.34960938 -85.25 146.91796875 C-85.8275 146.61503906 -86.405 146.31210937 -87 146 C-86.1953125 142.171875 -86.1953125 142.171875 -84.4375 140.625 C-82.7235892 138.97701099 -82.7235892 138.97701099 -82.5 136 C-82.665 135.01 -82.83 134.02 -83 133 C-83.825 132.525625 -84.65 132.05125 -85.5 131.5625 C-86.325 131.046875 -87.15 130.53125 -88 130 C-88.66972195 125.98166832 -88.59818802 123.89312794 -86.3125 120.48046875 C-81.73402804 115.56943886 -75.44553818 112.40413205 -68.76953125 111.62109375 C-66.15055221 111.62448182 -63.60324793 111.7232768 -61 112 C-60.505 110.02 -60.505 110.02 -60 108 C-60.99 107.62875 -60.99 107.62875 -62 107.25 C-62.99 106.8375 -63.98 106.425 -65 106 C-66.7634375 105.319375 -66.7634375 105.319375 -68.5625 104.625 C-77.60612697 100.03441369 -86.2616297 90.4123435 -90 81 C-91.89356416 75.03088384 -92.22391414 67.58815805 -90.19921875 61.65234375 C-84.74009289 52.21612276 -75.19735257 46.50687687 -65.625 42 C-64.17867187 41.26716797 -64.17867187 41.26716797 -62.703125 40.51953125 C-56.12276525 37.37048509 -50.30732596 35.86453328 -43 37 C-41.65397026 37.64064511 -40.31839076 38.30425003 -39 39 C-36.33290931 39.16750414 -36.33290931 39.16750414 -34 39 C-34.12007115 34.31722523 -35.63185046 32.01310349 -38.5625 28.5625 C-40.98497364 25.58176083 -41.94482886 24.28588683 -42.6875 20.4375 C-41.00942448 12.0471224 -36.91354037 6.94362052 -30 2 C-20.88500665 -3.53949872 -9.58193181 -5.7123055 0 0 Z " fill="#FDFEFE" transform="translate(188,361)"/>
<path d="M0 0 C6.56148134 5.18332634 10.70753118 9.63571794 13.1015625 17.66015625 C13.70930413 19.27094047 14.33542844 20.8748694 14.9765625 22.47265625 C15.31042969 23.30539063 15.64429688 24.138125 15.98828125 24.99609375 C17.58272797 28.81157678 19.3081106 32.56279071 21.05078125 36.3125 C22.49954265 39.54932379 23.33562653 42.38393269 23.5390625 45.91015625 C23.59964844 46.6371875 23.66023437 47.36421875 23.72265625 48.11328125 C22.05177444 54.96494752 15.18623491 59.39833473 9.7265625 63.28515625 C3.9338812 67.51644971 -1.72430551 71.86364023 -7.2734375 76.41015625 C-7.9444751 76.95978027 -8.6155127 77.5094043 -9.30688477 78.07568359 C-10.59189961 79.12936074 -11.87650594 80.18353636 -13.16064453 81.23828125 C-15.49524859 83.14847147 -17.85111743 85.03124738 -20.2109375 86.91015625 C-29.03763086 93.95976159 -37.71417348 101.16383466 -46.26953125 108.5390625 C-48.70982484 110.64253614 -51.16068207 112.7325976 -53.62109375 114.8125 C-59.33430507 119.65171203 -64.90472815 124.49711679 -70.12109375 129.87890625 C-71.9146775 131.67643195 -73.7795118 133.32492085 -75.7109375 134.97265625 C-83.05718517 141.30662569 -89.89345448 148.28461015 -96.1796875 155.66796875 C-97.38191711 157.06146216 -98.61391191 158.42957515 -99.8671875 159.77734375 C-109.8415151 170.51058758 -118.8118064 182.44562141 -126.8984375 194.66015625 C-127.33510742 195.31145508 -127.77177734 195.96275391 -128.22167969 196.63378906 C-134.47718581 206.01498644 -140.06081461 215.31727419 -144.31225586 225.78515625 C-146.02812253 229.9731652 -147.83766749 233.23692663 -150.8984375 236.66015625 C-153.2109375 236.41015625 -153.2109375 236.41015625 -155.8984375 235.66015625 C-156.3315625 235.02078125 -156.7646875 234.38140625 -157.2109375 233.72265625 C-159.40662102 231.03904306 -161.44472482 231.02925476 -164.72265625 230.328125 C-177.07237029 226.53674062 -184.91294392 211.98855473 -190.8984375 201.66015625 C-191.44628906 200.77585937 -191.99414062 199.8915625 -192.55859375 198.98046875 C-198.87563368 188.34974683 -204.07820077 174.13930095 -201.8984375 161.66015625 C-199.66481514 154.6130777 -194.96111281 148.78850346 -190.62133789 142.90722656 C-188.05469268 139.40253987 -185.89874049 135.93892797 -183.9609375 132.03515625 C-181.35767149 126.99872399 -177.88361315 123.13270315 -174.00292969 119.07202148 C-169.73533836 114.58697791 -166.3280616 109.79248784 -162.8984375 104.66015625 C-158.32946224 98.09655308 -153.46513938 91.89454202 -148.24267578 85.84399414 C-144.63698209 81.62832393 -141.308068 77.25380654 -138.0234375 72.78515625 C-128.56199564 59.9731713 -117.82278073 48.23175103 -106.8984375 36.66015625 C-105.83882812 35.53673828 -105.83882812 35.53673828 -104.7578125 34.390625 C-80.2049296 9.0891786 -34.007972 -24.17657646 0 0 Z " fill="#FCFDFE" transform="translate(448.8984375,91.33984375)"/>
<path d="M0 0 C0.66 0 1.32 0 2 0 C5.62750461 9.30533792 6.18249369 17.0649072 6.1875 27.0625 C6.19974609 28.32255859 6.21199219 29.58261719 6.22460938 30.88085938 C6.23687511 38.79225786 5.59081424 46.24782252 4 54 C5.02738281 54.20753906 6.05476563 54.41507813 7.11328125 54.62890625 C16.28313835 56.61487651 23.42673455 59.2274604 31 65 C31.63035156 65.43828125 32.26070313 65.8765625 32.91015625 66.328125 C41.96660053 73.17718992 47.96731307 84.65528136 52 95 C52.29519531 95.72316406 52.59039063 96.44632812 52.89453125 97.19140625 C56.99451352 108.1583539 57.18883303 119.62694228 57.25 131.1875 C57.25926514 132.2798999 57.26853027 133.3722998 57.27807617 134.49780273 C57.23107344 146.70100224 54.41644912 157.62981139 50.85131836 169.21484375 C50.19144378 171.3621664 49.54329483 173.51277337 48.89648438 175.6640625 C41.95448929 198.56571315 41.95448929 198.56571315 37.87768555 203.64331055 C34.72450879 207.60087331 35.50964263 212.03641114 35.46875 216.91796875 C35.3140625 217.93503906 35.159375 218.95210937 35 220 C33.02 220.99 33.02 220.99 31 222 C30.01 218.04 29.02 214.08 28 210 C26.35 209.67 24.7 209.34 23 209 C22.67 213.95 22.34 218.9 22 224 C13.9164916 224 13.9164916 224 10.28515625 220.54296875 C6.1411877 215.56768736 5.01118423 209.30790507 5 203 C5.91561701 197.50629793 7.44536416 194.29484295 12 191 C14.27702392 190.62807232 16.41226138 190.49876424 18.71875 190.53125 C22.25797187 189.70704765 23.714838 187.75420182 26 185 C35.36952428 165.34685151 40.73935651 138.17901068 33.875 117.125 C28.19059514 101.11531905 18.87330235 87.6880884 3.375 80.0625 C-1.22540134 78.6142255 -5.29235261 77.74225412 -9.81640625 79.84375 C-14.01402526 82.62338138 -17.09365672 86.27175835 -20.33203125 90.08203125 C-30.47809064 101.74881149 -48.84607961 106.44173171 -63.71875 108.51953125 C-72.77367147 108.82210907 -84.75710837 107.19414496 -91.9375 101.25 C-92.618125 100.5075 -93.29875 99.765 -94 99 C-93.67 98.01 -93.34 97.02 -93 96 C-91.7625 95.4121875 -91.7625 95.4121875 -90.5 94.8125 C-89.675 94.214375 -88.85 93.61625 -88 93 C-87.35856121 89.37149142 -87.35856121 89.37149142 -87.24609375 86.9140625 C-87 85 -87 85 -85.4375 82.9375 C-83.18705552 79.90429222 -83.56346182 77.67939324 -84 74 C-85.16709687 71.53949708 -86.56855685 69.32609512 -88 67 C-88 66.01 -88 65.02 -88 64 C-88.804375 64.020625 -89.60875 64.04125 -90.4375 64.0625 C-93 64 -93 64 -94 63 C-93.61140641 59.50265772 -93.11403913 56.34211739 -92 53 C-91.8748011 49.61962973 -91.8571351 46.61431907 -92.625 43.3125 C-93.07838497 40.51662604 -92.48333947 39.3558921 -91 37 C-90.34 37 -89.68 37 -89 37 C-89 36.34 -89 35.68 -89 35 C-86.92388518 33.51186515 -84.8579541 32.15047035 -82.6875 30.8125 C-82.05827637 30.41683838 -81.42905273 30.02117676 -80.78076172 29.61352539 C-79.48724516 28.80046251 -78.19197919 27.99017646 -76.89501953 27.18261719 C-74.12545687 25.4542274 -71.37613405 23.69506934 -68.625 21.9375 C-67.08355071 20.95799116 -65.54197452 19.97868179 -64 19 C-63.68546875 19.90363281 -63.3709375 20.80726563 -63.046875 21.73828125 C-62.61890625 22.91777344 -62.1909375 24.09726563 -61.75 25.3125 C-61.33234375 26.48425781 -60.9146875 27.65601563 -60.484375 28.86328125 C-58.96785173 32.06793438 -58.03295111 33.27780102 -55 35 C-50.08430994 36.63856335 -45.88393486 36.72166859 -41.09375 34.88671875 C-37.34439194 32.60017842 -35.08482708 29.90979374 -32.3125 26.5625 C-27.87069115 21.47503903 -24.32368955 18.59304305 -17.6796875 16.75390625 C-14.75667466 15.93154258 -12.21701623 14.7881327 -9.5 13.4375 C-8.7059375 13.04433594 -7.911875 12.65117187 -7.09375 12.24609375 C-4.20640661 10.52769349 -2.41816765 9.16952771 -1.26953125 5.95703125 C-1.04330078 4.89548828 -1.04330078 4.89548828 -0.8125 3.8125 C-0.544375 2.554375 -0.27625 1.29625 0 0 Z " fill="#1891F6" transform="translate(466,190)"/>
<path d="M0 0 C0.66 0 1.32 0 2 0 C2.235979 0.52319824 2.47195801 1.04639648 2.71508789 1.58544922 C9.23112139 15.94399785 9.23112139 15.94399785 18 29 C18.7425 30.051875 19.485 31.10375 20.25 32.1875 C28.67054304 40.79941902 39.34888188 45.00735404 51 47 C50.43243445 50.63380385 49.32690758 53.81934722 47.9309082 57.21459961 C44.88949801 64.66011182 43.14661699 71.80199338 41.97094727 79.74511719 C40.10094668 92.33341383 40.10094668 92.33341383 36.375 97.0625 C29.36062455 99.83133241 21.70489753 97.77023077 15 95 C4.36589941 89.96080031 -3.79892654 83.34138512 -12 75 C-12.7734375 74.22527344 -13.546875 73.45054687 -14.34375 72.65234375 C-25.61904973 60.70486269 -31.12758355 47.10919053 -31.25 30.8125 C-31.270625 30.11447266 -31.29125 29.41644531 -31.3125 28.69726562 C-31.3364606 25.54944236 -31.17492304 23.32856465 -29.68359375 20.52734375 C-28 19 -28 19 -24.8125 18.75 C-23.884375 18.8325 -22.95625 18.915 -22 19 C-22 22 -22 22 -22.97265625 23.75 C-25.67123139 29.66018739 -24.76782149 38.13438051 -23.125 44.265625 C-21.91716483 47.30110549 -20.55783171 50.12885701 -19 53 C-18.48050781 53.9590625 -17.96101562 54.918125 -17.42578125 55.90625 C-10.97781916 66.84824627 -2.13940492 73.20750944 9 79 C10.01513672 79.52787109 10.01513672 79.52787109 11.05078125 80.06640625 C17.6754029 83.00280171 27.12788547 84.29070484 34 82 C33.34 81.01 32.68 80.02 32 79 C32.375 76.8125 32.375 76.8125 33 75 C30.69 75 28.38 75 26 75 C26.495 73.02 26.495 73.02 27 71 C23.85262818 71.69941596 20.97411124 72.76078698 18 74 C18 72.35 18 70.7 18 69 C15.03 69.495 15.03 69.495 12 70 C12 68.68 12 67.36 12 66 C9.69 66 7.38 66 5 66 C5.66 63.69 6.32 61.38 7 59 C6.2575 59.515625 5.515 60.03125 4.75 60.5625 C2 62 2 62 -0.3125 61.6875 C-0.869375 61.460625 -1.42625 61.23375 -2 61 C-1.67 59.35 -1.34 57.7 -1 56 C-2.65 56 -4.3 56 -6 56 C-6.226875 55.21625 -6.45375 54.4325 -6.6875 53.625 C-7.72266588 50.78165185 -7.72266588 50.78165185 -10.375 50.20703125 C-14.92258656 48.1159535 -15.93905783 43.94130158 -17.81640625 39.5234375 C-19.74638553 33.77808664 -20.69645813 28.42979579 -17.921875 22.8203125 C-14.77078058 18.37069016 -10.72760826 14.67801645 -6.83203125 10.88671875 C-3.65709112 7.61700429 -1.452284 4.35685199 0 0 Z " fill="#FAFBFE" transform="translate(230,318)"/>
<path d="M0 0 C0.6070728 18.1110053 -3.59955555 32.25357375 -9.85116577 49.06420898 C-11.62220564 53.86977032 -13.25049533 58.71248685 -14.82421875 63.5859375 C-15.05608887 64.30361298 -15.28795898 65.02128845 -15.52685547 65.76071167 C-15.87393555 66.8355632 -15.87393555 66.8355632 -16.22802734 67.93212891 C-27.75275961 103.62146005 -27.75275961 103.62146005 -38.92578125 114.953125 C-44.50501485 121.16966584 -44.40765234 126.63410432 -44.125 134.625 C-44.05651855 135.61516113 -43.98803711 136.60532227 -43.91748047 137.62548828 C-43.53812673 144.54782399 -44.47824534 148.6606887 -49 154 C-51.01953125 156.09375 -51.01953125 156.09375 -52.8125 157.5 C-53.71935547 158.22703125 -53.71935547 158.22703125 -54.64453125 158.96875 C-55.09183594 159.3090625 -55.53914063 159.649375 -56 160 C-56.03738281 159.01 -56.07476562 158.02 -56.11328125 157 C-56.44627257 149.8682103 -56.92217034 143.55711537 -60 137 C-62.41585001 136.86239209 -62.41585001 136.86239209 -65 138 C-66.55541083 140.52432974 -67.40284132 143.25191869 -68.3125 146.0625 C-68.57611328 146.82111328 -68.83972656 147.57972656 -69.11132812 148.36132812 C-69.75931881 150.23461029 -70.38210159 152.1165777 -71 154 C-72.32 154 -73.64 154 -75 154 C-80.33341358 148.40278317 -84.79876305 140.8296869 -85.125 133 C-82.92944255 127.14518013 -79.56303848 123.16501749 -73.8203125 120.5546875 C-71.59344847 119.75180455 -69.34849721 118.99674677 -67.0859375 118.30078125 C-61.28489641 115.85553228 -58.36386803 111.35968394 -55.4765625 105.94921875 C-55.16933762 105.3780986 -54.86211273 104.80697845 -54.545578 104.21855164 C-53.56139433 102.38030304 -52.59195723 100.53486149 -51.625 98.6875 C-51.29229095 98.05684631 -50.95958191 97.42619263 -50.61679077 96.77642822 C-43.67749442 83.61479226 -37.45316701 71.29587272 -34.62182617 56.58544922 C-32.97525948 48.69597159 -29.37593777 42.72379669 -25 36 C-18.27989979 25.28615602 -16.68221944 17.72887704 -17 5 C-14.91999989 4.15838146 -12.83585854 3.32699237 -10.75 2.5 C-9.58984375 2.0359375 -8.4296875 1.571875 -7.234375 1.09375 C-4 0 -4 0 0 0 Z " fill="#1891F6" transform="translate(454,544)"/>
<path d="M0 0 C3.22644779 1.3603032 4.64646124 2.62178947 6.5 5.5625 C16.39658199 19.17645483 35.8833487 27.88190543 52 31 C65.45380125 32.78639685 77.76846398 26.84653988 89.8125 21.625 C90.8742041 21.16697998 91.9359082 20.70895996 93.02978516 20.23706055 C103.36822817 15.63832532 110.77548375 10.94490932 117.6640625 1.87890625 C120 0 120 0 123.40234375 -0.0703125 C127.49923319 1.14852323 129.73625901 2.75647394 132.9375 5.5625 C133.89527344 6.38878906 134.85304688 7.21507812 135.83984375 8.06640625 C136.55269531 8.70449219 137.26554688 9.34257812 138 10 C124.17033192 30.12610233 102.98729645 44.80204737 78.93359375 49.39453125 C61.06180883 52.10237745 42.52778553 47.72223427 26.5 39.875 C25.49606201 39.38708984 24.49212402 38.89917969 23.45776367 38.39648438 C15.90232651 34.63440027 9.3750628 30.57116925 3 25 C1.862286 24.05692138 0.72424914 23.11423216 -0.4140625 22.171875 C-1.5495065 21.20098576 -2.68237997 20.22708123 -3.8125 19.25 C-4.34770264 18.80205078 -4.88290527 18.35410156 -5.43432617 17.89257812 C-6.89453125 16.578125 -6.89453125 16.578125 -9 14 C-9.10519368 10.59698436 -8.19006731 9.25275335 -6.15234375 6.54296875 C-5.42144531 5.76566406 -4.69054687 4.98835938 -3.9375 4.1875 C-3.20402344 3.39730469 -2.47054688 2.60710937 -1.71484375 1.79296875 C-1.14894531 1.20128906 -0.58304687 0.60960937 0 0 Z " fill="#1891F6" transform="translate(339,273)"/>
<path d="M0 0 C12.44372066 10.11052303 19.56416718 20.81415368 23.75 36.3125 C23.94875732 37.04581543 24.14751465 37.77913086 24.35229492 38.53466797 C27.54658036 51.24335097 28.35200978 63.96798112 28.31567383 77.00585938 C28.31251158 79.36635542 28.33609823 81.72559463 28.36132812 84.0859375 C28.41791506 97.52830283 26.9527815 110.65269926 22.375 123.375 C21.94960938 124.57898438 21.52421875 125.78296875 21.0859375 127.0234375 C20.54839844 128.49683594 20.54839844 128.49683594 20 130 C19.67 130.99 19.34 131.98 19 133 C19.66 133 20.32 133 21 133 C20.67 135.64 20.34 138.28 20 141 C19.67 141 19.34 141 19 141 C18.67 139.35 18.34 137.7 18 136 C14.87598498 139.39819719 14.62603739 141.89490248 14.5 146.4375 C14.33565593 152.34703878 13.21296602 155.78703398 9 160 C4.44444444 159.44444444 4.44444444 159.44444444 3 158 C2.91348389 156.58429877 2.89295096 155.164405 2.90234375 153.74609375 C2.90556641 152.89208984 2.90878906 152.03808594 2.91210938 151.15820312 C2.92048828 150.26037109 2.92886719 149.36253906 2.9375 148.4375 C2.94201172 147.53580078 2.94652344 146.63410156 2.95117188 145.70507812 C2.96299775 143.46998686 2.9794778 141.23502563 3 139 C0.69 139 -1.62 139 -4 139 C-4.19335938 139.62648438 -4.38671875 140.25296875 -4.5859375 140.8984375 C-4.84632813 141.71570313 -5.10671875 142.53296875 -5.375 143.375 C-5.63023437 144.18710937 -5.88546875 144.99921875 -6.1484375 145.8359375 C-7 148 -7 148 -9 150 C-11.43565927 145.64920542 -11.91255214 141.90289379 -11 137 C-7.77055237 130.60467654 -1.43415498 127.511172 5 125 C5.66 125 6.32 125 7 125 C8.45644491 121.42746472 9.80523944 117.83498976 11.0625 114.1875 C11.40410156 113.21167969 11.74570312 112.23585938 12.09765625 111.23046875 C16.53471789 95.3454039 15.89905121 74.67696386 11 59 C10.63648438 57.741875 10.27296875 56.48375 9.8984375 55.1875 C6.48035752 43.81315553 1.43637845 35.23610778 -6.4609375 26.421875 C-8.43567157 23.31442544 -8.48440224 21.62835907 -8 18 C-6.7578125 15.25390625 -6.7578125 15.25390625 -5.125 12.5625 C-2.69521896 8.36768934 -1.04877772 4.71949974 0 0 Z " fill="#1990F6" transform="translate(594,278)"/>
<path d="M0 0 C6.55168628 4.12140265 11.88592762 10.49456995 14.16015625 17.9375 C14.4653779 20.92119731 14.48489015 23.87769478 14.47265625 26.875 C14.48876953 27.66068359 14.50488281 28.44636719 14.52148438 29.25585938 C14.52643477 35.17158428 13.49788633 39.36133181 9.3984375 43.87890625 C0.04559569 51.7519881 -7.93085253 56.57209472 -20.453125 56.24609375 C-26.52203631 55.46140636 -30.76745126 51.71652702 -34.484375 47.04296875 C-39.20573808 39.70920881 -41.08664545 31.56536779 -39.83984375 22.9375 C-36.91812472 12.62204301 -32.0356263 6.31249966 -22.83984375 0.9375 C-22.24558594 0.56109375 -21.65132813 0.1846875 -21.0390625 -0.203125 C-14.94398257 -2.58486138 -6.10403481 -2.28376543 0 0 Z " fill="#165ED4" transform="translate(365.83984375,143.0625)"/>
<path d="M0 0 C2.78057464 2.39350601 3.81044604 4.61775 5 8.0625 C5.51046875 9.52042969 5.51046875 9.52042969 6.03125 11.0078125 C6.93573345 13.80149927 7.72681369 16.60528494 8.5 19.4375 C9.61313504 23.35202491 10.99745945 25.21192663 14 28 C14 31.81416894 11.38963742 34.22493719 9 37 C9.93972656 36.65775391 9.93972656 36.65775391 10.8984375 36.30859375 C11.71570313 36.02113281 12.53296875 35.73367188 13.375 35.4375 C14.18710938 35.14746094 14.99921875 34.85742188 15.8359375 34.55859375 C18 34 18 34 20 35 C19.65986985 40.44208234 16.29703472 43.93668198 13 48 C14.19625 47.505 15.3925 47.01 16.625 46.5 C20.21101476 45.14088765 23.13404799 44.7100536 27 45 C28 47.5625 28 47.5625 28 51 C26.07846622 53.0353376 24.04382838 54.63864341 21.78515625 56.2890625 C21.19605469 56.85367188 20.60695313 57.41828125 20 58 C20 59.32 20 60.64 20 62 C20.55429687 61.57847656 21.10859375 61.15695312 21.6796875 60.72265625 C22.40414062 60.17480469 23.12859375 59.62695312 23.875 59.0625 C24.59429687 58.51722656 25.31359375 57.97195313 26.0546875 57.41015625 C29.7727236 54.71495338 32.43363873 54.8339505 37 55 C38 56 38 56 38.3984375 58.1953125 C37.74805773 62.77347601 34.27516648 65.27928063 31.0859375 68.36328125 C27.43620871 72.06103279 26.0613616 74.89779182 25 80 C30.24784928 76.28810661 33.05997586 72.05684887 36.2890625 66.5234375 C38.01865911 63.97247994 39.34324699 62.53625221 42 61 C44.8170513 60.50568722 47.10119531 60.76622543 50 61 C52 63 52 63 52.375 66.4375 C52.09579783 76.10487518 46.72816704 84.85179213 42 93 C23.20679618 85.86123883 8.31037008 70.7549872 0.06640625 52.5859375 C-2.23345546 47.00898346 -4.12414978 41.29323722 -6 35.5625 C-6.39832031 34.35343994 -6.79664063 33.14437988 -7.20703125 31.89868164 C-11.73256414 17.48953684 -11.73256414 17.48953684 -9.046875 12.08032227 C-7.79248543 10.12505245 -6.44421241 8.31892698 -5 6.5 C-4.52304688 5.86835938 -4.04609375 5.23671875 -3.5546875 4.5859375 C-2.38676737 3.04428293 -1.19568184 1.52022405 0 0 Z " fill="#F9FBFE" transform="translate(241,269)"/>
<path d="M0 0 C6.57118462 2.13291213 11.17841055 5.26761582 15 11 C17.96918238 17.30819174 18.20956619 24.13910791 16.125 30.79296875 C13.24389252 37.05748205 9.23053615 41.88473193 3 45 C-3.39918996 45.7541133 -8.92290859 45.66195192 -14.20703125 41.70703125 C-19.90425586 36.28287622 -22.27291356 31.09285313 -22.65942383 23.27270508 C-22.73615352 16.71998979 -22.75918124 10.69032149 -18.3984375 5.4140625 C-17.70621094 4.71410156 -17.70621094 4.71410156 -17 4 C-16.319375 3.175 -15.63875 2.35 -14.9375 1.5 C-10.06199256 -0.98962082 -5.34655165 -0.76474308 0 0 Z " fill="#F6F8FD" transform="translate(442,91)"/>
<path d="M0 0 C6.20367262 2.92239124 9.07676639 13.34616844 11.34375 19.37109375 C14.52951638 28.34271445 16.74052348 37.62648472 18.890625 46.890625 C19.07286621 47.67260254 19.25510742 48.45458008 19.44287109 49.26025391 C22.55639282 63.09916093 23.83309397 78.89439911 20.890625 92.890625 C20.230625 93.880625 19.570625 94.870625 18.890625 95.890625 C13.43583315 95.32241752 8.98003244 93.94424555 3.890625 91.890625 C4.11814479 87.90176734 4.3517109 83.9133074 4.6015625 79.92578125 C4.6641626 78.91463257 4.6641626 78.91463257 4.72802734 77.88305664 C4.89404617 75.84870282 5.16331671 73.84825925 5.453125 71.828125 C6.99362603 57.96361573 5.45034221 45.81709318 0.265625 32.953125 C-0.07903809 32.08357178 -0.42370117 31.21401855 -0.77880859 30.31811523 C-3.35805779 24.07628556 -6.33864494 19.15611412 -10.8359375 14.08203125 C-12.109375 11.890625 -12.109375 11.890625 -11.5625 9.34765625 C-10.02398293 6.74623894 -8.50054044 5.00814027 -6.234375 3.015625 C-5.55632812 2.39945313 -4.87828125 1.78328125 -4.1796875 1.1484375 C-2.109375 -0.109375 -2.109375 -0.109375 0 0 Z " fill="#1891F6" transform="translate(473.109375,148.109375)"/>
<path d="M0 0 C5.23024764 3.46462264 5.23024764 3.46462264 7.265625 5.5 C7.57376078 8.42728993 7.70137335 9.92560445 5.890625 12.3125 C4.265625 13.5 4.265625 13.5 2.265625 13.5 C2.08386719 12.94570312 1.90210938 12.39140625 1.71484375 11.8203125 C1.46347656 11.09585938 1.21210937 10.37140625 0.953125 9.625 C0.70949219 8.90570313 0.46585938 8.18640625 0.21484375 7.4453125 C-0.69773047 5.16005095 -0.69773047 5.16005095 -3.734375 3.5 C-9.21895703 2.45531771 -12.40651534 4.85062513 -16.78125 7.796875 C-19.4889399 10.15798059 -20.50678509 12.16081303 -21.10546875 15.68359375 C-21.23902714 20.21672264 -21.21836946 21.90710678 -18.234375 25.5625 C-17.409375 26.201875 -16.584375 26.84125 -15.734375 27.5 C-17.61390509 32.28425841 -20.67620781 34.59626343 -25.33203125 36.640625 C-29.9553797 38.40782683 -33.73469316 39.75360705 -38.734375 39.5 C-37.53056052 37.00638429 -36.28008778 34.81856917 -34.734375 32.5 C-35.724375 32.17 -36.714375 31.84 -37.734375 31.5 C-37.074375 30.84 -36.414375 30.18 -35.734375 29.5 C-38.044375 29.5 -40.354375 29.5 -42.734375 29.5 C-42.109375 27.625 -42.109375 27.625 -40.734375 25.5 C-37.609375 24.25 -37.609375 24.25 -34.734375 23.5 C-34.734375 22.84 -34.734375 22.18 -34.734375 21.5 C-37.374375 22.16 -40.014375 22.82 -42.734375 23.5 C-40.60656921 21.15941363 -38.61875279 19.79299694 -35.734375 18.5 C-36.45625 18.644375 -37.178125 18.78875 -37.921875 18.9375 C-40.52604167 19.45833333 -43.13020833 19.97916667 -45.734375 20.5 C-41.33493366 15.72346369 -41.33493366 15.72346369 -38.046875 14.5 C-35.47320366 13.68143319 -35.47320366 13.68143319 -34.421875 10.875 C-34.0815625 9.699375 -34.0815625 9.699375 -33.734375 8.5 C-33.074375 8.5 -32.414375 8.5 -31.734375 8.5 C-31.734375 7.84 -31.734375 7.18 -31.734375 6.5 C-32.724375 6.17 -33.714375 5.84 -34.734375 5.5 C-34.734375 4.84 -34.734375 4.18 -34.734375 3.5 C-32.08698584 2.0393715 -30.83989166 1.5 -27.734375 1.5 C-28.064375 0.18 -28.394375 -1.14 -28.734375 -2.5 C-19.3484797 -6.25435812 -8.81043692 -4.83315397 0 0 Z " fill="#F5F8FD" transform="translate(516.734375,93.5)"/>
<path d="M0 0 C6.57118462 2.13291213 11.17841055 5.26761582 15 11 C17.96918238 17.30819174 18.20956619 24.13910791 16.125 30.79296875 C13.24389252 37.05748205 9.23053615 41.88473193 3 45 C-3.39918996 45.7541133 -8.92290859 45.66195192 -14.20703125 41.70703125 C-19.90425586 36.28287622 -22.27291356 31.09285313 -22.65942383 23.27270508 C-22.73615352 16.71998979 -22.75918124 10.69032149 -18.3984375 5.4140625 C-17.70621094 4.71410156 -17.70621094 4.71410156 -17 4 C-16.319375 3.175 -15.63875 2.35 -14.9375 1.5 C-10.06199256 -0.98962082 -5.34655165 -0.76474308 0 0 Z M-15 8 C-18.35212542 13.51212173 -17.71507955 19.89184173 -16.3125 25.98828125 C-14.37326243 31.95951693 -12.56501334 35.89643487 -7 39 C-3.09597198 39.77466961 0.11877137 39.37207431 3.8125 37.8125 C7.20750278 34.9994977 8.80966994 32.33916913 9.43359375 27.94921875 C9.44329913 19.84522868 8.74960547 14.41409252 3.45703125 8.18359375 C0.49324282 5.26049806 -1.90490409 3.61387335 -6.125 3.375 C-10.39608138 4.06388409 -12.05780844 4.88473835 -15 8 Z " fill="#165ED4" transform="translate(442,91)"/>
<path d="M0 0 C4.57516181 0.67780175 7.47359109 3.09086319 10.32421875 6.65625 C17.63080494 17.36379973 18.27298992 29.82386432 16.53125 42.37890625 C15.19121719 48.75203846 13.18205552 53.8300647 8 58 C5.13177682 58.95607439 3.05755254 59.22692707 0.0625 59.3125 C-1.21947266 59.36857422 -1.21947266 59.36857422 -2.52734375 59.42578125 C-5.86903631 58.85035552 -6.94679831 57.65788087 -9 55 C-9.90625 52.6171875 -9.90625 52.6171875 -10.5 49.875 C-10.73332031 48.82957031 -10.96664063 47.78414062 -11.20703125 46.70703125 C-11.46871094 45.48371094 -11.73039062 44.26039063 -12 43 C-12.35561912 41.46167027 -12.71383872 39.92394012 -13.07421875 38.38671875 C-13.44604833 36.77881582 -13.81714441 35.17074308 -14.1875 33.5625 C-14.36667969 32.79341309 -14.54585938 32.02432617 -14.73046875 31.23193359 C-15.58675442 27.41627784 -16.22713503 23.93961798 -16 20 C-12.62594278 20.24993016 -11.7777929 21.23278839 -9.375 23.75 C-4.7013208 29.4060449 -4.44223991 35.75820544 -3.7890625 42.76171875 C-3.37056614 46.83845056 -2.78656711 50.24820907 -1 54 C2.92888829 53.73212125 4.54876221 53.47562903 7.3125 50.5625 C12.15014993 43.216439 10.58978428 31.9509414 9.57421875 23.42578125 C8.19315457 16.94409968 5.61155135 12.37562494 1.42578125 7.25390625 C-0.24642828 4.61044077 -0.28698735 3.07022312 0 0 Z " fill="#0E5BD4" transform="translate(417,474)"/>
<path d="M0 0 C2.97905838 0.07092996 5.20271673 0.3485856 7.55859375 2.2734375 C11.76819487 6.93133381 14.46848171 12.29491168 17 18 C17.36867188 18.82628906 17.73734375 19.65257812 18.1171875 20.50390625 C20.1097188 26.13765627 19.80926305 31.98442626 17.25 37.375 C14.87259974 41.53335028 12.64813095 44.45062302 8 46 C3.07355252 46.4845686 1.00947531 46.62121558 -3.25 44 C-6.52052536 40.8627841 -8.28982231 37.1438921 -10 33 C-10.4125 32.030625 -10.825 31.06125 -11.25 30.0625 C-12.24435532 26.00221579 -12.16630244 22.15756096 -12 18 C-10.16015625 18.21484375 -10.16015625 18.21484375 -8 19 C-6.62109375 21.00390625 -6.62109375 21.00390625 -5.4375 23.5625 C-5.01597656 24.46226562 -4.59445312 25.36203125 -4.16015625 26.2890625 C-3.14868965 28.65255685 -2.23474679 31.01580485 -1.375 33.4375 C-0.12030134 36.68831016 0.42581397 37.89155912 3 40 C5.95720628 40.66680368 5.95720628 40.66680368 9 40 C11.71315504 37.8580355 12.79822155 36.18184523 13.3828125 32.7578125 C13.68316232 26.33032642 12.08816888 21.5647199 9 16 C8.60296875 15.27425781 8.2059375 14.54851562 7.796875 13.80078125 C5.38207736 9.66658655 3.01421452 6.75260424 -1 4 C-0.67 2.68 -0.34 1.36 0 0 Z " fill="#0E5BD4" transform="translate(453,449)"/>
<path d="M0 0 C1.65687157 3.10663419 1.40412558 5.41106642 1 8.875 C-1.42891828 14.51009042 -4.46854097 18.09719306 -10 20.875 C-13 21.6875 -13 21.6875 -16 20.875 C-20.37350091 17.06340499 -24.01068195 12.34562465 -26 6.875 C-26.125 4.75 -26.125 4.75 -25 2.875 C-18.02965031 -2.10382121 -7.9398745 -4.46617941 0 0 Z " fill="#1890F6" transform="translate(693,55.125)"/>
<path d="M0 0 C0.78375 0.04125 1.5675 0.0825 2.375 0.125 C2.375 1.445 2.375 2.765 2.375 4.125 C2.045 4.455 1.715 4.785 1.375 5.125 C1.30294489 6.81108966 1.29113932 8.50000659 1.3125 10.1875 C1.32603516 11.56615234 1.32603516 11.56615234 1.33984375 12.97265625 C1.35144531 13.68292969 1.36304688 14.39320312 1.375 15.125 C3.293125 15.063125 3.293125 15.063125 5.25 15 C7.4296875 14.9296875 7.4296875 14.9296875 9.375 15.125 C10.035 15.785 10.695 16.445 11.375 17.125 C11.14362338 19.85524416 10.81578952 22.43128625 10.375 25.125 C10.03895922 27.45794495 9.7051724 29.79121729 9.375 32.125 C11.53005382 33.48098892 13.69590248 34.80864722 15.875 36.125 C16.47570312 36.5065625 17.07640625 36.888125 17.6953125 37.28125 C23.91630148 40.9873711 29.34317964 40.88295509 36.375 39.125 C37.5196875 38.8465625 37.5196875 38.8465625 38.6875 38.5625 C39.244375 38.418125 39.80125 38.27375 40.375 38.125 C39.43594605 41.50559421 38.47827204 43.03432211 35.8125 45.375 C30.45025494 48.10487021 25.18670858 48.84747471 19.375 47.125 C19.375 45.145 19.375 43.165 19.375 41.125 C18.24320312 40.85945313 17.11140625 40.59390625 15.9453125 40.3203125 C14.46345168 39.9639156 12.9816857 39.60712424 11.5 39.25 C10.75363281 39.07597656 10.00726563 38.90195313 9.23828125 38.72265625 C3.6015625 37.3515625 3.6015625 37.3515625 1.375 35.125 C1.64246487 31.24675934 4.02960614 29.05674232 6.375 26.125 C7.15333534 23.94285432 7.15333534 23.94285432 7.375 22.125 C6.323125 22.24875 5.27125 22.3725 4.1875 22.5 C0.375 22.125 0.375 22.125 -2.5625 20 C-6.20550636 15.03880056 -5.33272496 7.93579441 -4.625 2.125 C-2.625 0.125 -2.625 0.125 0 0 Z " fill="#1960D5" transform="translate(397.625,109.875)"/>
<path d="M0 0 C3.83365683 1.70384748 5.43350646 3.16001141 7 7 C7.78778935 12.62706678 7.20098795 17.19851807 4 22 C2.25 23.9375 2.25 23.9375 0 25 C-3.5 25.0625 -3.5 25.0625 -7 24 C-11.65467886 18.48788029 -12.37165753 14.06149307 -12 7 C-10.07615379 0.34053236 -6.63227785 -0.57174809 0 0 Z " fill="#F3F7FC" transform="translate(350,161)"/>
<path d="M0 0 C0.66 0.33 1.32 0.66 2 1 C1.30609526 5.08179259 -0.7320525 8.44939527 -2.75 12 C-3.14050537 12.69061523 -3.53101074 13.38123047 -3.93334961 14.09277344 C-8.79084475 22.55052968 -14.16060996 30.67885653 -19.54736328 38.80566406 C-20.7572259 40.63326829 -21.9561703 42.4680945 -23.15234375 44.3046875 C-31.98375855 57.78519804 -41.42876471 70.82995485 -52 83 C-52.33 82.34 -52.66 81.68 -53 81 C-52.02512893 78.71911117 -50.99323301 76.6109336 -49.8125 74.4375 C-49.27326904 73.43928223 -49.27326904 73.43928223 -48.72314453 72.42089844 C-42.73556333 61.64074175 -35.14894895 51.89455136 -27.82470703 42.00488281 C-26.95241455 40.82684082 -26.95241455 40.82684082 -26.0625 39.625 C-25.19020752 38.44695801 -25.19020752 38.44695801 -24.30029297 37.24511719 C-11.03506422 19.32642873 -11.03506422 19.32642873 0 0 Z " fill="#286AD7" transform="translate(79,575)"/>
<path d="M0 0 C1.32 0 2.64 0 4 0 C7.49348673 6.31634878 9.61700973 12.74723579 8 20 C5.45317048 22.56936783 3.34088504 23.48291462 -0.25 23.625 C-5.30541577 23.48271181 -7.89939815 21.20235532 -11.46875 17.82421875 C-14.01354587 14.79253591 -14.11756135 12.11173282 -14.0625 8.3125 C-14.05347656 7.50425781 -14.04445313 6.69601562 -14.03515625 5.86328125 C-14.02355469 5.24839844 -14.01195312 4.63351563 -14 4 C-11.69 4 -9.38 4 -7 4 C-6.54625 4.94875 -6.0925 5.8975 -5.625 6.875 C-4.19761746 10.00313679 -4.19761746 10.00313679 -2 12 C0.06874034 12.6425235 0.06874034 12.6425235 2 13 C1.319375 11.948125 0.63875 10.89625 -0.0625 9.8125 C-1.59648815 7.1496262 -2.0185094 6.28381074 -1.8125 3.125 C-1 1 -1 1 0 0 Z " fill="#1C91F6" transform="translate(656,251)"/>
<path d="M0 0 C4.76588108 1.5612369 6.83674037 4.13610261 9.625 8.1875 C11.17086876 11.27923752 10.91859521 13.78179552 10.625 17.1875 C8.94658446 19.96053438 7.60577633 20.9103632 4.49609375 21.7890625 C0.66663623 22.43256278 -1.5109991 22.7635006 -4.8125 20.5625 C-8.07834436 15.59841658 -8.76718366 12.14537514 -7.90625 6.28515625 C-7.375 4.1875 -7.375 4.1875 -5.75 1.5625 C-3.375 0.1875 -3.375 0.1875 0 0 Z " fill="#0E5AD4" transform="translate(620.375,102.8125)"/>
<path d="M0 0 C0.99 0 1.98 0 3 0 C0.11318088 6.37091116 -5.20206205 12.13470803 -11 16 C-11.99 16 -12.98 16 -14 16 C-14.33 15.01 -14.66 14.02 -15 13 C-15.99 13.33 -16.98 13.66 -18 14 C-18 16.97 -18 19.94 -18 23 C-19.32 23.33 -20.64 23.66 -22 24 C-22.37125 24.94875 -22.7425 25.8975 -23.125 26.875 C-25.61517339 31.02528899 -27.90791882 31.35164813 -32.4296875 32.5546875 C-35.00856471 33.00148385 -37.38842463 33.08424437 -40 33 C-39.67 31.35 -39.34 29.7 -39 28 C-38.21753906 27.95101562 -37.43507813 27.90203125 -36.62890625 27.8515625 C-35.61699219 27.77679688 -34.60507812 27.70203125 -33.5625 27.625 C-32.55316406 27.55539063 -31.54382813 27.48578125 -30.50390625 27.4140625 C-29.67761719 27.27742188 -28.85132813 27.14078125 -28 27 C-26.69679763 24.82891352 -26.69679763 24.82891352 -27.3125 21.375 C-27.39777691 16.70182533 -25.4640622 14.20730673 -22.60546875 10.6640625 C-21 9 -21 9 -18 7 C-15.39662765 7.34254899 -13.07769926 7.97351162 -10.59375 8.8203125 C-9.7378125 8.87960938 -8.881875 8.93890625 -8 9 C-5.7501047 7.14534898 -5.7501047 7.14534898 -3.875 4.5625 C-1.8671875 2.00390625 -1.8671875 2.00390625 0 0 Z " fill="#1A61D5" transform="translate(415,168)"/>
<path d="M0 0 C2 2 2 2 2.375 5.625 C2.25756193 10.21347325 0.90734174 14.40171594 -2 18 C-4.55903878 19.17108554 -5.67506517 19.10705634 -8.359375 18.22265625 C-9.54273438 17.64837891 -9.54273438 17.64837891 -10.75 17.0625 C-11.54921875 16.68222656 -12.3484375 16.30195312 -13.171875 15.91015625 C-13.77515625 15.60980469 -14.3784375 15.30945312 -15 15 C-13.68552225 11.43574301 -12.11594205 8.40275366 -10 5.25 C-9.2265625 4.08210938 -9.2265625 4.08210938 -8.4375 2.890625 C-6.0070448 -0.30595195 -3.84988862 -0.28874165 0 0 Z " fill="#198FF5" transform="translate(661,34)"/>
<path d="M0 0 C3.42326872 0.1901816 4.90003034 0.91709833 7.5625 3.125 C14.13479743 10.87694055 14.13479743 10.87694055 13.75 16.9375 C13.37875 18.4534375 13.37875 18.4534375 13 20 C7.01372998 20 7.01372998 20 4.26953125 17.29296875 C-2.16903105 8.7241167 -2.16903105 8.7241167 -1.6875 3.8125 C-1 1 -1 1 0 0 Z " fill="#188FF5" transform="translate(580,43)"/>
<path d="M0 0 C2.89907925 0.32211992 4.82381756 0.89048119 7.3125 2.4375 C9.95406886 6.44877124 9.74229085 10.34047133 9 15 C7.00342873 18.85544798 5.60292362 20.59805092 2 23 C-0.77025253 23.16456946 -3.34853265 22.81891972 -6 22 C-7.5 19.9375 -7.5 19.9375 -8 18 C-5.43364441 16.38414648 -4.36929371 15.93988242 -1.3125 16.4375 C-0.549375 16.623125 0.21375 16.80875 1 17 C2.36222307 15.84983746 2.36222307 15.84983746 2.3125 12.75 C1.95628972 8.47547661 0.93261437 7.02425856 -2 4 C-1.34 2.68 -0.68 1.36 0 0 Z " fill="#0E5BD5" transform="translate(653,211)"/>
<path d="M0 0 C3.0625 0.4375 3.0625 0.4375 5.4375 1.875 C7.76319294 5.54243887 7.92922198 9.19758978 7.0625 13.4375 C5.75390625 15.1875 5.75390625 15.1875 4.0625 16.4375 C-1.92819767 17.18633721 -1.92819767 17.18633721 -4.875 15 C-6.43309391 11.24224409 -6.68986814 7.44275391 -5.9375 3.4375 C-3.9711182 0.86916458 -3.28445937 0.4891748 0 0 Z " fill="#286AD7" transform="translate(441.9375,103.5625)"/>
<path d="M0 0 C0.8971875 0.309375 0.8971875 0.309375 1.8125 0.625 C2.1425 1.945 2.4725 3.265 2.8125 4.625 C0.8325 5.615 -1.1475 6.605 -3.1875 7.625 C-2.81876118 13.77064694 -1.41496623 16.39753377 2.8125 20.625 C3.8025 20.955 4.7925 21.285 5.8125 21.625 C5.8125 22.285 5.8125 22.945 5.8125 23.625 C0.20523577 23.91503091 -3.3116995 23.75944318 -8.1875 20.625 C-10.67380165 16.89554752 -10.9546941 13.94430278 -10.1875 9.625 C-8.28641226 5.44991885 -5.36170566 -0.91914954 0 0 Z " fill="#1C62D5" transform="translate(163.1875,474.375)"/>
<path d="M0 0 C2 1.5 2 1.5 3 4 C3.10940231 7.81345203 2.43741793 11.02796016 0.875 14.5 C-1 16 -1 16 -4.5625 16.4375 C-5.696875 16.293125 -6.83125 16.14875 -8 16 C-10.69791024 11.95313464 -10.53108385 8.74549114 -10 4 C-7.98030224 -0.87103578 -4.89750094 -0.69964299 0 0 Z " fill="#ECF1FB" transform="translate(511,101)"/>
<path d="M0 0 C3.88653137 3.1798893 3.88653137 3.1798893 4.75 6.25 C4.375 8.5 4.375 8.5 3.75 10.25 C-0.74797113 8.56326082 -4.97886302 6.43326108 -9.25 4.25 C-9.25 5.24 -9.25 6.23 -9.25 7.25 C-11.63564077 6.67415568 -13.91682784 6.02772405 -16.25 5.25 C-16.25 5.91 -16.25 6.57 -16.25 7.25 C-17.57 6.92 -18.89 6.59 -20.25 6.25 C-20.58 4.6 -20.91 2.95 -21.25 1.25 C-20.1053125 1.5903125 -20.1053125 1.5903125 -18.9375 1.9375 C-18.050625 2.040625 -17.16375 2.14375 -16.25 2.25 C-14.64588754 0.89594139 -14.64588754 0.89594139 -13.25 -0.75 C-8.53095505 -2.53998257 -4.42828235 -2.38445973 0 0 Z " fill="#0E5BD5" transform="translate(444.25,426.75)"/>
<path d="M0 0 C3.22393501 3.22393501 3.20611516 6.31452323 3.3125 10.6875 C3.24464209 16.29934897 2.58754655 20.57145589 -1 25 C-4.62896946 28.38832161 -8.23048697 29.25541246 -13.125 29.4375 C-19.51657055 29.11936753 -22.41497564 26.76645541 -26.6875 22.1875 C-31.54851795 16.38598076 -32.49382215 11.4073323 -32 4 C-31.34 3.34 -30.68 2.68 -30 2 C-29.90203125 2.86882812 -29.8040625 3.73765625 -29.703125 4.6328125 C-28.65568742 12.70530558 -27.54948106 17.71023707 -21.4375 23.375 C-16.65482068 25.63590295 -12.21364875 25.6773018 -7 25 C-3.68646345 23.79722161 -2.32316652 22.50884759 -0.75 19.375 C2.20515511 12.9663695 1.12883421 6.77300524 0 0 Z " fill="#DFE9F9" transform="translate(362,165)"/>
<path d="M0 0 C0.77979849 2.25989391 1.1881632 3.50562239 0.32250977 5.7800293 C-0.05075439 6.37211182 -0.42401855 6.96419434 -0.80859375 7.57421875 C-1.22238281 8.23808594 -1.63617188 8.90195312 -2.0625 9.5859375 C-2.51625 10.27945313 -2.97 10.97296875 -3.4375 11.6875 C-3.89253906 12.39777344 -4.34757812 13.10804688 -4.81640625 13.83984375 C-8.36382234 19.26996671 -12.10885171 24.68428092 -17 29 C-17.66 29 -18.32 29 -19 29 C-17.25658516 18.55767151 -9.36330522 8.36330522 -2 1 C-1.34 0.67 -0.68 0.34 0 0 Z " fill="#3674DA" transform="translate(284,539)"/>
<path d="M0 0 C6.10529532 -0.42105485 9.14274942 -0.10167827 14 4 C18.71912624 8.82637911 20.83655471 13.15903572 21.125 19.9375 C21.08375 20.618125 21.0425 21.29875 21 22 C19.46153673 20.01300516 18.02934752 18.04946108 16.74609375 15.88671875 C13.38715107 10.2416897 9.68925819 6.94629729 4.171875 3.41015625 C2 2 2 2 0 0 Z " fill="#F1F5FC" transform="translate(352,147)"/>
<path d="M0 0 C0.66 0.33 1.32 0.66 2 1 C1.3874112 3.85612139 0.51257825 6.14156348 -0.92578125 8.6796875 C-1.31056641 9.36160156 -1.69535156 10.04351563 -2.09179688 10.74609375 C-2.69604492 11.79990234 -2.69604492 11.79990234 -3.3125 12.875 C-3.70373047 13.56980469 -4.09496094 14.26460937 -4.49804688 14.98046875 C-5.64464073 16.99984301 -6.81893107 19.00064435 -8 21 C-8.65355469 22.13695312 -9.30710937 23.27390625 -9.98046875 24.4453125 C-12 27 -12 27 -14.75 27.875 C-15.4925 27.91625 -16.235 27.9575 -17 28 C-16.5875 27.35675781 -16.175 26.71351563 -15.75 26.05078125 C-12.3586357 20.74420452 -8.99832038 15.41963381 -5.6875 10.0625 C-5.03136719 9.00160156 -4.37523438 7.94070313 -3.69921875 6.84765625 C-2.35573076 4.59615568 -1.12319081 2.36611263 0 0 Z " fill="#3D79DB" transform="translate(79,575)"/>
<path d="M0 0 C0.886875 0.103125 1.77375 0.20625 2.6875 0.3125 C3.0625 2.5625 3.0625 2.5625 2.6875 5.3125 C-0.67450222 8.34650201 -2.64500543 9.26943583 -7.1875 9.5625 C-8.21875 9.48 -9.25 9.3975 -10.3125 9.3125 C-8.30545061 4.38610604 -5.49180199 0.51809453 0 0 Z " fill="#1A61D5" transform="translate(443.3125,150.6875)"/>
<path d="M0 0 C1 3 1 3 -0.546875 6.43359375 C-1.27091404 7.77386455 -2.00576959 9.10833506 -2.75 10.4375 C-3.29140625 11.44006836 -3.29140625 11.44006836 -3.84375 12.46289062 C-7.56381513 19.26279229 -7.56381513 19.26279229 -10 22 C-10.66 22 -11.32 22 -12 22 C-9.76457986 13.88189529 -6.29193718 5.80506109 0 0 Z " fill="#3A77DB" transform="translate(266,676)"/>
<path d="M0 0 C-0.53239608 4.52536666 -2.27123273 7.38839627 -5 11 C-8 13 -8 13 -12 13 C-10.48665656 7.61922331 -5.99032955 0 0 0 Z " fill="#3C78DB" transform="translate(582,445)"/>
<path d="M0 0 C0.66 0 1.32 0 2 0 C2 5.28 2 10.56 2 16 C0.68 16 -0.64 16 -2 16 C-3 15 -3 15 -3.25 11.9375 C-2.95768258 7.33350068 -1.7813072 4.23060459 0 0 Z " fill="#1A8FF4" transform="translate(390,691)"/>
<path d="M0 0 C5.11406794 1.00039103 8.28625137 4.06885438 11.31640625 8.140625 C11.64640625 8.90375 11.97640625 9.666875 12.31640625 10.453125 C11.98640625 11.113125 11.65640625 11.773125 11.31640625 12.453125 C10.78015625 11.69 10.24390625 10.926875 9.69140625 10.140625 C6.90903266 6.99214962 5.30872228 5.8076608 1.31640625 4.453125 C-2.69732055 4.21702342 -6.66836664 4.27770246 -10.68359375 4.453125 C-7.14490541 0.43515607 -5.2135941 -0.24049528 0 0 Z " fill="#DAE5F8" transform="translate(349.68359375,152.546875)"/>
<path d="M0 0 C3.22393501 3.22393501 3.20611516 6.31452323 3.3125 10.6875 C3.2452822 16.24641208 2.63239028 20.64531885 -1 25 C-3.27925034 26.71797884 -5.38385202 27.79254709 -8 29 C-8.33 28.34 -8.66 27.68 -9 27 C-10.65 27 -12.3 27 -14 27 C-14 26.67 -14 26.34 -14 26 C-13.09507812 25.85304687 -13.09507812 25.85304687 -12.171875 25.703125 C-5.6677942 24.49862346 -5.6677942 24.49862346 -1 20 C2.43446755 13.8179584 1.11335897 6.68015384 0 0 Z " fill="#CBDBF5" transform="translate(362,165)"/>
<path d="M0 0 C2.475 0.495 2.475 0.495 5 1 C5 4.96 5 8.92 5 13 C3.68 12.67 2.36 12.34 1 12 C-0.26237731 9.47524538 -0.09856404 7.68799534 -0.0625 4.875 C-0.05347656 3.96492187 -0.04445313 3.05484375 -0.03515625 2.1171875 C-0.02355469 1.41851562 -0.01195312 0.71984375 0 0 Z " fill="#1960D5" transform="translate(342,163)"/>
<path d="M0 0 C4.875 1.875 4.875 1.875 6 3 C6.04063832 4.66617115 6.042721 6.33388095 6 8 C4.68 8.33 3.36 8.66 2 9 C0.4375 7.3125 0.4375 7.3125 -1 5 C-0.6875 2.25 -0.6875 2.25 0 0 Z " fill="#1E63D6" transform="translate(199,430)"/>
<path d="M0 0 C1.125 5.75 1.125 5.75 0 8 C-1.65 8 -3.3 8 -5 8 C-5.6875 5.6875 -5.6875 5.6875 -6 3 C-4.0819994 0.21889913 -3.45555657 0 0 0 Z " fill="#1C62D5" transform="translate(510,104)"/>
<path d="M0 0 C0.33 0 0.66 0 1 0 C0.53415241 5.70663301 -0.72031738 9.26268066 -4 14 C-6.625 16 -6.625 16 -9 17 C-9.66 16.67 -10.32 16.34 -11 16 C-10.29875 15.401875 -9.5975 14.80375 -8.875 14.1875 C-4.84033159 10.21063486 -2.54512594 4.99404437 0 0 Z " fill="#296FDA" transform="translate(402,638)"/>
<path d="M0 0 C5.70565316 2.56377367 10.02178106 6.6607808 12.4375 12.4375 C12.623125 13.283125 12.80875 14.12875 13 15 C12.01 15 11.02 15 10 15 C9.79246094 14.48050781 9.58492188 13.96101563 9.37109375 13.42578125 C6.87474784 7.77505683 4.25007336 5.23081438 -1 2 C-0.67 1.34 -0.34 0.68 0 0 Z " fill="#DDE7F8" transform="translate(448,92)"/>
<path d="M0 0 C1 3 1 3 0.00390625 5.26171875 C-0.47175781 6.06222656 -0.94742187 6.86273437 -1.4375 7.6875 C-1.91058594 8.49574219 -2.38367188 9.30398438 -2.87109375 10.13671875 C-3.24363281 10.75160156 -3.61617188 11.36648438 -4 12 C-4.33 12 -4.66 12 -5 12 C-4.54177532 8.53058454 -4.10868317 5.32604951 -3 2 C-2.01 1.34 -1.02 0.68 0 0 Z " fill="#1E68D8" transform="translate(408,629)"/>
<path d="M0 0 C0.99 0.33 1.98 0.66 3 1 C1.77472971 5.05281712 0.30119506 8.44360764 -2 12 C-3.15957207 8.52128379 -2.77456651 7.65780355 -1.5625 4.3125 C-1.13130859 3.10013672 -1.13130859 3.10013672 -0.69140625 1.86328125 C-0.46324219 1.24839844 -0.23507813 0.63351562 0 0 Z " fill="#457FDD" transform="translate(107,671)"/>
<path d="M0 0 C0.66 0.66 1.32 1.32 2 2 C1.06027344 2.92232422 1.06027344 2.92232422 0.1015625 3.86328125 C-0.71570313 4.67152344 -1.53296875 5.47976563 -2.375 6.3125 C-3.18710938 7.11300781 -3.99921875 7.91351562 -4.8359375 8.73828125 C-7.12604842 11.00009937 -7.12604842 11.00009937 -9 14 C-8.9240674 10.81083072 -8.65961352 8.69040628 -6.41015625 6.3359375 C-5.15898621 5.29713374 -3.88704093 4.28274431 -2.59375 3.296875 C-0.86408353 2.07108006 -0.86408353 2.07108006 0 0 Z " fill="#5288DF" transform="translate(100,516)"/>
<path d="M0 0 C2.0625 0.4375 2.0625 0.4375 4 1 C3.67 2.65 3.34 4.3 3 6 C1.68 5.67 0.36 5.34 -1 5 C-1 1 -1 1 0 0 Z " fill="#0E5DD6" transform="translate(458,480)"/>
<path d="M0 0 C0.66 0 1.32 0 2 0 C2.33 2.31 2.66 4.62 3 7 C1.68 7 0.36 7 -1 7 C-0.67 4.69 -0.34 2.38 0 0 Z " fill="#1787F0" transform="translate(285,663)"/>
<path d="M0 0 C1.98 0.495 1.98 0.495 4 1 C3.67 2.65 3.34 4.3 3 6 C1.68 5.67 0.36 5.34 -1 5 C-0.67 3.35 -0.34 1.7 0 0 Z " fill="#0E5DD6" transform="translate(416,518)"/>
<path d="M0 0 C1.32 0 2.64 0 4 0 C4.33 1.32 4.66 2.64 5 4 C3.35 4.33 1.7 4.66 0 5 C-0.5625 3.0625 -0.5625 3.0625 -1 1 C-0.67 0.67 -0.34 0.34 0 0 Z " fill="#0E5ED7" transform="translate(414,577)"/>
<path d="M0 0 C0.99 0 1.98 0 3 0 C2.67 1.65 2.34 3.3 2 5 C0.35 5.33 -1.3 5.66 -3 6 C-1.125 1.125 -1.125 1.125 0 0 Z " fill="#0F61D9" transform="translate(416,432)"/>
<path d="M0 0 C0.66 0.33 1.32 0.66 2 1 C1.42655063 3.86724686 1.1385485 4.8614515 -1 7 C-2.32 7.33 -3.64 7.66 -5 8 C-3.35 5.36 -1.7 2.72 0 0 Z " fill="#437DDC" transform="translate(67,595)"/>
<path d="M0 0 C0.66 0.33 1.32 0.66 2 1 C1.82374165 3.37948772 1.30280227 4.70225849 -0.40234375 6.37890625 C-1.90649092 7.62115486 -3.45129851 8.81376056 -5 10 C-3.66511872 6.40608886 -2.03977277 3.24509304 0 0 Z " fill="#6C99E4" transform="translate(235,687)"/>
<path d="M0 0 C0.33 0.99 0.66 1.98 1 3 C-0.81392049 6.15049348 -2.66476748 7.61990379 -6 9 C-4.68775452 5.06326356 -3.08089673 2.77280706 0 0 Z " fill="#5D8FE1" transform="translate(266,676)"/>
<path d="M0 0 C0.66 0.33 1.32 0.66 2 1 C1.8125 2.8125 1.8125 2.8125 1 5 C-1.4375 6.8125 -1.4375 6.8125 -4 8 C-4.66 7.67 -5.32 7.34 -6 7 C-5.195625 6.21625 -4.39125 5.4325 -3.5625 4.625 C-1.01309583 2.28017144 -1.01309583 2.28017144 0 0 Z " fill="#3C79DC" transform="translate(397,647)"/>
<path d="M0 0 C0.66 0 1.32 0 2 0 C1.34 1.98 0.68 3.96 0 6 C-0.99 6 -1.98 6 -3 6 C-1.125 1.125 -1.125 1.125 0 0 Z " fill="#2C6DD8" transform="translate(71,590)"/>
<path d="M0 0 C1.32 0 2.64 0 4 0 C4 1.32 4 2.64 4 4 C2.35 3.67 0.7 3.34 -1 3 C-0.67 2.01 -0.34 1.02 0 0 Z " fill="#0E5DD6" transform="translate(487,544)"/>
<path d="M0 0 C0.66 0.33 1.32 0.66 2 1 C2 1.66 2 2.32 2 3 C0.1875 4.0625 0.1875 4.0625 -2 5 C-2.99 4.67 -3.98 4.34 -5 4 C-3.35 2.68 -1.7 1.36 0 0 Z " fill="#DDE7F9" transform="translate(476,109)"/>
<path d="" fill="#C6D8F5" transform="translate(0,0)"/>
</svg>
