<svg width="100%" height="100%" viewBox="0 0 1024 351" version="1.1" xmlns="http://www.w3.org/2000/svg" xmlns:xlink="http://www.w3.org/1999/xlink" xml:space="preserve" style="fill-rule:evenodd;clip-rule:evenodd;stroke-linejoin:round;stroke-miterlimit:2;">
    <g id="Phaidra" transform="matrix(1,0,0,1,232.814,15.6703)">
        <g transform="matrix(1,0,0,1,373.727,127.863)">
            <path d="M0,0C1.125,0.006 1.125,0.006 2.273,0.012C3.024,0.008 3.774,0.004 4.547,0C10.147,0.01 10.147,0.01 11.273,1.137C11.369,4.303 11.399,7.447 11.387,10.614C11.387,11.609 11.387,12.604 11.387,13.629C11.387,16.935 11.379,20.241 11.371,23.547C11.369,25.832 11.368,28.118 11.367,30.403C11.363,36.432 11.353,42.46 11.342,48.489C11.332,54.635 11.327,60.781 11.322,66.928C11.312,78.997 11.294,91.067 11.273,103.137L-6.727,103.137C-7.057,101.157 -7.387,99.177 -7.727,97.137C-9.273,98.312 -9.273,98.312 -10.852,99.512C-18.278,105.156 -26.788,104.861 -35.727,104.137C-44.488,102.284 -50.083,97.116 -55.262,90.039C-58.96,84.098 -60.044,78.031 -60.727,71.137C-60.799,70.437 -60.871,69.737 -60.945,69.016C-61.439,59.13 -58.085,49.624 -51.727,42.137C-44.968,35.195 -37.835,32.104 -28.164,31.762C-20.934,31.798 -12.964,33.899 -7.727,39.137C-7.689,37.418 -7.689,37.418 -7.651,35.664C-7.557,31.428 -7.456,27.192 -7.354,22.956C-7.311,21.12 -7.269,19.284 -7.229,17.448C-7.172,14.814 -7.108,12.18 -7.043,9.547C-7.026,8.721 -7.01,7.895 -6.992,7.044C-6.816,0.333 -6.763,0.012 0,0ZM-38.102,53.324C-42.265,60.531 -42.226,68.101 -40.727,76.137C-38.868,81.419 -36.143,83.916 -31.727,87.137C-26.873,88.755 -21.57,89.076 -16.656,87.453C-11.372,84.697 -8.576,80.686 -6.727,75.137C-6.58,72.702 -6.506,70.263 -6.477,67.824C-6.438,65.881 -6.438,65.881 -6.398,63.898C-6.885,58.326 -8.59,55.224 -12.602,51.387C-21.486,44.99 -30.172,46.021 -38.102,53.324Z" style="fill:rgb(252,252,252);fill-rule:nonzero;"/>
        </g>
        <g transform="matrix(1,0,0,1,87.3438,164.406)">
            <path d="M0,0C8.013,5.663 12.458,13.086 14.656,22.594C15.939,34.679 14.885,45.638 7.969,55.906C3.183,61.806 -3.054,65.602 -10.344,67.594C-21.178,68.686 -28.747,67.108 -37.344,60.594C-37.369,61.517 -37.394,62.44 -37.42,63.392C-37.515,66.819 -37.614,70.246 -37.716,73.674C-37.759,75.157 -37.801,76.64 -37.841,78.123C-37.899,80.255 -37.963,82.387 -38.027,84.52C-38.064,85.803 -38.101,87.086 -38.138,88.407C-38.344,91.594 -38.344,91.594 -39.344,94.594L-56.344,94.594L-56.344,-3.406L-39.344,-3.406C-39.014,-1.426 -38.684,0.554 -38.344,2.594C-37.847,2.256 -37.351,1.918 -36.84,1.57C-25.463,-5.899 -11.909,-7.145 0,0ZM-35.719,16.844C-40.171,24.378 -39.86,32.168 -38.344,40.594C-36.146,45.068 -33.429,47.766 -29.344,50.594C-24.502,52.208 -19.091,52.623 -14.238,50.805C-8.375,47.529 -6.159,44.985 -4.344,38.594C-3.649,30.814 -3.603,23.56 -7.344,16.594C-11.512,12.313 -15.861,10.87 -21.719,10.219C-27.431,10.81 -31.561,12.905 -35.719,16.844Z" style="fill:rgb(252,252,252);fill-rule:nonzero;"/>
        </g>
        <g transform="matrix(1,0,0,1,327.281,60.4688)">
            <path d="M0,0C1.782,-0.003 3.563,-0.007 5.345,-0.012C9.067,-0.017 12.788,-0.009 16.51,0.01C21.261,0.033 26.012,0.019 30.763,-0.005C34.438,-0.019 38.113,-0.014 41.789,-0.004C43.54,-0.001 45.29,-0.005 47.041,-0.014C57.398,-0.057 66.118,-0.051 74.469,6.781C79.819,13.321 83.066,18.745 82.938,27.383C82.153,35.09 77.97,41.886 72.094,46.781C63.952,53.395 51.207,51.842 41.344,51.832C39.768,51.836 38.192,51.84 36.616,51.845C33.328,51.852 30.04,51.852 26.752,51.847C22.563,51.841 18.374,51.858 14.185,51.881C10.935,51.896 7.685,51.897 4.435,51.894C2.892,51.894 1.348,51.899 -0.195,51.91C-11.318,51.974 -21.584,51.668 -30.523,44.32C-35.572,39.182 -38.058,33.241 -38.402,26.07C-38.016,17.979 -35.075,12.565 -29.805,6.539C-20.8,-0.626 -10.97,-0.059 0,0ZM9.719,10.531C9.389,11.191 9.059,11.851 8.719,12.531C9.193,13.686 9.668,14.841 10.156,16.031C12.801,22.783 12.354,29.01 10.195,35.852C9.92,36.733 9.645,37.615 9.362,38.524C9.15,39.186 8.937,39.849 8.719,40.531C16.157,40.633 23.595,40.703 31.033,40.751C33.563,40.771 36.093,40.798 38.622,40.833C42.261,40.882 45.9,40.904 49.539,40.922C50.667,40.943 51.796,40.963 52.958,40.984C60.936,40.987 64.244,39.818 70.031,34.344C72.363,30.458 73.044,27.05 72.719,22.531C71.108,17.69 67.994,14.242 63.719,11.531C60.319,10.669 57.152,10.409 53.653,10.418C52.182,10.418 52.182,10.418 50.681,10.418C49.112,10.426 49.112,10.426 47.512,10.434C45.891,10.436 45.891,10.436 44.237,10.438C40.794,10.443 37.35,10.456 33.906,10.469C31.568,10.474 29.23,10.478 26.893,10.482C21.168,10.493 15.443,10.51 9.719,10.531Z" style="fill:rgb(252,252,252);fill-rule:nonzero;"/>
        </g>
        <g transform="matrix(1,0,0,1,119.816,127.902)">
            <path d="M0,0C1.582,0.007 3.164,0.019 4.746,0.035C5.552,0.04 6.359,0.044 7.189,0.049C9.188,0.061 11.186,0.079 13.184,0.098C14.793,3.317 14.426,6.846 14.5,10.387C14.521,11.205 14.542,12.024 14.563,12.867C14.628,15.485 14.687,18.104 14.746,20.723C14.789,22.496 14.833,24.27 14.877,26.043C14.984,30.394 15.085,34.746 15.184,39.098C15.653,38.752 16.123,38.406 16.607,38.05C17.229,37.598 17.851,37.146 18.492,36.68C19.413,36.006 19.413,36.006 20.353,35.32C26.956,30.912 35.572,31.399 43.184,32.098C50.55,34.047 55.478,38.109 59.434,44.598C61.753,49.236 62.31,53.113 62.297,58.255C62.297,59.756 62.297,59.756 62.297,61.287C62.292,62.355 62.287,63.423 62.281,64.523C62.28,65.626 62.278,66.729 62.277,67.865C62.271,71.38 62.259,74.895 62.246,78.41C62.241,80.796 62.237,83.182 62.232,85.568C62.221,91.411 62.204,97.255 62.184,103.098L44.184,103.098C44.169,101.837 44.154,100.576 44.139,99.277C44.081,94.573 44.004,89.869 43.921,85.166C43.888,83.135 43.86,81.104 43.837,79.073C43.803,76.143 43.751,73.214 43.695,70.285C43.689,69.386 43.683,68.487 43.676,67.56C43.529,61.19 42.91,54.824 38.184,50.098C32.913,48.341 27.306,48.066 21.984,49.824C19.36,51.178 17.507,52.536 16.024,55.112C14.8,59.461 14.845,63.677 14.805,68.176C14.788,69.143 14.771,70.11 14.753,71.107C14.7,74.187 14.66,77.267 14.621,80.348C14.577,83.442 14.531,86.537 14.478,89.632C14.446,91.556 14.419,93.48 14.398,95.404C14.385,96.269 14.371,97.134 14.357,98.024C14.348,98.789 14.338,99.553 14.328,100.341C14.184,102.098 14.184,102.098 13.184,103.098C11.841,103.184 10.494,103.205 9.148,103.195C8.34,103.192 7.531,103.189 6.697,103.186C5.847,103.177 4.997,103.169 4.121,103.16C3.267,103.156 2.413,103.151 1.533,103.146C-0.583,103.135 -2.7,103.117 -4.816,103.098C-4.84,89.816 -4.857,76.534 -4.868,63.252C-4.873,57.085 -4.881,50.919 -4.892,44.752C-4.903,38.806 -4.909,32.861 -4.911,26.915C-4.913,24.641 -4.917,22.367 -4.922,20.093C-4.929,16.92 -4.93,13.747 -4.93,10.574C-4.934,9.624 -4.937,8.674 -4.941,7.695C-4.929,0.126 -4.929,0.126 0,0Z" style="fill:rgb(251,251,251);fill-rule:nonzero;"/>
        </g>
        <g transform="matrix(1,0,0,1,504,164)">
            <path d="M0,0C1.353,0.973 2.693,1.966 4,3C3.979,2.196 3.959,1.391 3.938,0.563C4,-2 4,-2 5,-3L23,-3L23,67L5,67L5,61C3.987,61.632 3.987,61.632 2.953,62.277C2.061,62.825 1.169,63.373 0.25,63.938C-0.632,64.483 -1.513,65.028 -2.422,65.59C-9.801,69.626 -20.907,69.236 -28.875,66.938C-38.014,63.22 -43.854,56.813 -48,48C-51.584,38.551 -51.446,25.66 -48.039,16.172C-44.012,7.755 -37.487,1.2 -28.875,-2.375C-18.916,-5.626 -9.206,-5.069 0,0ZM-26.938,16.875C-31.645,24.008 -31.768,30.608 -31,39C-29.476,44.379 -26.795,48.032 -22,51C-17.015,53.167 -12.227,54.084 -6.953,52.313C-2.004,50.08 1.009,47.532 4,43C5.985,36.588 6.246,27.423 3.875,21.063C0.8,16.039 -3.205,12.594 -9,11C-15.434,10.269 -22.569,11.86 -26.938,16.875Z" style="fill:rgb(252,252,252);fill-rule:nonzero;"/>
        </g>
        <g transform="matrix(1,0,0,1,245.109,164.312)">
            <path d="M0,0C1.669,1.175 3.286,2.425 4.891,3.688L4.891,-3.313L22.891,-3.313C22.913,5.667 22.932,14.646 22.942,23.625C22.948,27.794 22.955,31.963 22.966,36.132C22.977,40.152 22.983,44.172 22.986,48.192C22.987,49.729 22.991,51.266 22.996,52.803C23.004,54.949 23.005,57.094 23.004,59.24C23.006,60.464 23.009,61.687 23.011,62.948C22.891,65.688 22.891,65.688 21.891,66.688C19.028,66.761 16.19,66.78 13.328,66.75C12.522,66.745 11.716,66.741 10.885,66.736C8.887,66.725 6.889,66.707 4.891,66.688L4.891,60.688C4.129,61.194 4.129,61.194 3.352,61.711C2.663,62.157 1.975,62.603 1.266,63.063C0.593,63.503 -0.08,63.944 -0.773,64.398C-9.118,69.003 -19.889,69.224 -28.984,66.625C-37.422,63.234 -44.2,56.896 -48.039,48.703C-52.053,38.228 -52.541,25.586 -48.035,15.215C-46.835,12.946 -45.533,10.822 -44.109,8.688C-43.429,7.636 -42.748,6.584 -42.047,5.5C-32.108,-5.904 -12.446,-7.744 0,0ZM-26.922,15.813C-32.064,22.57 -32.71,29.25 -31.813,37.59C-30.45,43.592 -27.299,47.145 -22.359,50.625C-16.293,52.608 -10.698,53.826 -4.734,51C0.742,47.765 3.171,44.869 4.891,38.688C5.543,31.312 5.966,24.072 1.891,17.688C-2.632,13.165 -6.648,11.064 -12.984,10.375C-18.4,10.917 -22.576,12.529 -26.922,15.813Z" style="fill:rgb(252,252,252);fill-rule:nonzero;"/>
        </g>
        <g transform="matrix(1,0,0,1,513.375,63.0625)">
            <path d="M0,0C6.851,3.904 11.379,9.326 13.625,16.938C14.49,24.571 14.111,31.507 9.625,37.938C4.615,43.349 -0.07,47.438 -7.574,48.309C-15.434,48.458 -21.975,47.887 -28.375,42.938C-28.87,41.453 -28.87,41.453 -29.375,39.938L-31.375,39.938C-35.467,32.569 -38.498,26.449 -36.688,17.875C-34.029,8.937 -29.085,3.708 -21.188,-0.938C-13.89,-3.091 -6.997,-3.198 0,0Z" style="fill:rgb(252,252,252);fill-rule:nonzero;"/>
        </g>
        <g transform="matrix(1,0,0,1,456.703,64.375)">
            <path d="M0,0C5.308,3.756 9.331,8.38 11.297,14.625C12.34,23.622 11.695,31.186 6.297,38.625C1.754,44.055 -3.766,46.535 -10.703,47.625C-18.846,48.037 -25.396,45.406 -31.492,40.055C-36.35,34.909 -38.243,29.174 -39.141,22.25C-38.282,15.139 -35.937,7.705 -30.703,2.625C-21.224,-4.588 -10.5,-5.885 0,0Z" style="fill:rgb(253,253,253);fill-rule:nonzero;"/>
        </g>
        <g transform="matrix(1,0,0,1,438.5,159.875)">
            <path d="M0,0C1.145,-0.003 2.289,-0.005 3.469,-0.008C6.5,0.125 6.5,0.125 9.5,1.125C9.048,7.04 8.342,12.477 6.5,18.125C5.758,17.878 5.758,17.878 5,17.625C-2.216,16.182 -7.778,17.511 -14.5,20.125L-14.5,22.125L-16.5,22.125C-16.644,22.909 -16.789,23.693 -16.938,24.5C-17.5,27.125 -17.5,27.125 -18.5,29.125C-18.645,32.174 -18.734,35.203 -18.781,38.254C-18.8,39.159 -18.818,40.064 -18.837,40.996C-18.916,44.878 -18.984,48.76 -19.052,52.642C-19.104,55.471 -19.161,58.3 -19.219,61.129C-19.232,62.014 -19.246,62.9 -19.26,63.812C-19.387,70.012 -19.387,70.012 -20.5,71.125L-37.5,71.125L-37.5,1.125L-19.5,1.125C-19.17,3.105 -18.84,5.085 -18.5,7.125C-17.885,6.703 -17.27,6.282 -16.637,5.848C-15.828,5.3 -15.02,4.752 -14.188,4.188C-13.387,3.642 -12.586,3.097 -11.762,2.535C-7.786,0.057 -4.593,-0.01 0,0Z" style="fill:rgb(253,253,253);fill-rule:nonzero;"/>
        </g>
        <g transform="matrix(1,0,0,1,283,161)">
            <rect x="0" y="0" width="18" height="70" style="fill:rgb(252,252,252);fill-rule:nonzero;"/>
        </g>
        <g transform="matrix(1,0,0,1,300.938,132.688)">
            <path d="M0,0C1.578,3.435 1.86,6.657 1.063,10.313C-2.078,14.196 -4.225,16.115 -9.188,16.688C-14.012,16.205 -15.728,14.904 -18.938,11.313C-20.14,7.351 -20.409,5.35 -18.688,1.563C-14.893,-3.316 -14.893,-3.316 -11.688,-4.563C-7.064,-4.773 -3.455,-3.009 0,0Z" style="fill:rgb(252,252,252);fill-rule:nonzero;"/>
        </g>
    </g>
</svg>
