<?xml version="1.0" encoding="UTF-8" standalone="no"?>
<!DOCTYPE svg PUBLIC "-//W3C//DTD SVG 1.1//EN" "http://www.w3.org/Graphics/SVG/1.1/DTD/svg11.dtd">
<svg width="100%" height="100%" viewBox="0 0 1024 351" version="1.1" xmlns="http://www.w3.org/2000/svg" xmlns:xlink="http://www.w3.org/1999/xlink" xml:space="preserve" style="fill-rule:evenodd;clip-rule:evenodd;stroke-linejoin:round;stroke-miterlimit:2;">
    <g id="Symbian" transform="matrix(0.842092,0,0,0.842092,204.686,89.2001)">
        <path id="path5" d="M517.893,16.572C517.893,24.167 510.986,31.073 502.703,31.073C495.106,31.073 488.199,24.167 488.199,16.572C488.199,8.286 495.106,1.381 503.393,1.381C511.679,1.381 517.893,8.286 517.893,16.572Z" style="fill:white;"/>
        <path id="path7" d="M486.82,101.506C486.82,69.741 494.417,44.192 502.703,44.192C511.679,44.192 519.272,69.741 519.272,101.506C519.272,133.267 511.679,158.816 502.703,158.816C494.417,158.816 486.82,133.267 486.82,101.506Z" style="fill:white;"/>
        <path id="path9" d="M75.959,73.887C64.909,68.362 57.314,66.289 49.027,66.289C41.432,66.289 35.908,70.433 35.908,76.646C35.908,82.171 39.36,84.933 49.027,87.695L62.148,91.148C75.268,94.601 80.101,98.744 83.554,103.576C87.698,108.411 89.768,114.629 89.768,121.532C89.768,143.63 71.125,158.816 43.505,158.816C30.384,158.816 15.883,154.679 0,146.388L10.359,125.678C18.646,131.202 33.837,138.105 45.576,138.105C53.862,138.105 60.076,132.581 60.076,125.678C60.076,118.767 54.552,114.629 43.505,112.557L31.073,110.484C23.479,109.104 15.192,104.269 11.051,99.436C7.597,94.601 4.835,87.006 4.835,80.101C4.835,59.384 21.408,44.884 46.957,44.884C63.53,44.884 75.268,50.408 84.936,55.241L75.959,73.887Z" style="fill:white;"/>
        <path id="path11" d="M123.604,46.263L142.25,109.104C144.32,115.314 147.772,131.202 147.772,131.202C147.772,131.202 149.844,119.46 151.225,113.936C151.917,110.484 153.988,104.269 155.369,99.436L171.942,48.335L200.942,48.335L162.274,157.437C154.679,178.155 149.153,187.131 141.558,192.655C134.652,198.18 124.985,200.938 115.317,202.324L105.652,184.365C111.866,182.3 119.462,179.534 123.604,176.775C126.368,174.703 129.128,171.938 131.201,167.8C133.962,163.654 134.652,161.582 137.415,155.364C137.415,155.364 131.201,156.058 120.152,124.984L94.603,49.717L123.604,46.263Z" style="fill:white;"/>
        <path id="path13" d="M236.85,46.263C238.231,49.027 239.613,51.789 240.302,57.313C247.899,49.717 256.875,46.263 266.542,46.263C275.52,46.263 283.116,49.027 288.64,55.241C290.021,56.622 291.402,58.694 292.783,60.075C302.451,50.408 311.426,46.263 323.165,46.263C331.452,46.263 339.738,49.027 344.573,53.17C350.095,58.003 352.167,64.219 352.167,79.409L352.167,155.364L325.237,155.364L325.237,84.933C325.237,71.813 323.165,69.052 316.259,69.052C310.737,69.052 303.832,73.194 297.616,78.027L297.616,155.364L270.686,155.364L270.686,85.624C270.686,72.503 268.615,69.052 261.018,69.052C256.185,69.052 248.588,71.813 243.064,77.338L243.064,155.364L215.445,155.364L215.445,80.79C215.445,64.908 214.063,58.694 211.301,53.17L236.85,46.263Z" style="fill:white;"/>
        <path id="path15" d="M666.356,45.573C669.118,49.717 670.498,54.549 670.498,58.694C674.642,55.933 678.094,53.17 682.929,51.098C688.454,47.646 696.046,46.263 702.264,46.263C714.002,46.263 725.051,52.479 727.813,61.455C729.881,65.6 729.881,70.433 729.881,77.338L729.881,155.364L702.264,155.364L702.264,85.624C702.264,73.194 700.192,69.741 693.284,69.741C687.07,69.741 680.167,73.887 673.259,79.409L673.259,155.364L645.638,155.364L645.638,78.027C645.638,68.362 644.258,59.384 641.497,52.479L666.356,45.573Z" style="fill:white;"/>
        <path id="path17" d="M622.851,83.554C622.851,72.503 622.162,69.052 620.779,64.219C616.637,52.479 604.209,45.573 586.253,45.573C576.587,45.573 567.612,47.646 557.252,52.479C549.656,55.241 545.514,57.313 539.99,60.765L551.728,80.79C562.777,73.194 573.826,69.052 582.801,69.052C592.471,69.052 595.229,72.503 595.229,84.933L595.229,89.076L589.016,89.076C554.491,89.076 537.228,100.816 537.228,125.678C537.228,147.081 550.349,158.816 573.826,158.816C596.613,158.816 622.851,145.702 622.851,122.912L622.851,83.554ZM593.85,132.581C589.709,137.412 584.875,140.178 579.35,140.178C572.447,140.178 566.922,132.581 566.922,124.291C566.922,111.863 573.826,108.411 593.161,108.411L594.54,108.411L593.85,132.581Z" style="fill:white;"/>
        <path id="path19" d="M425.363,45.573C415.697,45.573 408.1,48.335 402.576,53.859C402.576,52.479 403.265,47.646 403.265,44.884L403.265,19.333C403.265,11.737 402.576,7.597 401.886,0L372.885,6.905C374.955,13.119 374.955,20.024 374.955,33.146L374.955,120.153C374.955,136.727 389.455,157.437 421.221,157.437C431.577,157.437 440.556,156.058 448.15,149.84C461.271,139.484 467.485,121.532 467.485,100.125C467.485,66.289 451.601,45.573 425.363,45.573ZM432.959,127.742C430.198,133.267 426.052,136.033 419.149,136.033C411.552,136.033 407.411,132.581 403.265,129.13L403.265,77.338C406.721,73.194 412.242,69.052 419.149,69.052C426.746,69.052 432.27,73.194 434.338,82.171C435.721,87.006 435.721,91.148 435.721,100.816C435.721,113.936 435.028,121.532 432.959,127.742Z" style="fill:white;"/>
    </g>
</svg>
