<?xml version="1.0" encoding="UTF-8" standalone="no"?>
<!DOCTYPE svg PUBLIC "-//W3C//DTD SVG 1.1//EN" "http://www.w3.org/Graphics/SVG/1.1/DTD/svg11.dtd">
<svg width="100%" height="100%" viewBox="0 0 1024 351" version="1.1" xmlns="http://www.w3.org/2000/svg" xmlns:xlink="http://www.w3.org/1999/xlink" xml:space="preserve" style="fill-rule:evenodd;clip-rule:evenodd;stroke-linejoin:round;stroke-miterlimit:2;">
    <g id="BMG" transform="matrix(6.43452,0,0,6.43452,180.878,62.7802)">
        <path d="M35.168,17.5C35.168,18.663 35.053,19.8 34.835,20.9L33.607,17.501L34.836,14.101C35.053,15.201 35.168,16.337 35.168,17.5ZM21.023,0.335L23.032,3.793L27.352,2.947C25.434,1.669 23.283,0.781 21.022,0.335L21.023,0.335ZM27.348,32.055L23.013,31.209L21.025,34.664C23.284,34.218 25.433,33.331 27.349,32.055L27.348,32.055ZM28.918,6.22L32.201,7.769C30.918,5.866 29.276,4.231 27.367,2.957L28.918,6.22ZM32.211,27.214C33.492,25.31 34.382,23.172 34.831,20.922L31.36,22.9L32.21,27.214L32.211,27.214ZM32.212,7.787L31.362,12.1L34.832,14.08C34.383,11.83 33.493,9.691 32.212,7.787ZM17.584,1.547L21.013,0.335C18.751,-0.111 16.423,-0.112 14.16,0.332L17.584,1.547ZM6.255,28.775L2.967,27.232C4.252,29.139 5.898,30.776 7.811,32.052L6.255,28.775ZM7.818,2.947L12.175,3.794L14.155,0.334C11.891,0.779 9.738,1.667 7.818,2.947ZM17.584,33.453L14.166,34.669C16.425,35.112 18.748,35.112 21.007,34.669L17.584,33.453ZM28.918,28.781L27.368,32.043C29.275,30.77 30.915,29.138 32.197,27.237L28.917,28.781L28.918,28.781ZM2.963,27.224L3.808,22.901L0.336,20.918C0.785,23.173 1.678,25.317 2.963,27.224ZM1.566,17.5L0.336,14.086L3.809,12.1L2.962,7.777C1.027,10.649 -0.005,14.036 0,17.5C0,18.669 0.116,19.81 0.336,20.915L1.566,17.5ZM14.153,34.666L12.133,31.21L7.823,32.056C9.741,33.333 11.892,34.22 14.153,34.666ZM6.255,6.226L7.814,2.949C5.898,4.226 4.25,5.865 2.964,7.775L6.255,6.226Z" style="fill:white;"/>
        <path d="M28.918,6.22L20.622,6.225L17.584,1.547L28.918,6.22L33.606,17.5L28.922,14.482M28.922,20.518L33.607,17.499L28.918,28.779L17.584,33.451L20.617,28.773L14.552,28.773L17.584,33.451L6.256,28.773L1.566,17.5L6.256,6.226L17.584,1.547L14.55,6.226L6.255,6.226L6.255,14.483L1.565,17.5L6.255,20.528L6.255,28.775L28.912,28.775" style="fill:white;fill-rule:nonzero;"/>
        <path d="M23.667,17.507L14.552,12.26L14.552,22.754L23.667,17.508L23.667,17.507Z" style="fill:white;fill-rule:nonzero;"/>
        <path d="M22.853,20.528L25.871,25.761L28.911,20.528L22.852,20.528L22.853,20.528ZM28.913,14.486L25.872,9.253L22.852,14.486L28.913,14.486ZM23.666,17.507L28.912,20.528L28.912,14.486L23.666,17.506L23.666,17.507ZM25.872,25.761L20.617,22.755L20.617,28.775L25.872,25.761ZM14.55,28.773L14.55,22.753L9.296,25.761L14.55,28.773ZM6.254,20.528L9.295,25.76L12.314,20.528L6.254,20.528ZM12.314,14.486L9.297,9.253L6.256,14.486L12.316,14.486L12.314,14.486ZM9.297,9.253L14.551,12.26L14.551,6.225L9.297,9.253ZM20.622,6.225L20.617,12.26L25.871,9.254L20.621,6.226L20.622,6.225ZM20.622,6.225L17.586,11.447L14.551,6.225L20.622,6.225ZM14.551,28.775L17.586,23.553L20.621,28.774L14.551,28.774L14.551,28.775ZM11.5,17.505L6.254,14.485L6.254,20.528L11.501,17.507L11.501,17.505L11.5,17.505ZM97.743,24.819L94.863,24.819C89.269,24.819 87.581,23.587 87.581,19.025L87.581,16.042C87.581,11.502 89.269,10.242 94.863,10.242L97.743,10.242C102.603,10.242 104.559,11.242 104.962,14.782L102.54,14.782C102.171,12.848 101.041,12.434 97.774,12.434L95.07,12.434C91.11,12.434 90.216,13.157 90.216,16.13L90.216,18.908C90.216,21.871 91.114,22.626 95.07,22.626L97.51,22.626C101.492,22.626 102.429,21.805 102.429,19.1L95.263,19.1L95.263,16.974L105,16.974L105,18.898C105,23.372 103.229,24.819 97.743,24.819ZM46.564,16.257L54.944,16.257C56.332,16.257 57.227,15.549 57.227,14.32C57.227,13.09 56.332,12.374 54.945,12.374L46.564,12.374L46.564,16.257ZM46.564,18.377L46.564,22.522L55.583,22.522C56.97,22.522 57.865,21.666 57.865,20.44C57.865,19.214 56.964,18.377 55.577,18.377L46.564,18.377ZM55.065,10.244C58.399,10.244 59.862,11.988 59.862,14.326C59.862,15.533 59.291,16.522 58.234,17.151C59.758,17.758 60.526,18.955 60.526,20.434C60.526,22.772 59.062,24.648 55.729,24.648L43.96,24.648L43.96,10.244L55.065,10.244ZM78.86,10.181C82.24,10.181 84.923,12.377 84.923,15.612L84.923,24.652L82.35,24.652L82.35,15.704C82.35,13.682 80.918,12.374 78.857,12.374C76.797,12.374 75.343,13.682 75.337,15.704L75.305,24.651L72.794,24.651L72.762,15.704C72.756,13.682 71.324,12.374 69.242,12.374C67.159,12.374 65.749,13.682 65.749,15.704L65.749,24.651L63.174,24.651L63.174,15.612C63.174,12.377 65.857,10.181 69.238,10.181C71.273,10.181 73.007,11.078 74.045,12.247C75.105,11.078 76.816,10.181 78.855,10.181L78.861,10.181L78.86,10.181Z" style="fill:white;fill-rule:nonzero;"/>
    </g>
</svg>
