<?xml version="1.0" encoding="UTF-8" standalone="no"?>
<!DOCTYPE svg PUBLIC "-//W3C//DTD SVG 1.1//EN" "http://www.w3.org/Graphics/SVG/1.1/DTD/svg11.dtd">
<svg width="100%" height="100%" viewBox="0 0 1024 351" version="1.1" xmlns="http://www.w3.org/2000/svg" style="fill-rule:evenodd;clip-rule:evenodd;stroke-linejoin:round;stroke-miterlimit:2;">
    <g id="Layer1" transform="matrix(0.939386,0,0,0.939386,31.0344,10.631)">
        <g id="path45824" transform="matrix(0.237274,0,0,0.237274,392.566,13.7332)">
            <path d="M375.538,309.4L375.538,512.695L203.735,724.836L39.183,724.836L375.538,309.4Z" style="fill:white;fill-rule:nonzero;"/>
        </g>
        <g id="path45820" transform="matrix(0.237274,0,0,0.237274,392.566,13.7332)">
            <rect x="248.131" y="1234.84" width="127.237" height="127.599" style="fill:white;fill-rule:nonzero;"/>
        </g>
        <g id="path45816" transform="matrix(0.237274,0,0,0.237274,392.566,13.7332)">
            <rect x="623.001" y="1235.01" width="285.372" height="127.595" style="fill:white;fill-rule:nonzero;"/>
        </g>
        <g id="path45812" transform="matrix(0.237274,0,0,0.237274,392.566,13.7332)">
            <rect x="435.372" y="972.025" width="127.961" height="390.409" style="fill:white;fill-rule:nonzero;"/>
        </g>
        <g id="path45808" transform="matrix(0.237274,0,0,0.237274,392.566,13.7332)">
            <rect x="-0" y="784.675" width="563.333" height="127.595" style="fill:white;fill-rule:nonzero;"/>
        </g>
        <g id="path45804" transform="matrix(0.237274,0,0,0.237274,392.566,13.7332)">
            <rect x="810.517" y="784.557" width="196.201" height="127.595" style="fill:white;fill-rule:nonzero;"/>
        </g>
        <g id="path45800" transform="matrix(0.237274,0,0,0.237274,392.566,13.7332)">
            <path d="M750.596,175.672L750.596,1175.17L622.997,1175.17L622.997,333.271L750.596,175.672Z" style="fill:white;fill-rule:nonzero;"/>
        </g>
        <g id="path45796" transform="matrix(0.237274,0,0,0.237274,392.566,13.7332)">
            <path d="M563.333,77.454L563.333,724.836L435.372,724.836L435.372,235.498L563.333,77.454Z" style="fill:white;fill-rule:nonzero;"/>
        </g>
        <g id="path45792" transform="matrix(0.237274,0,0,0.237274,392.566,13.7332)">
            <path d="M636.629,-0L744.881,87.649L623.001,238.054L623.001,16.826L636.629,-0Z" style="fill:white;fill-rule:nonzero;"/>
        </g>
    </g>
</svg>
