<?xml version="1.0" encoding="UTF-8" standalone="no"?>
<!DOCTYPE svg PUBLIC "-//W3C//DTD SVG 1.1//EN" "http://www.w3.org/Graphics/SVG/1.1/DTD/svg11.dtd">
<svg width="100%" height="100%" viewBox="0 0 1024 351" version="1.1" xmlns="http://www.w3.org/2000/svg"  style="fill-rule:evenodd;clip-rule:evenodd;stroke-linejoin:round;stroke-miterlimit:2;">
    <g id="Layer" transform="matrix(0.425909,0,0,0.425909,177.661,96.8077)">
        <g id="Layer1">
            <path id="Layer2" d="M1085.3,11.2L1137.3,11.2L1137.3,357.8L1085.3,357.8L1085.3,11.2ZM709.4,184.5C709.6,294.7 630.8,363.7 529.4,363.7C428,363.7 349.4,294.7 349.4,184.5C349.4,79 428,5.3 529.4,5.3C630.8,5.3 709.3,84.5 709.4,184.5ZM529.4,54.6C458.7,54.6 401.3,107.8 401.3,184.5C401.3,262.6 458.7,314.3 529.4,314.3C600.1,314.3 657.5,262.6 657.5,184.5C657.5,107.8 600.1,54.6 529.4,54.6ZM329.1,294.8L329.1,369L53.1,121.3L53.1,357.7L-0,357.7L-0,-0L329.1,294.8ZM941.7,11.2L1019.1,11.2L825.7,184.4L1019.1,357.7L941.7,357.7L748.6,184.4L941.7,11.2ZM1570,357.8L1512.8,357.8L1470.9,281L1281.4,281L1239.5,357.8L1182.3,357.8L1251.6,229.9L1443.7,229.9L1347.9,52.1L1376.2,-0L1570,357.8Z" style="fill:white;"/>
        </g>
    </g>
</svg>
