<svg xmlns="http://www.w3.org/2000/svg" xml:space="preserve" style="fill-rule:evenodd;clip-rule:evenodd;stroke-linejoin:round;stroke-miterlimit:2" viewBox="0 0 1024 351"><path d="M1324.02 115.137c0-24.263 12.94-40.71 31.55-40.71 21.03 0 33.43 15.366 33.43 40.71 0 25.343-12.4 40.978-33.43 40.978-18.6.002-31.55-16.713-31.55-40.978m24.54 70.096c17.52 0 31-7.28 40.44-19.41l2.69 16.715h30.47V47.737h-30.47L1389 64.452c-9.44-12.132-22.92-19.41-40.44-19.41-36.13 0-59.58 30.465-59.58 70.097s23.45 70.094 59.58 70.094M1234.52 33.172h33.97V.012h-33.97zm0 149.364h33.97V47.737h-33.97zm-74.41 2.697c34.51 0 56.08-17.254 56.08-44.483 0-20.219-10.52-33.159-31.28-37.205l-31-5.663c-10.52-1.887-15.37-5.93-15.37-12.939 0-7.819 8.36-12.941 20.49-12.941s20.76 5.663 22.92 13.75h32.08c-2.43-24.802-23.46-40.71-54.46-40.71-33.43 0-54.19 16.445-54.19 42.327 0 20.22 12.67 34.508 35.86 39.091l31 5.662c7.01 1.349 10.79 5.663 10.79 11.594 0 9.167-8.36 14.559-22.65 14.559-14.56 0-23.72-6.47-25.61-17.525h-33.7c1.61 27.497 24.26 44.483 59.04 44.483M994.311 99.77c2.965-16.176 16.449-27.768 32.349-27.768 17.26 0 28.04 9.707 31.01 27.768zm32.349 85.463c33.97 0 58.78-17.793 60.93-44.483h-31.27c-2.7 10.514-12.94 17.525-29.66 17.525-17.52 0-32.888-14.559-33.157-34.508h95.977c0-2.427.27-4.853.27-9.436 0-42.597-24.26-69.287-63.08-69.287-38.557 0-65.517 28.309-65.517 70.097s26.958 70.092 65.507 70.092m-204.353-2.697h33.969v-77.913c0-18.332 11.594-30.194 27.229-30.194 14.827 0 24.802 10.245 24.802 28.038v80.071h33.969V98.421c0-32.62-18.063-53.381-46.37-53.381-17.254 0-31.274 7.009-39.632 18.871V0h-33.967zm-51.76 0h32.352v-28.038h-20.22c-7.009 0-12.132-5.122-12.132-12.133v-66.59h32.352V47.737h-32.352V8.126h-33.969v39.611h-22.917v28.038h22.917v72.792c0 19.68 14.288 33.969 33.969 33.969m-189.797 0h33.969v-77.913c0-18.332 11.593-30.194 27.228-30.194 14.828 0 24.803 10.245 24.803 28.038v80.071h33.969V98.421c0-32.62-18.064-53.381-46.37-53.381-17.793 0-32.082 7.548-40.44 20.22l-2.695-17.525H580.75zm-132.102 46.911h34.24c14.02 0 25.882-8.628 30.194-21.836l52.84-159.872h-35.857l-28.038 93.011-28.038-93.011h-35.316l45.563 137.764c2.695 7.819-1.617 16.177-10.784 16.177H448.65zm-69.016-44.214c34.508 0 56.076-17.254 56.076-44.483 0-20.219-10.514-33.159-31.274-37.205l-31.004-5.663c-10.513-1.887-15.366-5.93-15.366-12.939 0-7.819 8.357-12.941 20.49-12.941s20.758 5.663 22.916 13.75h32.082c-2.427-24.802-23.456-40.71-54.459-40.71-33.431 0-54.189 16.445-54.189 42.327 0 20.22 12.671 34.508 35.857 39.091l31.003 5.662c7.009 1.349 10.784 5.663 10.784 11.594 0 9.167-8.357 14.559-22.646 14.559-14.559 0-23.724-6.47-25.612-17.525h-33.7c1.617 27.497 24.263 44.483 59.042 44.483M46.066 200.989H193.69c36.367 0 59.534-22.358 63.306-56.571l7.543-70.849h-50.916l-7.003 64.654c-.809 8.621-6.197 13.468-15.087 13.468H50.915zm4.849-49.298 7.004-64.654c.809-8.621 6.196-13.468 15.086-13.468h140.618l4.852-49.297H70.849c-36.368 0-59.535 22.36-63.307 56.571L0 151.691z" style="fill:#fff;fill-rule:nonzero" transform="translate(24.943 96.806)scale(.68495)"/></svg>