<?xml version="1.0" encoding="UTF-8"?>
<!DOCTYPE svg  PUBLIC '-//W3C//DTD SVG 1.1//EN'  'http://www.w3.org/Graphics/SVG/1.1/DTD/svg11.dtd'>
<svg width="722" height="3659" clip-rule="evenodd" fill-rule="evenodd" stroke-linejoin="round" stroke-miterlimit="2" version="1.1" viewBox="0 0 722 3659" xml:space="preserve" xmlns="http://www.w3.org/2000/svg">
    <g transform="scale(1 .99291)">
        <rect width="721.21" height="3684.4" fill="none"/>
        <clipPath id="c">
            <rect width="721.21" height="3684.4"/>
        </clipPath>
        <g clip-path="url(#c)">
            <g transform="scale(1 1.0152)">
                <rect width="721.21" height="3655.2" fill="none"/>
                
                    <clipPath id="b">
                        <rect width="721.21" height="3655.2"/>
                    </clipPath>
                    <g clip-path="url(#b)">
                        <g transform="matrix(1 0 0 .99206 -1722.7 159.67)">
                            <rect x="1722.7" y="-160.95" width="721.21" height="3655.2" fill="none"/>
                            
                                <clipPath id="a">
                                    <rect x="1722.7" y="-160.95" width="721.21" height="3655.2"/>
                                </clipPath>
                                <g clip-path="url(#a)">
                                    <g transform="matrix(4.1667 0 0 4.1667 .727 .047933)">
                                        <g transform="matrix(6.1232e-17 -1 1 6.1232e-17 99.815 893.8)">
                                            <path d="m61.371 408.14v-16.291c0-1.416 1.148-2.565 2.565-2.565s2.566 1.149 2.566 2.565v16.291c0 1.417-1.149 2.566-2.566 2.566s-2.565-1.149-2.565-2.566z" fill="#0d58d388" fill-rule="nonzero"/>
                                        </g>
                                        <g transform="matrix(6.1232e-17 -1 1 6.1232e-17 99.815 893.8)">
                                            <path d="m73.557 424.4v-48.792c0-1.417 1.149-2.565 2.566-2.565s2.566 1.148 2.566 2.565v48.792c0 1.417-1.149 2.565-2.566 2.565s-2.566-1.148-2.566-2.565z" fill="#0d58d388" fill-rule="nonzero"/>
                                        </g>
                                        <g transform="matrix(6.1232e-17 -1 1 6.1232e-17 99.815 893.8)">
                                            <path d="m85.745 450.91v-101.82c0-1.417 1.148-2.566 2.565-2.566s2.566 1.149 2.566 2.566v101.82c0 1.417-1.149 2.566-2.566 2.566s-2.565-1.149-2.565-2.566z" fill="#0d58d388" fill-rule="nonzero"/>
                                        </g>
                                        <g transform="matrix(6.1232e-17 -1 1 6.1232e-17 99.815 893.8)">
                                            <path d="m97.931 483.98v-167.96c0-1.417 1.149-2.565 2.566-2.565h2.566v170.52c0 1.416-1.149 2.565-2.566 2.565s-2.566-1.149-2.566-2.565v5e-3z" fill="#0d58d388" fill-rule="nonzero"/>
                                        </g>
                                        <g transform="matrix(6.1232e-17 -1 1 6.1232e-17 99.815 893.8)">
                                            <path d="m110.12 432.24v-64.472c0-1.417 1.15-2.565 2.567-2.565s2.565 1.148 2.565 2.565v64.472c0 1.417-1.148 2.565-2.565 2.565s-2.567-1.148-2.567-2.565z" fill="#0d58d388" fill-rule="nonzero"/>
                                        </g>
                                        <g transform="matrix(6.1232e-17 -1 1 6.1232e-17 99.815 893.8)">
                                            <path d="m122.31 419.83v-39.668c0-1.417 1.148-2.566 2.565-2.566s2.567 1.149 2.567 2.566v39.668c0 1.417-1.15 2.566-2.567 2.566s-2.565-1.149-2.565-2.566z" fill="#0d58d388" fill-rule="nonzero"/>
                                        </g>
                                        <g transform="matrix(6.1232e-17 -1 1 6.1232e-17 99.815 893.8)">
                                            <path d="m134.49 453.62v-107.24c0-1.416 1.15-2.565 2.567-2.565s2.565 1.149 2.565 2.565v107.24c0 1.417-1.148 2.566-2.565 2.566s-2.567-1.149-2.567-2.566z" fill="#0d58d388" fill-rule="nonzero"/>
                                        </g>
                                        <g transform="matrix(6.1232e-17 -1 1 6.1232e-17 99.815 893.8)">
                                            <path d="m146.68 432.24v-64.472c0-1.417 1.148-2.565 2.565-2.565s2.566 1.148 2.566 2.565v64.472c0 1.417-1.149 2.565-2.566 2.565s-2.565-1.148-2.565-2.565z" fill="#0d58d388" fill-rule="nonzero"/>
                                        </g>
                                        <g transform="matrix(6.1232e-17 -1 1 6.1232e-17 99.815 893.8)">
                                            <path d="m161.1 475.79c-1.417 0-2.566-1.148-2.566-2.565v-146.45c0-1.417 1.149-2.565 2.566-2.565s2.566 1.148 2.566 2.565v146.45c0 1.417-1.149 2.565-2.566 2.565z" fill="#0d58d388" fill-rule="nonzero"/>
                                        </g>
                                        <g transform="matrix(6.1232e-17 -1 1 6.1232e-17 99.819 895.82)">
                                            <path d="m274.98 408.14v-16.291c0-1.416-1.15-2.565-2.567-2.565s-2.565 1.149-2.565 2.565v16.291c0 1.417 1.148 2.566 2.565 2.566s2.567-1.149 2.567-2.566z" fill="#0d58d388" fill-rule="nonzero"/>
                                        </g>
                                        <g transform="matrix(6.1232e-17 -1 1 6.1232e-17 99.819 895.82)">
                                            <path d="m262.79 424.4v-48.792c0-1.417-1.148-2.565-2.565-2.565s-2.566 1.148-2.566 2.565v48.792c0 1.417 1.149 2.565 2.566 2.565s2.565-1.148 2.565-2.565z" fill="#0d58d388" fill-rule="nonzero"/>
                                        </g>
                                        <g transform="matrix(6.1232e-17 -1 1 6.1232e-17 99.819 895.82)">
                                            <path d="m250.6 450.91v-101.82c0-1.417-1.15-2.566-2.566-2.566h-1e-3c-1.417 0-2.565 1.149-2.565 2.566v101.82c0 1.417 1.148 2.566 2.565 2.566h1e-3c1.416 0 2.566-1.149 2.566-2.566z" fill="#0d58d388" fill-rule="nonzero"/>
                                        </g>
                                        <g transform="matrix(6.1232e-17 -1 1 6.1232e-17 99.819 895.82)">
                                            <path d="m238.42 483.98v-167.96c0-1.417-1.148-2.565-2.565-2.565h-2.566v170.52c0 1.416 1.149 2.565 2.566 2.565s2.565-1.149 2.565-2.565v5e-3z" fill="#0d58d388" fill-rule="nonzero"/>
                                        </g>
                                        <g transform="matrix(6.1232e-17 -1 1 6.1232e-17 99.819 895.82)">
                                            <path d="m226.23 432.24v-64.472c0-1.417-1.149-2.565-2.565-2.565h-1e-3c-1.417 0-2.565 1.148-2.565 2.565v64.472c0 1.417 1.148 2.565 2.565 2.565h1e-3c1.416 0 2.565-1.148 2.565-2.565z" fill="#0d58d388" fill-rule="nonzero"/>
                                        </g>
                                        <g transform="matrix(6.1232e-17 -1 1 6.1232e-17 99.819 895.82)">
                                            <path d="m214.04 419.83v-39.668c0-1.417-1.148-2.566-2.565-2.566s-2.566 1.149-2.566 2.566v39.668c0 1.417 1.149 2.566 2.566 2.566s2.565-1.149 2.565-2.566z" fill="#0d58d388" fill-rule="nonzero"/>
                                        </g>
                                        <g transform="matrix(6.1232e-17 -1 1 6.1232e-17 99.819 895.82)">
                                            <path d="m201.86 453.62v-107.24c0-1.416-1.148-2.565-2.565-2.565h-1e-3c-1.417 0-2.565 1.149-2.565 2.565v107.24c0 1.417 1.148 2.566 2.565 2.566h1e-3c1.417 0 2.565-1.149 2.565-2.566z" fill="#0d58d388" fill-rule="nonzero"/>
                                        </g>
                                        <g transform="matrix(6.1232e-17 -1 1 6.1232e-17 99.819 895.82)">
                                            <path d="m189.67 432.24v-64.472c0-1.417-1.148-2.565-2.565-2.565s-2.566 1.148-2.566 2.565v64.472c0 1.417 1.149 2.565 2.566 2.565s2.565-1.148 2.565-2.565z" fill="#0d58d388" fill-rule="nonzero"/>
                                        </g>
                                        <g transform="matrix(6.1232e-17 -1 1 6.1232e-17 99.819 895.82)">
                                            <path d="m175.25 475.79c1.417 0 2.565-1.148 2.565-2.565v-146.45c0-1.417-1.148-2.565-2.565-2.565s-2.565 1.148-2.565 2.565v146.45c0 1.417 1.148 2.565 2.565 2.565z" fill="#0d58d388" fill-rule="nonzero"/>
                                        </g>
                                        <g transform="matrix(6.1232e-17 -1 1 6.1232e-17 99.819 895.82)">
                                            <path d="m280.87 408.14v-16.291c0-1.416 1.149-2.565 2.566-2.565s2.566 1.149 2.566 2.565v16.291c0 1.417-1.149 2.566-2.566 2.566s-2.566-1.149-2.566-2.566z" fill="#0d58d388" fill-rule="nonzero"/>
                                        </g>
                                        <g transform="matrix(6.1232e-17 -1 1 6.1232e-17 99.819 895.82)">
                                            <path d="m293.06 424.4v-48.792c0-1.417 1.148-2.565 2.565-2.565s2.565 1.148 2.565 2.565v48.792c0 1.417-1.148 2.565-2.565 2.565s-2.565-1.148-2.565-2.565z" fill="#0d58d388" fill-rule="nonzero"/>
                                        </g>
                                        <g transform="matrix(6.1232e-17 -1 1 6.1232e-17 99.819 895.82)">
                                            <path d="m305.25 450.91v-101.82c0-1.417 1.149-2.566 2.566-2.566h1e-3c1.416 0 2.565 1.149 2.565 2.566v101.82c0 1.417-1.149 2.566-2.565 2.566h-1e-3c-1.417 0-2.566-1.149-2.566-2.566z" fill="#0d58d388" fill-rule="nonzero"/>
                                        </g>
                                        <g transform="matrix(6.1232e-17 -1 1 6.1232e-17 99.819 895.82)">
                                            <path d="m317.43 483.98v-167.96c0-1.417 1.148-2.565 2.565-2.565h2.565v170.52c0 1.416-1.148 2.565-2.565 2.565s-2.565-1.149-2.565-2.565v5e-3z" fill="#0d58d388" fill-rule="nonzero"/>
                                        </g>
                                        <g transform="matrix(6.1232e-17 -1 1 6.1232e-17 99.819 895.82)">
                                            <path d="m329.62 432.24v-64.472c0-1.417 1.149-2.565 2.566-2.565h1e-3c1.417 0 2.565 1.148 2.565 2.565v64.472c0 1.417-1.148 2.565-2.565 2.565h-1e-3c-1.417 0-2.566-1.148-2.566-2.565z" fill="#0d58d388" fill-rule="nonzero"/>
                                        </g>
                                        <g transform="matrix(6.1232e-17 -1 1 6.1232e-17 99.819 895.82)">
                                            <path d="m341.81 419.83v-39.668c0-1.417 1.148-2.566 2.565-2.566s2.565 1.149 2.565 2.566v39.668c0 1.417-1.148 2.566-2.565 2.566s-2.565-1.149-2.565-2.566z" fill="#0d58d388" fill-rule="nonzero"/>
                                        </g>
                                        <g transform="matrix(6.1232e-17 -1 1 6.1232e-17 99.819 895.82)">
                                            <path d="m353.99 453.62v-107.24c0-1.416 1.149-2.565 2.566-2.565h1e-3c1.417 0 2.565 1.149 2.565 2.565v107.24c0 1.417-1.148 2.566-2.565 2.566h-1e-3c-1.417 0-2.566-1.149-2.566-2.566z" fill="#0d58d388" fill-rule="nonzero"/>
                                        </g>
                                        <g transform="matrix(6.1232e-17 -1 1 6.1232e-17 99.819 895.82)">
                                            <path d="m366.18 432.24v-64.472c0-1.417 1.148-2.565 2.565-2.565s2.566 1.148 2.566 2.565v64.472c0 1.417-1.149 2.565-2.566 2.565s-2.565-1.148-2.565-2.565z" fill="#0d58d388" fill-rule="nonzero"/>
                                        </g>
                                        <g transform="matrix(6.1232e-17 -1 1 6.1232e-17 99.819 895.82)">
                                            <path d="m380.6 475.79c-1.417 0-2.566-1.148-2.566-2.565v-146.45c0-1.417 1.149-2.565 2.566-2.565s2.565 1.148 2.565 2.565v146.45c0 1.417-1.148 2.565-2.565 2.565z" fill="#0d58d388" fill-rule="nonzero"/>
                                        </g>
                                        <g transform="matrix(6.1232e-17 -1 1 6.1232e-17 99.819 898.03)">
                                            <path d="m494.48 408.14v-16.291c0-1.416-1.149-2.565-2.566-2.565s-2.566 1.149-2.566 2.565v16.291c0 1.417 1.149 2.566 2.566 2.566s2.566-1.149 2.566-2.566z" fill="#0d58d388" fill-rule="nonzero"/>
                                        </g>
                                        <g transform="matrix(6.1232e-17 -1 1 6.1232e-17 99.819 898.03)">
                                            <path d="m482.29 424.4v-48.792c0-1.417-1.148-2.565-2.565-2.565s-2.566 1.148-2.566 2.565v48.792c0 1.417 1.149 2.565 2.566 2.565s2.565-1.148 2.565-2.565z" fill="#0d58d388" fill-rule="nonzero"/>
                                        </g>
                                        <g transform="matrix(6.1232e-17 -1 1 6.1232e-17 99.819 898.03)">
                                            <path d="m470.1 450.91v-101.82c0-1.417-1.148-2.566-2.565-2.566s-2.566 1.149-2.566 2.566v101.82c0 1.417 1.149 2.566 2.566 2.566s2.565-1.149 2.565-2.566z" fill="#0d58d388" fill-rule="nonzero"/>
                                        </g>
                                        <g transform="matrix(6.1232e-17 -1 1 6.1232e-17 99.819 898.03)">
                                            <path d="m457.92 483.98v-167.96c0-1.417-1.149-2.565-2.566-2.565h-2.566v170.52c0 1.416 1.149 2.565 2.566 2.565s2.566-1.149 2.566-2.565v5e-3z" fill="#0d58d388" fill-rule="nonzero"/>
                                        </g>
                                        <g transform="matrix(6.1232e-17 -1 1 6.1232e-17 99.819 898.03)">
                                            <path d="m445.73 432.24v-64.472c0-1.417-1.148-2.565-2.565-2.565s-2.566 1.148-2.566 2.565v64.472c0 1.417 1.149 2.565 2.566 2.565s2.565-1.148 2.565-2.565z" fill="#0d58d388" fill-rule="nonzero"/>
                                        </g>
                                        <g transform="matrix(6.1232e-17 -1 1 6.1232e-17 99.819 898.03)">
                                            <path d="m433.54 419.83v-39.668c0-1.417-1.149-2.566-2.566-2.566s-2.566 1.149-2.566 2.566v39.668c0 1.417 1.149 2.566 2.566 2.566s2.566-1.149 2.566-2.566z" fill="#0d58d388" fill-rule="nonzero"/>
                                        </g>
                                        <g transform="matrix(6.1232e-17 -1 1 6.1232e-17 99.819 898.03)">
                                            <path d="m421.36 453.62v-107.24c0-1.416-1.148-2.565-2.565-2.565s-2.565 1.149-2.565 2.565v107.24c0 1.417 1.148 2.566 2.565 2.566s2.565-1.149 2.565-2.566z" fill="#0d58d388" fill-rule="nonzero"/>
                                        </g>
                                        <g transform="matrix(6.1232e-17 -1 1 6.1232e-17 99.819 898.03)">
                                            <path d="m409.17 432.24v-64.472c0-1.417-1.149-2.565-2.566-2.565s-2.566 1.148-2.566 2.565v64.472c0 1.417 1.149 2.565 2.566 2.565s2.566-1.148 2.566-2.565z" fill="#0d58d388" fill-rule="nonzero"/>
                                        </g>
                                        <g transform="matrix(6.1232e-17 -1 1 6.1232e-17 99.819 898.03)">
                                            <path d="m394.75 475.79c1.417 0 2.566-1.148 2.566-2.565v-146.45c0-1.417-1.149-2.565-2.566-2.565s-2.565 1.148-2.565 2.565v146.45c0 1.417 1.148 2.565 2.565 2.565z" fill="#0d58d388" fill-rule="nonzero"/>
                                        </g>
                                        <g transform="matrix(6.1232e-17 -1 1 6.1232e-17 99.819 898.03)">
                                            <path d="m502.95 408.14v-16.291c0-1.416 1.149-2.565 2.566-2.565s2.566 1.149 2.566 2.565v16.291c0 1.417-1.149 2.566-2.566 2.566s-2.566-1.149-2.566-2.566z" fill="#0d58d388" fill-rule="nonzero"/>
                                        </g>
                                        <g transform="matrix(6.1232e-17 -1 1 6.1232e-17 99.819 898.03)">
                                            <path d="m515.13 424.4v-48.792c0-1.417 1.15-2.565 2.567-2.565s2.566 1.148 2.566 2.565v48.792c0 1.417-1.149 2.565-2.566 2.565s-2.567-1.148-2.567-2.565z" fill="#0d58d388" fill-rule="nonzero"/>
                                        </g>
                                        <g transform="matrix(6.1232e-17 -1 1 6.1232e-17 99.819 898.03)">
                                            <path d="m527.32 450.91v-101.82c0-1.417 1.149-2.566 2.566-2.566s2.565 1.149 2.565 2.566v101.82c0 1.417-1.148 2.566-2.565 2.566s-2.566-1.149-2.566-2.566z" fill="#0d58d388" fill-rule="nonzero"/>
                                        </g>
                                        <g transform="matrix(6.1232e-17 -1 1 6.1232e-17 99.819 898.03)">
                                            <path d="m539.51 483.98v-167.96c0-1.417 1.149-2.565 2.566-2.565h2.566v170.52c0 1.416-1.149 2.565-2.566 2.565s-2.566-1.149-2.566-2.565v5e-3z" fill="#0d58d388" fill-rule="nonzero"/>
                                        </g>
                                        <g transform="matrix(6.1232e-17 -1 1 6.1232e-17 99.819 898.03)">
                                            <path d="m551.7 432.24v-64.472c0-1.417 1.149-2.565 2.566-2.565s2.565 1.148 2.565 2.565v64.472c0 1.417-1.148 2.565-2.565 2.565s-2.566-1.148-2.566-2.565z" fill="#0d58d388" fill-rule="nonzero"/>
                                        </g>
                                        <g transform="matrix(6.1232e-17 -1 1 6.1232e-17 99.819 898.03)">
                                            <path d="m563.88 419.83v-39.668c0-1.417 1.149-2.566 2.566-2.566 1.416 0 2.566 1.149 2.566 2.566v39.668c0 1.417-1.15 2.566-2.566 2.566-1.417 0-2.566-1.149-2.566-2.566z" fill="#0d58d388" fill-rule="nonzero"/>
                                        </g>
                                        <g transform="matrix(6.1232e-17 -1 1 6.1232e-17 99.819 898.03)">
                                            <path d="m576.07 453.62v-107.24c0-1.416 1.149-2.565 2.566-2.565s2.565 1.149 2.565 2.565v107.24c0 1.417-1.148 2.566-2.565 2.566s-2.566-1.149-2.566-2.566z" fill="#0d58d388" fill-rule="nonzero"/>
                                        </g>
                                        <g transform="matrix(6.1232e-17 -1 1 6.1232e-17 99.819 898.03)">
                                            <path d="m588.26 432.24v-64.472c0-1.417 1.149-2.565 2.565-2.565h1e-3c1.416 0 2.566 1.148 2.566 2.565v64.472c0 1.417-1.15 2.565-2.566 2.565h-1e-3c-1.416 0-2.565-1.148-2.565-2.565z" fill="#0d58d388" fill-rule="nonzero"/>
                                        </g>
                                        <g transform="matrix(6.1232e-17 -1 1 6.1232e-17 99.819 898.03)">
                                            <path d="m602.67 475.79c-1.417 0-2.567-1.148-2.567-2.565v-146.45c0-1.417 1.15-2.565 2.567-2.565 1.416 0 2.565 1.148 2.565 2.565v146.45c0 1.417-1.149 2.565-2.565 2.565z" fill="#0d58d388" fill-rule="nonzero"/>
                                        </g>
                                        <g transform="matrix(6.1232e-17 -1 1 6.1232e-17 99.819 898.03)">
                                            <path d="m716.55 408.14v-16.291c0-1.416-1.149-2.565-2.566-2.565h-1e-3c-1.417 0-2.565 1.149-2.565 2.565v16.291c0 1.417 1.148 2.566 2.565 2.566h1e-3c1.417 0 2.566-1.149 2.566-2.566z" fill="#0d58d388" fill-rule="nonzero"/>
                                        </g>
                                        <g transform="matrix(6.1232e-17 -1 1 6.1232e-17 99.819 898.03)">
                                            <path d="m704.37 424.4v-48.792c0-1.417-1.148-2.565-2.565-2.565s-2.566 1.148-2.566 2.565v48.792c0 1.417 1.149 2.565 2.566 2.565s2.565-1.148 2.565-2.565z" fill="#0d58d388" fill-rule="nonzero"/>
                                        </g>
                                        <g transform="matrix(6.1232e-17 -1 1 6.1232e-17 99.819 898.03)">
                                            <path d="m692.18 450.91v-101.82c0-1.417-1.149-2.566-2.566-2.566h-1e-3c-1.417 0-2.565 1.149-2.565 2.566v101.82c0 1.417 1.148 2.566 2.565 2.566h1e-3c1.417 0 2.566-1.149 2.566-2.566z" fill="#0d58d388" fill-rule="nonzero"/>
                                        </g>
                                        <g transform="matrix(6.1232e-17 -1 1 6.1232e-17 99.819 898.03)">
                                            <path d="m679.99 483.98v-167.96c0-1.417-1.148-2.565-2.565-2.565h-2.566v170.52c0 1.416 1.149 2.565 2.566 2.565s2.565-1.149 2.565-2.565v5e-3z" fill="#0d58d388" fill-rule="nonzero"/>
                                        </g>
                                        <g transform="matrix(6.1232e-17 -1 1 6.1232e-17 99.819 898.03)">
                                            <path d="m667.81 432.24v-64.472c0-1.417-1.149-2.565-2.566-2.565h-1e-3c-1.417 0-2.565 1.148-2.565 2.565v64.472c0 1.417 1.148 2.565 2.565 2.565h1e-3c1.417 0 2.566-1.148 2.566-2.565z" fill="#0d58d388" fill-rule="nonzero"/>
                                        </g>
                                        <g transform="matrix(6.1232e-17 -1 1 6.1232e-17 99.819 898.03)">
                                            <path d="m655.62 419.83v-39.668c0-1.417-1.148-2.566-2.565-2.566s-2.566 1.149-2.566 2.566v39.668c0 1.417 1.149 2.566 2.566 2.566s2.565-1.149 2.565-2.566z" fill="#0d58d388" fill-rule="nonzero"/>
                                        </g>
                                        <g transform="matrix(6.1232e-17 -1 1 6.1232e-17 99.819 898.03)">
                                            <path d="m643.43 453.62v-107.24c0-1.416-1.149-2.565-2.566-2.565h-1e-3c-1.417 0-2.565 1.149-2.565 2.565v107.24c0 1.417 1.148 2.566 2.565 2.566h1e-3c1.417 0 2.566-1.149 2.566-2.566z" fill="#0d58d388" fill-rule="nonzero"/>
                                        </g>
                                        <g transform="matrix(6.1232e-17 -1 1 6.1232e-17 99.819 898.03)">
                                            <path d="m631.24 432.24v-64.472c0-1.417-1.148-2.565-2.565-2.565s-2.566 1.148-2.566 2.565v64.472c0 1.417 1.149 2.565 2.566 2.565s2.565-1.148 2.565-2.565z" fill="#0d58d388" fill-rule="nonzero"/>
                                        </g>
                                        <g transform="matrix(6.1232e-17 -1 1 6.1232e-17 99.819 898.03)">
                                            <path d="m616.83 475.79c1.417 0 2.566-1.148 2.566-2.565v-146.45c0-1.417-1.149-2.565-2.566-2.565s-2.565 1.148-2.565 2.565v146.45c0 1.417 1.148 2.565 2.565 2.565z" fill="#0d58d388" fill-rule="nonzero"/>
                                        </g>
                                        <g transform="matrix(6.1232e-17 -1 1 6.1232e-17 99.819 898.03)">
                                            <path d="m725.02 408.14v-16.291c0-1.416 1.15-2.565 2.567-2.565s2.565 1.149 2.565 2.565v16.291c0 1.417-1.148 2.566-2.565 2.566s-2.567-1.149-2.567-2.566z" fill="#0d58d388" fill-rule="nonzero"/>
                                        </g>
                                        <g transform="matrix(6.1232e-17 -1 1 6.1232e-17 99.819 898.03)">
                                            <path d="m737.21 424.4v-48.792c0-1.417 1.148-2.565 2.565-2.565s2.566 1.148 2.566 2.565v48.792c0 1.417-1.149 2.565-2.566 2.565s-2.565-1.148-2.565-2.565z" fill="#0d58d388" fill-rule="nonzero"/>
                                        </g>
                                        <g transform="matrix(6.1232e-17 -1 1 6.1232e-17 99.819 898.03)">
                                            <path d="m749.4 450.91v-101.82c0-1.417 1.149-2.566 2.566-2.566s2.565 1.149 2.565 2.566v101.82c0 1.417-1.148 2.566-2.565 2.566s-2.566-1.149-2.566-2.566z" fill="#0d58d388" fill-rule="nonzero"/>
                                        </g>
                                        <g transform="matrix(6.1232e-17 -1 1 6.1232e-17 99.819 898.03)">
                                            <path d="m761.58 483.98v-167.96c0-1.417 1.148-2.565 2.565-2.565h2.566v170.52c0 1.416-1.149 2.565-2.566 2.565s-2.565-1.149-2.565-2.565v5e-3z" fill="#0d58d388" fill-rule="nonzero"/>
                                        </g>
                                        <g transform="matrix(6.1232e-17 -1 1 6.1232e-17 99.819 898.03)">
                                            <path d="m773.77 432.24v-64.472c0-1.417 1.149-2.565 2.565-2.565h1e-3c1.417 0 2.565 1.148 2.565 2.565v64.472c0 1.417-1.148 2.565-2.565 2.565h-1e-3c-1.416 0-2.565-1.148-2.565-2.565z" fill="#0d58d388" fill-rule="nonzero"/>
                                        </g>
                                        <g transform="matrix(6.1232e-17 -1 1 6.1232e-17 99.819 898.03)">
                                            <path d="m785.96 419.83v-39.668c0-1.417 1.148-2.566 2.565-2.566s2.566 1.149 2.566 2.566v39.668c0 1.417-1.149 2.566-2.566 2.566s-2.565-1.149-2.565-2.566z" fill="#0d58d388" fill-rule="nonzero"/>
                                        </g>
                                        <g transform="matrix(6.1232e-17 -1 1 6.1232e-17 99.819 897.98)">
                                            <path d="m798.14 453.62v-107.24c0-1.416 1.148-2.565 2.565-2.565h1e-3c1.417 0 2.565 1.149 2.565 2.565v107.24c0 1.417-1.148 2.566-2.565 2.566h-1e-3c-1.417 0-2.565-1.149-2.565-2.566z" fill="#0d58d388" fill-rule="nonzero"/>
                                        </g>
                                        <g transform="matrix(6.1232e-17 -1 1 6.1232e-17 99.819 898.03)">
                                            <path d="m810.33 432.24v-64.472c0-1.417 1.148-2.565 2.565-2.565s2.566 1.148 2.566 2.565v64.472c0 1.417-1.149 2.565-2.566 2.565s-2.565-1.148-2.565-2.565z" fill="#0d58d388" fill-rule="nonzero"/>
                                        </g>
                                        <g transform="matrix(6.1232e-17 -1 1 6.1232e-17 99.819 898.03)">
                                            <path d="m824.75 475.79c-1.417 0-2.565-1.148-2.565-2.565v-146.45c0-1.417 1.148-2.565 2.565-2.565s2.566 1.148 2.566 2.565v146.45c0 1.417-1.149 2.565-2.566 2.565z" fill="#0d58d388" fill-rule="nonzero"/>
                                        </g>
                                        <g transform="matrix(6.1232e-17,-1,1,6.1232e-17,100,900)">
                                            <path d="m938.63 408.14v-16.291c0-1.416-1.149-2.565-2.565-2.565-1.417 0-2.566 1.149-2.566 2.565v16.291c0 1.417 1.149 2.566 2.566 2.566 1.416 0 2.565-1.149 2.565-2.566z" fill="#0d58d388" fill-rule="nonzero"/>
                                        </g>
                                        <g transform="matrix(6.1232e-17,-1,1,6.1232e-17,100,900)">
                                            <path d="m926.44 424.4v-48.792c0-1.417-1.148-2.565-2.565-2.565s-2.566 1.148-2.566 2.565v48.792c0 1.417 1.149 2.565 2.566 2.565s2.565-1.148 2.565-2.565z" fill="#0d58d388" fill-rule="nonzero"/>
                                        </g>
                                        <g transform="matrix(6.1232e-17,-1,1,6.1232e-17,100,900)">
                                            <path d="m914.26 450.91v-101.82c0-1.417-1.15-2.566-2.567-2.566s-2.565 1.149-2.565 2.566v101.82c0 1.417 1.148 2.566 2.565 2.566s2.567-1.149 2.567-2.566z" fill="#0d58d388" fill-rule="nonzero"/>
                                        </g>
                                        <g transform="matrix(6.1232e-17,-1,1,6.1232e-17,100,900)">
                                            <path d="m902.07 483.98v-167.96c0-1.417-1.148-2.565-2.565-2.565h-2.566v170.52c0 1.416 1.149 2.565 2.566 2.565s2.565-1.149 2.565-2.565v5e-3z" fill="#0d58d388" fill-rule="nonzero"/>
                                        </g>
                                        <g transform="matrix(6.1232e-17,-1,1,6.1232e-17,100,900)">
                                            <path d="m889.88 432.24v-64.472c0-1.417-1.15-2.565-2.567-2.565s-2.565 1.148-2.565 2.565v64.472c0 1.417 1.148 2.565 2.565 2.565s2.567-1.148 2.567-2.565z" fill="#0d58d388" fill-rule="nonzero"/>
                                        </g>
                                        <g transform="matrix(6.1232e-17,-1,1,6.1232e-17,100,900)">
                                            <path d="m877.69 419.83v-39.668c0-1.417-1.148-2.566-2.565-2.566s-2.566 1.149-2.566 2.566v39.668c0 1.417 1.149 2.566 2.566 2.566s2.565-1.149 2.565-2.566z" fill="#0d58d388" fill-rule="nonzero"/>
                                        </g>
                                        <g transform="matrix(6.1232e-17,-1,1,6.1232e-17,100,900)">
                                            <path d="m865.51 453.62v-107.24c0-1.416-1.15-2.565-2.567-2.565s-2.565 1.149-2.565 2.565v107.24c0 1.417 1.148 2.566 2.565 2.566s2.567-1.149 2.567-2.566z" fill="#0d58d388" fill-rule="nonzero"/>
                                        </g>
                                        <g transform="matrix(6.1232e-17,-1,1,6.1232e-17,100,900)">
                                            <path d="m853.32 432.24v-64.472c0-1.417-1.148-2.565-2.565-2.565s-2.566 1.148-2.566 2.565v64.472c0 1.417 1.149 2.565 2.566 2.565s2.565-1.148 2.565-2.565z" fill="#0d58d388" fill-rule="nonzero"/>
                                        </g>
                                        <g transform="matrix(6.1232e-17,-1,1,6.1232e-17,100,900)">
                                            <path d="m838.9 475.79c1.417 0 2.566-1.148 2.566-2.565v-146.45c0-1.417-1.149-2.565-2.566-2.565s-2.565 1.148-2.565 2.565v146.45c0 1.417 1.148 2.565 2.565 2.565z" fill="#0d58d388" fill-rule="nonzero"/>
                                        </g>
                                    </g>
                                </g>
                            
                        </g>
                    </g>
                
            </g>
        </g>
    </g>
</svg>
