{
	"asset":{
		"generator":"Khronos glTF Blender I/O v4.1.62",
		"version":"2.0"
	},
	"scene":0,
	"scenes":[
		{
			"name":"Scene",
			"nodes":[
				0,
				1,
				2,
				3,
				4,
				5,
				6,
				7,
				8
			]
		}
	],
	"nodes":[
		{
			"mesh":0,
			"name":"Cube.008",
			"scale":[
				1,
				1,
				0.4897671937942505
			],
			"translation":[
				1.4615836143493652,
				6.983878135681152,
				0.255217969417572
			]
		},
		{
			"mesh":1,
			"name":"Cube.007",
			"scale":[
				1,
				1,
				0.4897671937942505
			],
			"translation":[
				0.10507869720458984,
				5.3590006828308105,
				0.25521785020828247
			]
		},
		{
			"mesh":2,
			"name":"Cube.006",
			"scale":[
				1,
				1,
				0.4897671937942505
			],
			"translation":[
				2.705272674560547,
				5.358382225036621,
				0.25521761178970337
			]
		},
		{
			"mesh":3,
			"name":"Cube.005",
			"scale":[
				1,
				1,
				0.4897671937942505
			],
			"translation":[
				2.705272674560547,
				1.774824857711792,
				0.25521761178970337
			]
		},
		{
			"mesh":4,
			"name":"Cube.004",
			"scale":[
				1,
				1,
				0.4897671937942505
			],
			"translation":[
				1.686417818069458,
				1.7689692974090576,
				0.25521761178970337
			]
		},
		{
			"mesh":5,
			"name":"Cube.003",
			"scale":[
				1,
				1,
				0.4897671937942505
			],
			"translation":[
				3.729982614517212,
				1.774824857711792,
				0.25521761178970337
			]
		},
		{
			"mesh":6,
			"name":"Cube.002",
			"scale":[
				1,
				1,
				0.4897671937942505
			],
			"translation":[
				4.742981910705566,
				4.316105842590332,
				0.2552177906036377
			]
		},
		{
			"mesh":7,
			"name":"Cube.001",
			"rotation":[
				0,
				0,
				-0.7071068286895752,
				0.7071068286895752
			],
			"scale":[
				1,
				1,
				0.4897671937942505
			],
			"translation":[
				2.207535982131958,
				1.7396717071533203,
				0.25521761178970337
			]
		},
		{
			"mesh":8,
			"name":"Cube",
			"scale":[
				1,
				1,
				0.4897671937942505
			],
			"translation":[
				0,
				4.310250282287598,
				0.2552177906036377
			]
		}
	],
	"materials":[
		{
			"doubleSided":true,
			"name":"Material.001",
			"pbrMetallicRoughness":{}
		},
		{
			"doubleSided":true,
			"name":"Material.002",
			"pbrMetallicRoughness":{}
		},
		{
			"doubleSided":true,
			"name":"Material.003",
			"pbrMetallicRoughness":{}
		},
		{
			"doubleSided":true,
			"name":"Material.004",
			"pbrMetallicRoughness":{}
		},
		{
			"doubleSided":true,
			"name":"Material.009",
			"pbrMetallicRoughness":{}
		},
		{
			"doubleSided":true,
			"name":"Material.008",
			"pbrMetallicRoughness":{}
		},
		{
			"doubleSided":true,
			"name":"Material.006",
			"pbrMetallicRoughness":{}
		},
		{
			"doubleSided":true,
			"name":"Material.007",
			"pbrMetallicRoughness":{}
		},
		{
			"doubleSided":true,
			"name":"Material.005",
			"pbrMetallicRoughness":{}
		}
	],
	"meshes":[
		{
			"name":"Cube.009",
			"primitives":[
				{
					"attributes":{
						"POSITION":0,
						"NORMAL":1
					},
					"indices":2,
					"material":0
				}
			]
		},
		{
			"name":"Cube.008",
			"primitives":[
				{
					"attributes":{
						"POSITION":3,
						"NORMAL":4
					},
					"indices":5,
					"material":1
				}
			]
		},
		{
			"name":"Cube.007",
			"primitives":[
				{
					"attributes":{
						"POSITION":6,
						"NORMAL":7
					},
					"indices":8,
					"material":2
				}
			]
		},
		{
			"name":"Cube.006",
			"primitives":[
				{
					"attributes":{
						"POSITION":9,
						"NORMAL":10
					},
					"indices":11,
					"material":3
				}
			]
		},
		{
			"name":"Cube.005",
			"primitives":[
				{
					"attributes":{
						"POSITION":12,
						"NORMAL":13
					},
					"indices":11,
					"material":4
				}
			]
		},
		{
			"name":"Cube.004",
			"primitives":[
				{
					"attributes":{
						"POSITION":14,
						"NORMAL":15
					},
					"indices":11,
					"material":5
				}
			]
		},
		{
			"name":"Cube.003",
			"primitives":[
				{
					"attributes":{
						"POSITION":16,
						"NORMAL":17
					},
					"indices":11,
					"material":6
				}
			]
		},
		{
			"name":"Cube.002",
			"primitives":[
				{
					"attributes":{
						"POSITION":18,
						"NORMAL":19
					},
					"indices":11,
					"material":7
				}
			]
		},
		{
			"name":"Cube.001",
			"primitives":[
				{
					"attributes":{
						"POSITION":20,
						"NORMAL":21
					},
					"indices":11,
					"material":8
				}
			]
		}
	],
	"accessors":[
		{
			"bufferView":0,
			"componentType":5126,
			"count":24,
			"max":[
				0.0659601017832756,
				1.3922796249389648,
				1.0000001192092896
			],
			"min":[
				-0.8029264211654663,
				-0.16248349845409393,
				-1.000000238418579
			],
			"type":"VEC3"
		},
		{
			"bufferView":1,
			"componentType":5126,
			"count":24,
			"type":"VEC3"
		},
		{
			"bufferView":2,
			"componentType":5123,
			"count":36,
			"type":"SCALAR"
		},
		{
			"bufferView":3,
			"componentType":5126,
			"count":24,
			"max":[
				-0.6309491395950317,
				1.3922796249389648,
				0.9999997615814209
			],
			"min":[
				-3.067003011703491,
				-1.531361699104309,
				-1.000000238418579
			],
			"type":"VEC3"
		},
		{
			"bufferView":4,
			"componentType":5126,
			"count":24,
			"type":"VEC3"
		},
		{
			"bufferView":5,
			"componentType":5123,
			"count":36,
			"type":"SCALAR"
		},
		{
			"bufferView":6,
			"componentType":5126,
			"count":24,
			"max":[
				-2.1971163749694824,
				2.616101026535034,
				0.9999997615814209
			],
			"min":[
				-3.067003011703491,
				-1.5269979238510132,
				-1.000000238418579
			],
			"type":"VEC3"
		},
		{
			"bufferView":7,
			"componentType":5126,
			"count":24,
			"type":"VEC3"
		},
		{
			"bufferView":8,
			"componentType":5123,
			"count":36,
			"type":"SCALAR"
		},
		{
			"bufferView":9,
			"componentType":5126,
			"count":24,
			"max":[
				-2.1971163749694824,
				0.9062991142272949,
				0.9999997615814209
			],
			"min":[
				-3.067003011703491,
				-1.5269979238510132,
				-1.000000238418579
			],
			"type":"VEC3"
		},
		{
			"bufferView":10,
			"componentType":5126,
			"count":24,
			"type":"VEC3"
		},
		{
			"bufferView":11,
			"componentType":5123,
			"count":36,
			"type":"SCALAR"
		},
		{
			"bufferView":12,
			"componentType":5126,
			"count":24,
			"max":[
				-2.1971163749694824,
				-0.6571156978607178,
				0.9999997615814209
			],
			"min":[
				-3.067003011703491,
				-1.5269979238510132,
				-1.000000238418579
			],
			"type":"VEC3"
		},
		{
			"bufferView":13,
			"componentType":5126,
			"count":24,
			"type":"VEC3"
		},
		{
			"bufferView":14,
			"componentType":5126,
			"count":24,
			"max":[
				-1.2133947610855103,
				-0.6571156978607178,
				0.9999997615814209
			],
			"min":[
				-3.067003011703491,
				-1.5269979238510132,
				-1.000000238418579
			],
			"type":"VEC3"
		},
		{
			"bufferView":15,
			"componentType":5126,
			"count":24,
			"type":"VEC3"
		},
		{
			"bufferView":16,
			"componentType":5126,
			"count":24,
			"max":[
				-1.6759783029556274,
				-0.6571156978607178,
				0.9999997615814209
			],
			"min":[
				-3.067003011703491,
				-1.5269979238510132,
				-1.000000238418579
			],
			"type":"VEC3"
		},
		{
			"bufferView":17,
			"componentType":5126,
			"count":24,
			"type":"VEC3"
		},
		{
			"bufferView":18,
			"componentType":5126,
			"count":24,
			"max":[
				0.4964243173599243,
				-0.6571155190467834,
				0.9999997615814209
			],
			"min":[
				-5.8132476806640625,
				-1.5269979238510132,
				-1.000000238418579
			],
			"type":"VEC3"
		},
		{
			"bufferView":19,
			"componentType":5126,
			"count":24,
			"type":"VEC3"
		},
		{
			"bufferView":20,
			"componentType":5126,
			"count":24,
			"max":[
				0.4964243173599243,
				-0.6571156978607178,
				0.9999997615814209
			],
			"min":[
				-3.067003011703491,
				-1.5269979238510132,
				-1.000000238418579
			],
			"type":"VEC3"
		},
		{
			"bufferView":21,
			"componentType":5126,
			"count":24,
			"type":"VEC3"
		}
	],
	"bufferViews":[
		{
			"buffer":0,
			"byteLength":288,
			"byteOffset":0,
			"target":34962
		},
		{
			"buffer":0,
			"byteLength":288,
			"byteOffset":288,
			"target":34962
		},
		{
			"buffer":0,
			"byteLength":72,
			"byteOffset":576,
			"target":34963
		},
		{
			"buffer":0,
			"byteLength":288,
			"byteOffset":648,
			"target":34962
		},
		{
			"buffer":0,
			"byteLength":288,
			"byteOffset":936,
			"target":34962
		},
		{
			"buffer":0,
			"byteLength":72,
			"byteOffset":1224,
			"target":34963
		},
		{
			"buffer":0,
			"byteLength":288,
			"byteOffset":1296,
			"target":34962
		},
		{
			"buffer":0,
			"byteLength":288,
			"byteOffset":1584,
			"target":34962
		},
		{
			"buffer":0,
			"byteLength":72,
			"byteOffset":1872,
			"target":34963
		},
		{
			"buffer":0,
			"byteLength":288,
			"byteOffset":1944,
			"target":34962
		},
		{
			"buffer":0,
			"byteLength":288,
			"byteOffset":2232,
			"target":34962
		},
		{
			"buffer":0,
			"byteLength":72,
			"byteOffset":2520,
			"target":34963
		},
		{
			"buffer":0,
			"byteLength":288,
			"byteOffset":2592,
			"target":34962
		},
		{
			"buffer":0,
			"byteLength":288,
			"byteOffset":2880,
			"target":34962
		},
		{
			"buffer":0,
			"byteLength":288,
			"byteOffset":3168,
			"target":34962
		},
		{
			"buffer":0,
			"byteLength":288,
			"byteOffset":3456,
			"target":34962
		},
		{
			"buffer":0,
			"byteLength":288,
			"byteOffset":3744,
			"target":34962
		},
		{
			"buffer":0,
			"byteLength":288,
			"byteOffset":4032,
			"target":34962
		},
		{
			"buffer":0,
			"byteLength":288,
			"byteOffset":4320,
			"target":34962
		},
		{
			"buffer":0,
			"byteLength":288,
			"byteOffset":4608,
			"target":34962
		},
		{
			"buffer":0,
			"byteLength":288,
			"byteOffset":4896,
			"target":34962
		},
		{
			"buffer":0,
			"byteLength":288,
			"byteOffset":5184,
			"target":34962
		}
	],
	"buffers":[
		{
			"byteLength":5472,
			"uri":"c4_2.bin"
		}
	]
}
